<svg width="16" height="17" viewBox="0 0 16 17" fill="none" xmlns="http://www.w3.org/2000/svg">
<path d="M15.0296 12.5099C14.6414 13.3719 14.4544 13.7572 13.9552 14.518C13.2563 15.5811 12.2705 16.9086 11.0527 16.917C9.96846 16.9269 9.68862 16.2097 8.21627 16.2224C6.74533 16.2294 6.43877 16.9311 5.35315 16.9199C4.13393 16.9086 3.20158 15.7133 2.50268 14.6516C0.547991 11.6746 0.341272 8.18424 1.54924 6.32799C2.40424 5.01174 3.75565 4.2383 5.02549 4.2383C6.31924 4.2383 7.13205 4.94846 8.2008 4.94846C9.23862 4.94846 9.87002 4.23689 11.3663 4.23689C12.4969 4.23689 13.6922 4.85283 14.5472 5.91596C11.7516 7.44877 12.2058 11.4411 15.0296 12.5099ZM10.23 3.04861C10.7742 2.34971 11.1877 1.36393 11.0372 0.359863C10.1499 0.420332 9.11205 0.987051 8.50596 1.72111C7.95612 2.39049 7.50049 3.3833 7.67768 4.34377C8.64658 4.37471 9.64924 3.79674 10.23 3.04861Z" fill="black"/>
</svg>
