<svg viewBox="0 0 22 16" fill="none" xmlns="http://www.w3.org/2000/svg">
<path d="M7.8875 0.856207C7.75625 0.879645 7.63906 0.94527 7.55 1.04371L1.00625 7.56871L0.59375 7.99996L1.00625 8.43121L7.55 14.9562C7.69531 15.1343 7.92734 15.2164 8.15234 15.1648C8.375 15.1132 8.55078 14.9375 8.60234 14.7148C8.65391 14.4898 8.57187 14.2578 8.39375 14.1125L2.88125 8.59996H20.6C20.8156 8.6023 21.0172 8.4898 21.1273 8.3023C21.2352 8.1148 21.2352 7.88511 21.1273 7.69761C21.0172 7.51011 20.8156 7.39761 20.6 7.39996H2.88125L8.39375 1.88746C8.58828 1.70699 8.63984 1.42105 8.52266 1.18433C8.40781 0.94527 8.14766 0.81402 7.8875 0.856207Z" fill="currentColor"/>
</svg>
