<svg  viewBox="0 0 20 26" fill="none" xmlns="http://www.w3.org/2000/svg">
<path d="M1.04047 0.680054C0.891952 0.680069 0.749523 0.739073 0.644506 0.84409C0.539488 0.949107 0.480484 1.09154 0.480469 1.24005V24.7601C0.480484 24.9086 0.539488 25.051 0.644506 25.156C0.749523 25.261 0.891952 25.32 1.04047 25.3201H10.9739C13.5499 25.3201 15.6846 24.6551 17.1875 23.394C18.6904 22.1328 19.5205 20.2759 19.5205 18.0772C19.5205 15.2564 17.7303 13.0611 15.1455 12.241C17.0442 11.3198 18.3775 9.33831 18.3775 7.10802C18.3775 5.16188 17.6385 3.50789 16.2961 2.3874C14.9537 1.2669 13.0507 0.680054 10.7497 0.680054H1.04047ZM1.60047 1.80005H10.7497C12.8603 1.80005 14.4898 2.33828 15.5786 3.24708C16.6674 4.15589 17.2575 5.436 17.2575 7.10802C17.2575 9.23675 15.7322 11.193 13.8012 11.6132C13.6764 11.6404 13.5646 11.7095 13.4845 11.8089C13.4043 11.9084 13.3605 12.0323 13.3605 12.1601V12.4401C13.3604 12.5761 13.4099 12.7076 13.4997 12.8098C13.5894 12.9121 13.7134 12.9781 13.8483 12.9957C16.596 13.3506 18.4005 15.3499 18.4005 18.0772C18.4005 20.0019 17.7171 21.4872 16.4667 22.5365C15.2163 23.5857 13.3573 24.2001 10.9739 24.2001H1.60047V1.80005ZM5.52047 4.04005C5.37195 4.04007 5.22952 4.09907 5.12451 4.20409C5.01949 4.30911 4.96048 4.45154 4.96047 4.60005V11.3201C4.96048 11.4686 5.01949 11.611 5.12451 11.716C5.22952 11.821 5.37195 11.88 5.52047 11.8801H8.91437C10.4435 11.8801 11.679 11.5742 12.5653 10.9011C13.4516 10.2281 13.9205 9.17905 13.9205 7.96005C13.9205 6.77149 13.4925 5.74374 12.6922 5.05833C11.8919 4.37293 10.7699 4.04005 9.43828 4.04005H5.52047ZM6.08047 5.16005H9.43828C10.5835 5.16005 11.4221 5.44542 11.9637 5.90927C12.5054 6.37313 12.8005 7.02566 12.8005 7.96005C12.8005 8.91442 12.4987 9.54508 11.8883 10.0086C11.2779 10.4722 10.2911 10.7601 8.91437 10.7601H6.08047V5.16005ZM5.52047 13.5601C5.37195 13.5601 5.22952 13.6191 5.12451 13.7241C5.01949 13.8291 4.96048 13.9715 4.96047 14.1201V21.4001C4.96048 21.5486 5.01949 21.691 5.12451 21.796C5.22952 21.901 5.37195 21.96 5.52047 21.9601H9.79265C11.4009 21.9601 12.703 21.6306 13.6306 20.9024C14.5583 20.1742 15.0405 19.0484 15.0405 17.7196C15.0405 16.4089 14.5354 15.2949 13.5803 14.586C12.6252 13.8771 11.2915 13.5601 9.63187 13.5601H5.52047ZM6.08047 14.6801H9.63187C11.1452 14.6801 12.2361 14.9845 12.912 15.4861C13.588 15.9878 13.9205 16.6744 13.9205 17.7196C13.9205 18.7959 13.5892 19.5099 12.9383 20.0208C12.2873 20.5318 11.2453 20.8401 9.79265 20.8401H6.08047V14.6801Z" fill="currentColor"/>
</svg>
