<svg viewBox="0 0 14 18" fill="none" xmlns="http://www.w3.org/2000/svg">
<path d="M0.600195 0.199951C0.494112 0.199962 0.392377 0.242108 0.317364 0.31712C0.242352 0.392132 0.200206 0.493868 0.200195 0.599951V17.4C0.200206 17.506 0.242352 17.6078 0.317364 17.6828C0.392377 17.7578 0.494112 17.7999 0.600195 17.7999H7.69551C9.53551 17.7999 11.0603 17.325 12.1338 16.4242C13.2073 15.5233 13.8002 14.197 13.8002 12.6265C13.8002 10.6116 12.5215 9.04358 10.6752 8.45776C12.0315 7.7998 12.9838 6.38442 12.9838 4.79136C12.9838 3.40126 12.4559 2.21984 11.4971 1.41948C10.5382 0.619128 9.17894 0.199951 7.53535 0.199951H0.600195ZM1.0002 0.999951H7.53535C9.04296 0.999951 10.2068 1.3844 10.9846 2.03354C11.7623 2.68269 12.1838 3.59706 12.1838 4.79136C12.1838 6.31188 11.0943 7.70922 9.71504 8.00933C9.62588 8.02876 9.54604 8.0781 9.48877 8.14915C9.4315 8.2202 9.40025 8.30869 9.4002 8.39995V8.59995C9.40015 8.69714 9.43549 8.79102 9.49961 8.86406C9.56374 8.93709 9.65225 8.98429 9.74863 8.99683C11.7113 9.25033 13.0002 10.6784 13.0002 12.6265C13.0002 14.0012 12.5121 15.0622 11.6189 15.8117C10.7258 16.5611 9.3979 17 7.69551 17H1.0002V0.999951ZM3.8002 2.59995C3.69411 2.59996 3.59238 2.64211 3.51736 2.71712C3.44235 2.79213 3.40021 2.89387 3.4002 2.99995V7.79995C3.40021 7.90603 3.44235 8.00777 3.51736 8.08278C3.59238 8.15779 3.69411 8.19994 3.8002 8.19995H6.22441C7.31666 8.19995 8.19914 7.98152 8.83223 7.50073C9.46532 7.01995 9.80019 6.27066 9.80019 5.39995C9.80019 4.55097 9.49449 3.81687 8.92285 3.32729C8.35121 2.83772 7.54982 2.59995 6.59863 2.59995H3.8002ZM4.2002 3.39995H6.59863C7.41664 3.39995 8.01568 3.60378 8.40254 3.93511C8.7894 4.26643 9.00019 4.73253 9.00019 5.39995C9.00019 6.08164 8.78464 6.53212 8.34863 6.86323C7.91262 7.19435 7.20777 7.39995 6.22441 7.39995H4.2002V3.39995ZM3.8002 9.39995C3.69411 9.39996 3.59238 9.44211 3.51736 9.51712C3.44235 9.59213 3.40021 9.69387 3.4002 9.79995V15C3.40021 15.106 3.44235 15.2078 3.51736 15.2828C3.59238 15.3578 3.69411 15.3999 3.8002 15.4H6.85176C8.00053 15.4 8.93054 15.1646 9.59316 14.6445C10.2558 14.1244 10.6002 13.3202 10.6002 12.371C10.6002 11.4348 10.2394 10.6391 9.55723 10.1328C8.87503 9.62641 7.92235 9.39995 6.73691 9.39995H3.8002ZM4.2002 10.2H6.73691C7.81787 10.2 8.59708 10.4174 9.07988 10.7757C9.56268 11.1341 9.80019 11.6245 9.80019 12.371C9.80019 13.1399 9.56361 13.6498 9.09863 14.0148C8.63366 14.3798 7.88939 14.6 6.85176 14.6H4.2002V10.2Z" fill="currentColor"/>
</svg>
