<svg  viewBox="0 0 17 19" fill="none" xmlns="http://www.w3.org/2000/svg">
<path fill-rule="evenodd" clip-rule="evenodd" d="M2.66667 1.5C2.66667 0.947714 3.11438 0.5 3.66667 0.5H4C4.55228 0.5 5 0.947715 5 1.5V2.46154H12V1.5C12 0.947714 12.4477 0.5 13 0.5H13.3333C13.8856 0.5 14.3333 0.947715 14.3333 1.5V2.46154H16C16.5523 2.46154 17 2.90925 17 3.46154V17.5C17 18.0523 16.5523 18.5 16 18.5H1C0.447715 18.5 0 18.0523 0 17.5V3.46154C0 2.90925 0.447716 2.46154 1 2.46154H2.66667V1.5ZM2.66667 3.46154L1 3.46154V5.73077H16V3.46154H14.3333V4.42308C14.3333 4.97536 13.8856 5.42308 13.3333 5.42308H13C12.4477 5.42308 12 4.97536 12 4.42308V3.46154H5V4.42308C5 4.97536 4.55228 5.42308 4 5.42308H3.66667C3.11438 5.42308 2.66667 4.97536 2.66667 4.42308V3.46154ZM16 6.73077H1V17.5H16V6.73077ZM4 1.5L3.66667 1.5V4.42308L4 4.42308L4 1.5ZM13.3333 1.5L13 1.5V4.42308L13.3333 4.42308L13.3333 1.5ZM12.102 8.42449C12.3349 8.5729 12.4034 8.88198 12.255 9.11486L9.25311 13.8255C8.91158 14.3615 8.16329 14.447 7.70958 14.002L5.48323 11.8185C5.28608 11.6251 5.28301 11.3086 5.47636 11.1114C5.66972 10.9143 5.98629 10.9112 6.18344 11.1046L8.40979 13.2881L11.4117 8.57745C11.5601 8.34457 11.8692 8.27609 12.102 8.42449Z" fill="currentColor"/>
</svg>
