<svg viewBox="0 0 19 20" xmlns="http://www.w3.org/2000/svg">
<path fill-rule="evenodd" clip-rule="evenodd" d="M4.26378 1.0219C4.13984 1.0219 4.03937 1.11994 4.03937 1.24088V4.16058C4.03937 4.28152 4.13984 4.37956 4.26378 4.37956C4.38772 4.37956 4.48819 4.28152 4.48819 4.16058V1.24088C4.48819 1.11994 4.38772 1.0219 4.26378 1.0219ZM2.99213 1.24088C2.99213 0.555559 3.56146 0 4.26378 0C4.96609 0 5.53543 0.555559 5.53543 1.24088V2.18978H13.4646V1.24088C13.4646 0.555559 14.0339 0 14.7362 0C15.4385 0 16.0079 0.555559 16.0079 1.24088V2.18978H17.7283C18.4307 2.18978 19 2.74534 19 3.43066V18.7591C19 19.4444 18.4307 20 17.7283 20H1.27165C0.569339 20 0 19.4444 0 18.7591V3.43066C0 2.74534 0.569339 2.18978 1.27165 2.18978H2.99213V1.24088ZM2.99213 3.21168H1.27165C1.14772 3.21168 1.04724 3.30972 1.04724 3.43066V5.83942H17.9528V3.43066C17.9528 3.30972 17.8523 3.21168 17.7283 3.21168H16.0079V4.16058C16.0079 4.8459 15.4385 5.40146 14.7362 5.40146C14.0339 5.40146 13.4646 4.8459 13.4646 4.16058V3.21168H5.53543V4.16058C5.53543 4.8459 4.96609 5.40146 4.26378 5.40146C3.56146 5.40146 2.99213 4.8459 2.99213 4.16058V3.21168ZM17.9528 6.86131H1.04724V18.7591C1.04724 18.8801 1.14772 18.9781 1.27165 18.9781H17.7283C17.8523 18.9781 17.9528 18.8801 17.9528 18.7591V6.86131ZM14.7362 1.0219C14.6123 1.0219 14.5118 1.11994 14.5118 1.24088V4.16058C14.5118 4.28152 14.6123 4.37956 14.7362 4.37956C14.8602 4.37956 14.9606 4.28152 14.9606 4.16058V1.24088C14.9606 1.11994 14.8602 1.0219 14.7362 1.0219ZM13.5177 8.83679C13.7629 8.98635 13.8375 9.30158 13.6842 9.54087L10.4424 14.6022C10.009 15.2789 9.0431 15.3862 8.46484 14.822L6.13762 12.5511C5.93313 12.3515 5.93313 12.028 6.13762 11.8285C6.3421 11.6289 6.67364 11.6289 6.87813 11.8285L9.20535 14.0994C9.3074 14.199 9.47785 14.18 9.55433 14.0606L12.7961 8.99927C12.9494 8.75997 13.2724 8.68723 13.5177 8.83679Z" fill="currentColor"/>
</svg>
