<svg  viewBox="0 0 30 30" fill="none" xmlns="http://www.w3.org/2000/svg">
<g clip-path="url(#clip0)">
<path d="M1.0875 1.2002C1.06875 1.20488 1.05 1.21191 1.03125 1.21895C0.447656 1.30098 0 1.79551 0 2.4002C0 3.06348 0.536719 3.6002 1.2 3.6002C1.86328 3.6002 2.4 3.06348 2.4 2.4002H5.19375C5.94141 2.4002 6.33047 2.55488 6.61875 2.8127C6.90234 3.06816 7.13203 3.49941 7.33125 4.1627L12.1313 23.5314C12.3117 24.2182 12.4922 24.926 12.9938 25.5002C13.2023 25.7393 13.4648 25.9338 13.7813 26.0814C13.4297 26.4986 13.2 27.0166 13.2 27.6002C13.2 28.9197 14.2805 30.0002 15.6 30.0002C16.9195 30.0002 18 28.9197 18 27.6002C18 27.1596 17.8711 26.7564 17.6625 26.4002H21.3375C21.1289 26.7564 21 27.1596 21 27.6002C21 28.9197 22.0805 30.0002 23.4 30.0002C24.7195 30.0002 25.8 28.9197 25.8 27.6002C25.8 26.9838 25.5492 26.433 25.1625 26.0064C25.2305 25.8236 25.2023 25.6174 25.0922 25.458C24.9797 25.2963 24.7969 25.2002 24.6 25.2002H15.4313C14.5055 25.2002 14.1281 25.0033 13.875 24.7127C13.6242 24.4244 13.4719 23.9205 13.2938 23.2502V23.2314L12.8813 21.6002H23.8875C24.1383 21.6002 24.3656 21.4432 24.45 21.2064L28.7625 9.80645C28.8328 9.62363 28.807 9.41738 28.6945 9.25566C28.582 9.09395 28.3969 8.99785 28.2 9.0002H9.76875L8.49375 3.88145C8.49375 3.86973 8.49375 3.85566 8.49375 3.84395C8.26406 3.07051 7.96641 2.4002 7.425 1.9127C6.88359 1.4252 6.12188 1.2002 5.19375 1.2002H1.2C1.18125 1.2002 1.1625 1.2002 1.14375 1.2002C1.125 1.2002 1.10625 1.2002 1.0875 1.2002ZM10.0688 10.2002H27.3375L23.475 20.4002H12.6L10.0688 10.2002ZM15.6 26.4002C16.2703 26.4002 16.8 26.9299 16.8 27.6002C16.8 28.2705 16.2703 28.8002 15.6 28.8002C14.9297 28.8002 14.4 28.2705 14.4 27.6002C14.4 26.9299 14.9297 26.4002 15.6 26.4002ZM23.4 26.4002C24.0703 26.4002 24.6 26.9299 24.6 27.6002C24.6 28.2705 24.0703 28.8002 23.4 28.8002C22.7297 28.8002 22.2 28.2705 22.2 27.6002C22.2 26.9299 22.7297 26.4002 23.4 26.4002Z" fill="currentColor"/>
</g>
<defs>
<clipPath id="clip0">
<rect width="30" height="30" fill="white"/>
</clipPath>
</defs>
</svg>
