<svg viewBox="0 0 20 20" fill="none" xmlns="http://www.w3.org/2000/svg">
<path d="M2.80078 0.800003C1.68047 0.800003 0.800781 1.67969 0.800781 2.8V13.6C0.800781 14.7203 1.68047 15.6 2.80078 15.6H13.6008C14.7211 15.6 15.6008 14.7203 15.6008 13.6V3.925L14.8008 4.8V13.6C14.8008 14.2797 14.2805 14.8 13.6008 14.8H2.80078C2.12109 14.8 1.60078 14.2797 1.60078 13.6V2.8C1.60078 2.12032 2.12109 1.6 2.80078 1.6H13.3633L14.0383 0.837503C13.8789 0.837503 13.7602 0.800003 13.6008 0.800003H2.80078ZM14.5008 2.1375L7.57578 9.8375L4.26328 6.9L3.73828 7.5L7.33828 10.7L7.63828 10.9625L7.90078 10.6625L15.1008 2.6625L14.5008 2.1375ZM16.4008 4.4V5.2H17.2008C17.8805 5.2 18.4008 5.72032 18.4008 6.4V17.2C18.4008 17.8797 17.8805 18.4 17.2008 18.4H6.40078C5.72109 18.4 5.20078 17.8797 5.20078 17.2V16.4H4.40078V17.2C4.40078 18.3203 5.28047 19.2 6.40078 19.2H17.2008C18.3211 19.2 19.2008 18.3203 19.2008 17.2V6.4C19.2008 5.27969 18.3211 4.4 17.2008 4.4H16.4008Z" fill="currentColor"/>
</svg>
