<svg width="18" height="18" viewBox="0 0 18 18" fill="none" xmlns="http://www.w3.org/2000/svg">
<path d="M3.4001 0.599998C1.84072 0.599998 0.600098 1.84062 0.600098 3.4V14.6C0.600098 16.1594 1.84072 17.4 3.4001 17.4H14.6001C16.1595 17.4 17.4001 16.1594 17.4001 14.6V5L16.6001 5.925V14.6C16.6001 15.7203 15.7204 16.6 14.6001 16.6H3.4001C2.27979 16.6 1.4001 15.7203 1.4001 14.6V3.4C1.4001 2.27969 2.27979 1.4 3.4001 1.4H13.9626L14.6001 0.599998H3.4001ZM16.3001 2.1L8.5626 11.225L5.3126 8.1875L4.7626 8.775L8.3251 12.0875L8.6376 12.375L8.9001 12.0625L16.9001 2.6125L16.3001 2.1Z" fill="#20BD56"/>
</svg>
