<svg  viewBox="0 0 21 21" fill="none" xmlns="http://www.w3.org/2000/svg">
<path  d="M10.12 0C4.53613 0 0 4.53613 0 10.12C0 15.7039 4.53613 20.24 10.12 20.24C15.7039 20.24 20.24 15.7039 20.24 10.12C20.24 4.53613 15.7039 0 10.12 0ZM10.12 0.88C15.2283 0.88 19.36 5.0117 19.36 10.12C19.36 15.2283 15.2283 19.36 10.12 19.36C5.0117 19.36 0.88 15.2283 0.88 10.12C0.88 5.0117 5.0117 0.88 10.12 0.88ZM10.1131 2.19398C9.87044 2.19777 9.67673 2.39731 9.68 2.64V8.87648C9.15286 9.0628 8.80034 9.56089 8.8 10.12C8.80034 10.3166 8.84469 10.5107 8.92977 10.688L6.28891 13.3289C6.17392 13.4392 6.12769 13.6032 6.16791 13.7574C6.20813 13.9116 6.32844 14.0319 6.48261 14.0721C6.63678 14.1123 6.80075 14.0661 6.91109 13.9511L9.55195 11.3102C9.72933 11.3953 9.92338 11.4397 10.12 11.44C10.8491 11.44 11.44 10.8491 11.44 10.12C11.4391 9.56123 11.0868 9.06366 10.56 8.87734V2.64C10.5615 2.52106 10.515 2.40659 10.4309 2.32255C10.3467 2.2385 10.2321 2.19209 10.1131 2.19398Z" fill="currentColor"/>
</svg>
