<svg viewBox="0 0 17 16" fill="none" xmlns="http://www.w3.org/2000/svg">
<g>
<path
      fill-rule="evenodd"
      clip-rule="evenodd"
      d="M8.35 0.7C4.05361 0.7 0.7 3.51786 0.7 6.85C0.7 10.1821 4.05361 13 8.35 13C8.95118 13 9.53574 12.9442 10.0963 12.8388L10.2709 12.8059L10.4005 12.9276C11.1665 13.6467 11.7887 14.0887 12.4589 14.3891C12.8935 14.5839 13.3572 14.7233 13.9071 14.8363C13.6752 14.5545 13.4828 14.2783 13.327 13.9856C13.033 13.4331 12.8804 12.8435 12.8087 12.0788L12.7883 11.8614L12.9745 11.7475C14.8333 10.6105 16 8.82666 16 6.85C16 3.51786 12.6464 0.7 8.35 0.7ZM0 6.85C0 3.00244 3.80984 0 8.35 0C12.8902 0 16.7 3.00244 16.7 6.85C16.7 9.04976 15.4422 10.984 13.5284 12.2258C13.6006 12.8173 13.7312 13.255 13.9449 13.6567C14.187 14.1114 14.5469 14.5418 15.0997 15.1048L15.8218 15.8401L14.8013 15.6966C13.7534 15.5492 12.9346 15.3695 12.1726 15.0279C11.4494 14.7037 10.7964 14.2426 10.0507 13.558C9.50131 13.6511 8.93245 13.7 8.35 13.7C3.80984 13.7 0 10.6976 0 6.85Z"
      fill="currentColor"
    />
<path
      d="M5.34998 6.84998C5.34998 7.12612 5.12612 7.34998 4.84998 7.34998C4.57383 7.34998 4.34998 7.12612 4.34998 6.84998C4.34998 6.57383 4.57383 6.34998 4.84998 6.34998C5.12612 6.34998 5.34998 6.57383 5.34998 6.84998Z"
      fill="#455067"
    />
<path
      d="M8.84998 6.84998C8.84998 7.12612 8.62612 7.34998 8.34998 7.34998C8.07383 7.34998 7.84998 7.12612 7.84998 6.84998C7.84998 6.57383 8.07383 6.34998 8.34998 6.34998C8.62612 6.34998 8.84998 6.57383 8.84998 6.84998Z"
      fill="#455067"
    />
<path
      d="M12.35 6.84998C12.35 7.12612 12.1261 7.34998 11.85 7.34998C11.5738 7.34998 11.35 7.12612 11.35 6.84998C11.35 6.57383 11.5738 6.34998 11.85 6.34998C12.1261 6.34998 12.35 6.57383 12.35 6.84998Z"
      fill="#455067"
    />
</g>
</svg>
