<svg width="33" height="19" viewBox="0 0 33 19" fill="none" xmlns="http://www.w3.org/2000/svg">
<path fill-rule="evenodd" clip-rule="evenodd" d="M17.2531 9.10735L20.2558 3.33091L24.3924 4.34157L20.4966 14.5771V14.6845C20.4966 17.0589 22.6627 19 25.3575 19C28.0523 19 30.2185 17.0589 30.2185 14.6845V14.5771L26.4029 4.55224H27.3434C28.4109 4.55224 29.4664 4.35499 30.4412 3.97334L32.5537 3.14623C32.9335 2.99753 33.1039 2.60695 32.9344 2.27384C32.7649 1.94073 32.3195 1.79124 31.9397 1.93995L29.8272 2.76705C29.0456 3.07306 28.1993 3.23121 27.3434 3.23121H25.4605L20.3601 1.98508C18.6943 -0.661693 14.3057 -0.661693 12.6399 1.98508L7.53954 3.23121H5.65665C4.80072 3.23121 3.9544 3.07306 3.17281 2.76705L1.06028 1.93995C0.68048 1.79124 0.235145 1.94073 0.0655981 2.27384C-0.103949 2.60695 0.0664972 2.99753 0.446299 3.14623L2.55883 3.97334C3.53362 4.35499 4.58914 4.55224 5.65665 4.55224H6.59712L2.78154 14.5771V14.6845C2.78154 17.0589 4.94767 19 7.64248 19C10.3373 19 12.5034 17.0589 12.5034 14.6845V14.5771L8.60765 4.34157L12.7442 3.33091L15.7469 9.10735H17.2531ZM13.9996 2.56137L16.5 7.37163L19.0004 2.56137C17.8856 0.907574 15.1144 0.907574 13.9996 2.56137ZM25.3575 5.97773L22.295 14.024H28.42L25.3575 5.97773ZM28.6306 15.345H22.0845C22.4222 16.6863 23.7667 17.679 25.3575 17.679C26.9483 17.679 28.2929 16.6863 28.6306 15.345ZM7.64248 5.97773L4.57999 14.024H10.705L7.64248 5.97773ZM10.9155 15.345H4.36942C4.70715 16.6863 6.05166 17.679 7.64248 17.679C9.2333 17.679 10.5778 16.6863 10.9155 15.345Z" fill="#455067"/>
</svg>
