<svg  viewBox="0 0 8 8" fill="none" xmlns="http://www.w3.org/2000/svg">
<path d="M7.69398 6.21639C8.10201 6.62441 8.10201 7.28595 7.69398 7.69398C7.28595 8.10201 6.62441 8.10201 6.21639 7.69398L0.30602 1.78361C-0.102006 1.37559 -0.102006 0.714045 0.306019 0.306019C0.714045 -0.102006 1.37559 -0.102007 1.78361 0.306019L7.69398 6.21639Z" fill="currentColor"/>
<path d="M1.78361 7.69398C1.37559 8.10201 0.714045 8.10201 0.306019 7.69398C-0.102006 7.28595 -0.102006 6.62441 0.306019 6.21639L6.21639 0.30602C6.62441 -0.102006 7.28595 -0.102006 7.69398 0.30602C8.10201 0.714046 8.10201 1.37559 7.69398 1.78361L1.78361 7.69398Z" fill="currentColor"/>
</svg>
