<svg viewBox="0 0 16 22" fill="none" xmlns="http://www.w3.org/2000/svg">
<path d="M6.23999 0.879883C5.5164 0.879883 4.91999 1.47629 4.91999 2.19988V3.07988H1.46874C1.44296 3.07645 1.4189 3.07301 1.39312 3.07301C1.37249 3.07473 1.35015 3.07645 1.32952 3.07988H0.51999C0.361865 3.07816 0.214053 3.16066 0.133272 3.29816C0.0542089 3.43566 0.0542089 3.6041 0.133272 3.7416C0.214053 3.8791 0.361865 3.9616 0.51999 3.95988H0.95999V19.7999C0.95999 20.5235 1.5564 21.1199 2.27999 21.1199H13.72C14.4436 21.1199 15.04 20.5235 15.04 19.7999V3.95988H15.48C15.6381 3.9616 15.7859 3.8791 15.8667 3.7416C15.9458 3.6041 15.9458 3.43566 15.8667 3.29816C15.7859 3.16066 15.6381 3.07816 15.48 3.07988H14.6739C14.6258 3.07129 14.5776 3.07129 14.5312 3.07988H11.08V2.19988C11.08 1.47629 10.4836 0.879883 9.75999 0.879883H6.23999ZM6.23999 1.75988H9.75999C10.0041 1.75988 10.2 1.95582 10.2 2.19988V3.07988H5.79999V2.19988C5.79999 1.95582 5.99593 1.75988 6.23999 1.75988ZM1.83999 3.95988H5.28608C5.33421 3.96848 5.38233 3.96848 5.42874 3.95988H10.5661C10.6142 3.96848 10.6623 3.96848 10.7087 3.95988H14.16V19.7999C14.16 20.0439 13.9641 20.2399 13.72 20.2399H2.27999C2.03593 20.2399 1.83999 20.0439 1.83999 19.7999V3.95988ZM4.91483 8.79473C4.73608 8.79645 4.57624 8.90473 4.50749 9.06973C4.44046 9.23645 4.47999 9.42551 4.6089 9.55098L7.3778 12.3199L4.6089 15.0888C4.49374 15.1988 4.44733 15.3638 4.48858 15.5168C4.52812 15.6714 4.64843 15.7918 4.80312 15.8313C4.95608 15.8725 5.12108 15.8261 5.23108 15.711L7.99999 12.9421L10.7689 15.711C10.8789 15.8261 11.0439 15.8725 11.1969 15.8313C11.3516 15.7918 11.4719 15.6714 11.5114 15.5168C11.5526 15.3638 11.5062 15.1988 11.3911 15.0888L8.62218 12.3199L11.3911 9.55098C11.5217 9.42379 11.5595 9.23129 11.4891 9.06457C11.4186 8.89613 11.2536 8.78957 11.0714 8.79473C10.9562 8.79816 10.848 8.84629 10.7689 8.92879L7.99999 11.6977L5.23108 8.92879C5.14858 8.84285 5.03515 8.79645 4.91483 8.79473Z" fill="currentColor"/>
</svg>
