<svg viewBox="0 0 28 28" fill="none" xmlns="http://www.w3.org/2000/svg">
<path d="M13.5452 0.0524902C13.3308 0.0524902 13.2215 0.155303 13.1602 0.20999C13.099 0.264678 13.0793 0.299678 13.0552 0.33249C13.0093 0.400303 12.9765 0.450616 12.9502 0.50749C12.8977 0.619053 12.8561 0.75249 12.7927 0.90999C12.6658 1.22499 12.4996 1.64718 12.2852 2.11749C11.8587 3.0603 11.2221 4.18687 10.4127 4.96999C10.4127 4.97655 10.4127 4.98093 10.4127 4.98749C9.18771 6.21249 9.08271 7.61249 9.06521 8.03249C8.8924 8.15718 6.92584 9.58562 5.02271 11.3225C5.01396 11.3312 5.01396 11.3312 5.00521 11.34C2.82646 13.1206 0.157713 15.96 0.157713 15.96C-0.00634978 16.0978 -0.0763499 16.3187 -0.0238498 16.5244C0.0286503 16.7322 0.197088 16.8919 0.4049 16.9356C0.6149 16.9794 0.831463 16.8984 0.962713 16.73C0.962713 16.73 3.64896 13.8884 5.72271 12.1975C5.73365 12.1931 5.74678 12.1866 5.75771 12.18C7.6849 10.4169 9.90521 8.80249 9.90521 8.80249C10.0496 8.6953 10.1349 8.52687 10.1327 8.34749C10.1327 8.34749 10.1546 6.82062 11.2002 5.77499C12.1846 4.82124 12.8452 3.57655 13.3002 2.57249C13.4533 2.23343 13.5452 1.9928 13.6502 1.73249C13.7333 1.88343 13.8099 1.9928 13.8952 2.18749C14.1774 2.81968 14.4377 3.6553 14.5252 4.60249C14.4421 4.77749 14.4552 4.98312 14.5602 5.14499C14.5602 5.18655 14.5602 5.22593 14.5602 5.26749C14.5602 7.30405 14.6827 8.04999 14.6827 8.04999C14.7221 8.25999 14.8774 8.43062 15.0852 8.48749C15.0852 8.48749 18.0143 9.3078 19.3202 10.0625C20.0377 10.4694 20.2565 10.9134 20.4227 11.375C20.5058 11.6069 20.5737 11.8453 20.6677 12.0925C20.7618 12.3397 20.9018 12.6328 21.2277 12.81C23.074 13.8425 24.6665 15.1659 25.4977 16.1525C25.559 16.2225 25.6377 16.2772 25.7252 16.31C26.1758 16.4916 26.4908 16.6775 26.6702 16.835C26.8496 16.9925 26.8758 17.0975 26.8802 17.15C26.8846 17.2025 26.8737 17.2747 26.7402 17.43C26.6068 17.5853 26.3552 17.7866 25.9877 17.99C25.9177 18.0337 25.8565 18.095 25.8127 18.165C24.3996 20.1753 23.693 20.5144 22.9602 21.1225C22.9558 21.1247 22.9471 21.1203 22.9427 21.1225C22.6343 21.3587 22.3762 21.4944 22.0152 21.525C21.6521 21.5556 21.138 21.4659 20.3877 21.1575C20.3833 21.1553 20.3746 21.1597 20.3702 21.1575C18.6465 20.4116 16.3233 19.6525 14.3852 19.6525C13.1296 19.6525 12.0949 20.3153 11.4102 21.245C10.7255 22.1747 10.3602 23.38 10.3602 24.5875C10.3602 25.2875 10.3077 27.37 10.3077 27.37C10.299 27.6784 10.5418 27.9387 10.8502 27.9475C11.1587 27.9562 11.419 27.7134 11.4277 27.405C11.4277 27.405 11.4802 25.3444 11.4802 24.5875C11.4802 23.6097 11.7821 22.6187 12.3027 21.91C12.8233 21.2012 13.5124 20.7725 14.3852 20.7725C16.0258 20.7725 18.2987 21.4812 19.9327 22.19C19.9393 22.19 19.9437 22.19 19.9502 22.19C20.8121 22.5466 21.5077 22.68 22.1202 22.6275C22.7327 22.575 23.2293 22.3147 23.6427 21.9975C23.6493 21.9975 23.6537 21.9975 23.6602 21.9975C24.2574 21.4987 25.2024 20.9016 26.6527 18.865C27.0268 18.6462 27.3658 18.4209 27.5977 18.1475C27.8602 17.8369 28.0374 17.4562 28.0002 17.045C27.963 16.6337 27.7268 16.275 27.4052 15.995C27.123 15.7478 26.7249 15.5553 26.2852 15.365C25.3162 14.2362 23.6952 12.9062 21.7702 11.83C21.7877 11.8387 21.7571 11.8387 21.7002 11.69C21.6433 11.5412 21.5777 11.2831 21.4727 10.99C21.2605 10.4016 20.8427 9.62718 19.8802 9.08249C19.2983 8.74562 18.6049 8.46562 17.9377 8.22499C18.1215 7.82687 18.4408 7.0153 18.5327 6.10749C18.5327 6.10093 18.5327 6.09655 18.5327 6.08999C18.6487 4.75343 18.5721 3.61155 18.4452 2.78249C18.3818 2.36905 18.3162 2.03874 18.2352 1.78499C18.1958 1.65812 18.1521 1.55968 18.0952 1.45249C18.0668 1.39999 18.0362 1.34749 17.9727 1.27749C17.9093 1.20749 17.8021 1.06749 17.5352 1.06749C17.3274 1.06749 17.253 1.12218 17.2027 1.15499C17.1524 1.1878 17.124 1.21843 17.0977 1.24249C17.0452 1.29062 17.019 1.33437 16.9752 1.38249C16.8899 1.48093 16.7871 1.60562 16.6777 1.74999C16.4568 2.03655 16.1855 2.39968 15.9077 2.78249C15.748 3.00343 15.6058 3.20249 15.4527 3.41249C15.3083 2.77593 15.1202 2.2028 14.9102 1.73249C14.7112 1.28843 14.5099 0.92749 14.3327 0.66499C14.2452 0.53374 14.1686 0.422178 14.0877 0.33249C14.0462 0.286553 14.0068 0.238428 13.9477 0.19249C13.8886 0.146553 13.8362 0.0524902 13.5452 0.0524902ZM17.3077 2.78249C17.3208 2.85249 17.3318 2.88093 17.3427 2.95749C17.4543 3.69249 17.5177 4.75343 17.4127 5.98499C17.4127 5.99155 17.4127 5.99593 17.4127 6.00249C17.3208 6.88405 16.9293 7.70437 16.8527 7.85749C16.378 7.71312 15.958 7.59499 15.7677 7.54249C15.748 7.40468 15.6802 7.01968 15.6802 5.26749C15.6802 5.17343 15.6649 5.07937 15.6627 4.98749C15.6736 4.97437 15.6868 4.9678 15.6977 4.95249C15.7918 4.83655 15.8946 4.69218 16.0127 4.53249C16.2512 4.21312 16.5421 3.82812 16.8177 3.44749C16.9993 3.19812 17.148 2.99687 17.3077 2.78249ZM18.4802 11.76C17.8612 11.76 17.3602 12.2609 17.3602 12.88C17.3602 13.4991 17.8612 14 18.4802 14C19.0993 14 19.6002 13.4991 19.6002 12.88C19.6002 12.2609 19.0993 11.76 18.4802 11.76Z" fill="currentColor"/>
</svg>
