<svg  viewBox="0 0 17 12" fill="none" xmlns="http://www.w3.org/2000/svg">
<g >
<path d="M15.2835 0.888917C16.2009 0.888917 16.9446 1.64031 16.9446 2.56719C16.9446 3.49408 16.2009 4.24547 15.2835 4.24547L1.99461 4.24547C1.0772 4.24547 0.333496 3.49408 0.333496 2.56719C0.333496 1.64031 1.0772 0.888916 1.99461 0.888916L15.2835 0.888917Z" fill="currentColor"/>
<path d="M15.2835 7.75459C16.2009 7.75459 16.9446 8.50598 16.9446 9.43286C16.9446 10.3597 16.2009 11.1111 15.2835 11.1111L1.99461 11.1111C1.0772 11.1111 0.333496 10.3597 0.333496 9.43286C0.333496 8.50598 1.0772 7.75459 1.99461 7.75459L15.2835 7.75459Z" fill="currentColor"/>
</g>
</svg>
