<svg width="16" height="13" viewBox="0 0 16 13" fill="none" xmlns="http://www.w3.org/2000/svg">
<path d="M8.04733 0.560059C6.11435 0.560059 4.34074 1.33828 2.97045 2.62068C2.93847 2.64906 2.91249 2.68356 2.89407 2.72215C2.87564 2.76073 2.86513 2.80262 2.86316 2.84533C2.86119 2.88805 2.8678 2.93073 2.8826 2.97084C2.8974 3.01096 2.92009 3.0477 2.94933 3.07891C2.97856 3.11011 3.01376 3.13513 3.05283 3.15251C3.0919 3.16988 3.13406 3.17924 3.17681 3.18005C3.21957 3.18086 3.26205 3.17309 3.30175 3.1572C3.34145 3.14132 3.37756 3.11764 3.40795 3.08756C4.6719 1.90468 6.28559 1.20006 8.04733 1.20006C9.80025 1.20006 11.4062 1.89771 12.6673 3.07006C12.6979 3.09972 12.7341 3.12297 12.7738 3.13846C12.8135 3.15395 12.8559 3.16136 12.8984 3.16025C12.941 3.15915 12.983 3.14955 13.0218 3.13202C13.0606 3.1145 13.0956 3.0894 13.1246 3.05819C13.1536 3.02698 13.176 2.9903 13.1907 2.95029C13.2053 2.91029 13.2118 2.86776 13.2098 2.82521C13.2078 2.78265 13.1973 2.74093 13.179 2.70248C13.1606 2.66403 13.1348 2.62964 13.103 2.60131C11.7356 1.33014 9.97057 0.560059 8.04733 0.560059ZM14.558 4.70006C14.4915 4.70115 14.427 4.72292 14.3734 4.76235C14.3199 4.80178 14.28 4.8569 14.2592 4.92006C12.9757 7.30307 10.6691 8.88006 8.03858 8.88006C5.41395 8.88006 3.11198 7.3094 1.8267 4.93506C1.8023 4.86303 1.75303 4.80205 1.68775 4.76304C1.62246 4.72404 1.54542 4.70955 1.47043 4.72219C1.39543 4.73483 1.32739 4.77376 1.27849 4.832C1.22959 4.89025 1.20304 4.96401 1.20358 5.04006V5.05568C1.20343 5.10842 1.21631 5.16038 1.24108 5.20693C1.67571 6.01846 2.22547 6.74582 2.8642 7.36256L1.04733 9.30131C0.989313 9.3633 0.9583 9.4458 0.961113 9.53067C0.963926 9.61553 1.00033 9.69579 1.06233 9.75381C1.12432 9.81182 1.20683 9.84284 1.29169 9.84002C1.37655 9.83721 1.45681 9.8008 1.51483 9.73881L3.34233 7.78818C3.87014 8.22355 4.44725 8.58969 5.0642 8.87006L3.87358 11.2994C3.8551 11.3372 3.84424 11.3782 3.84162 11.4202C3.839 11.4621 3.84467 11.5042 3.85831 11.5439C3.87194 11.5837 3.89328 11.6204 3.9211 11.6519C3.94891 11.6834 3.98266 11.7091 4.02042 11.7276C4.05818 11.7461 4.09921 11.7569 4.14117 11.7596C4.18312 11.7622 4.22518 11.7565 4.26494 11.7428C4.3047 11.7292 4.34138 11.7079 4.37289 11.68C4.4044 11.6522 4.43012 11.6184 4.44858 11.5807L5.65983 9.10818C6.30226 9.33474 6.97964 9.47193 7.6817 9.50693C7.68141 9.5113 7.6812 9.51568 7.68108 9.52006V12.0801C7.68048 12.1225 7.68831 12.1646 7.70413 12.2039C7.71994 12.2433 7.74341 12.2791 7.77319 12.3093C7.80296 12.3395 7.83844 12.3635 7.87756 12.3798C7.91669 12.3962 7.95867 12.4046 8.00108 12.4046C8.04349 12.4046 8.08547 12.3962 8.12459 12.3798C8.16372 12.3635 8.1992 12.3395 8.22897 12.3093C8.25874 12.2791 8.28222 12.2433 8.29803 12.2039C8.31384 12.1646 8.32168 12.1225 8.32108 12.0801V9.52006C8.32093 9.51651 8.32072 9.51297 8.32045 9.50943C9.04557 9.48089 9.74494 9.34135 10.4073 9.10943L11.5511 11.5744C11.5673 11.6147 11.5915 11.6512 11.6223 11.6818C11.6531 11.7124 11.6898 11.7364 11.7301 11.7524C11.7705 11.7683 11.8137 11.7759 11.857 11.7747C11.9004 11.7735 11.9431 11.7634 11.9825 11.7452C12.0218 11.7269 12.0571 11.7009 12.0861 11.6686C12.1151 11.6363 12.1372 11.5984 12.1511 11.5573C12.165 11.5162 12.1704 11.4727 12.1669 11.4294C12.1635 11.3862 12.1513 11.3441 12.1311 11.3057L11.0017 8.87006C11.5801 8.6089 12.1241 8.27465 12.6248 7.87631L14.4948 9.74631C14.5283 9.78111 14.5691 9.80789 14.6144 9.82467C14.6596 9.84145 14.708 9.84777 14.7561 9.84318C14.7666 9.84224 14.777 9.84078 14.7873 9.83881C14.8448 9.82754 14.8981 9.8007 14.9414 9.76122C14.9847 9.72173 15.0163 9.67112 15.0328 9.6149C15.0494 9.55868 15.0501 9.49901 15.035 9.44239C15.0199 9.38577 14.9896 9.33437 14.9473 9.29381L13.1098 7.45631C13.7962 6.81571 14.3861 6.05153 14.8448 5.19068C14.8697 5.14437 14.8828 5.09264 14.883 5.04006V5.02443C14.8835 4.98162 14.8755 4.93913 14.8594 4.89947C14.8433 4.8598 14.8193 4.82378 14.789 4.79354C14.7587 4.76329 14.7227 4.73943 14.683 4.72338C14.6433 4.70732 14.6008 4.69939 14.558 4.70006Z" fill="#3D4C6A"/>
</svg>
