<svg  viewBox="0 0 24 24" fill="none" xmlns="http://www.w3.org/2000/svg">
<path d="M1.07957 0.0400391C0.766758 0.0400391 0.55957 0.247227 0.55957 0.560039V2.12004C0.55957 2.27645 0.618476 2.37394 0.72207 2.47754L9.04207 11.3175C9.14566 11.4211 9.29598 11.48 9.39957 11.48H14.5996C14.756 11.48 14.8535 11.4211 14.9571 11.3175L23.2771 2.47754C23.3807 2.37394 23.4396 2.27645 23.4396 2.12004V0.560039C23.4396 0.247227 23.2324 0.0400391 22.9196 0.0400391H1.07957ZM8.87957 12.52V20.32C8.87957 20.5272 8.98316 20.6877 9.13957 20.7913L14.3396 23.9113C14.3924 23.9641 14.496 23.96 14.5996 23.96C14.7032 23.96 14.756 23.9641 14.8596 23.9113C15.016 23.8077 15.1196 23.6472 15.1196 23.44V12.52H8.87957Z" fill="currentColor"/>
</svg>
