<svg  viewBox="0 0 20 22" fill="none" xmlns="http://www.w3.org/2000/svg">
<path d="M0.677382 0.879883C0.467694 0.919414 0.316444 1.10504 0.319882 1.31988V2.63988C0.3216 2.75332 0.364569 2.8616 0.443632 2.94238L7.35988 10.2849V18.0399C7.36332 18.1929 7.44754 18.3338 7.57988 18.4111L11.9799 21.0511C12.1139 21.1285 12.2807 21.1302 12.4164 21.0529C12.5505 20.9772 12.6364 20.8346 12.6399 20.6799V10.2849L19.4874 3.01113C19.4925 3.00598 19.496 3.00254 19.5011 2.99738L19.5561 2.94238C19.5768 2.92176 19.5957 2.8977 19.6111 2.87363C19.6214 2.86504 19.63 2.85645 19.6386 2.84613C19.6644 2.78941 19.6782 2.72926 19.6799 2.66738C19.6799 2.65879 19.6799 2.64848 19.6799 2.63988C19.6816 2.61754 19.6816 2.59348 19.6799 2.57113V1.31988C19.6799 1.07754 19.4822 0.879883 19.2399 0.879883H0.759882C0.746132 0.879883 0.732382 0.879883 0.718632 0.879883C0.704882 0.879883 0.691132 0.879883 0.677382 0.879883ZM1.19988 1.75988H18.7999V2.47488L12.0074 9.67988H7.99238L1.19988 2.47488V1.75988ZM8.23988 10.5599H11.7599V19.9099L8.23988 17.8061V10.5599Z" fill="currentColor"/>
</svg>
