<svg viewBox="0 0 20 14" fill="none" xmlns="http://www.w3.org/2000/svg">
<path d="M2.3999 0.200012C1.2999 0.200012 0.399902 1.10001 0.399902 2.20001V11.4C0.399902 12.5 1.2999 13.4 2.3999 13.4H17.5999C18.6999 13.4 19.5999 12.5 19.5999 11.4V2.20001C19.5999 1.10001 18.6999 0.200012 17.5999 0.200012H2.3999ZM2.3999 1.00001H6.3999V2.47501C6.53896 2.54064 6.67334 2.6172 6.7999 2.70626C6.92647 2.6172 7.06084 2.54064 7.1999 2.47501V1.00001H17.5999C18.2671 1.00001 18.7999 1.53282 18.7999 2.20001V6.20001H10.928C10.7843 6.50157 10.5843 6.76876 10.3483 7.00001H18.7999V11.4C18.7999 12.0672 18.2671 12.6 17.5999 12.6H7.1999V8.71251L6.7999 8.31876L6.3999 8.71251V12.6H2.3999C1.73271 12.6 1.1999 12.0672 1.1999 11.4V7.00001H3.25303C3.01553 6.76876 2.81553 6.50157 2.67178 6.20001H1.1999V2.20001C1.1999 1.53282 1.73271 1.00001 2.3999 1.00001ZM5.1999 3.00001C5.13115 3.00001 5.0624 3.00314 4.99521 3.01095C4.92959 3.0172 4.8624 3.02814 4.79834 3.04064C4.01709 3.20001 3.3999 3.8172 3.24053 4.59845C3.21396 4.72814 3.1999 4.86251 3.1999 5.00001C3.1999 5.13751 3.21396 5.27189 3.24053 5.40157C3.3999 6.18282 4.01709 6.80001 4.79834 6.95939C4.92803 6.98595 5.0624 7.00001 5.1999 7.00001H5.85772L4.11865 8.71408L4.68115 9.28595L6.7999 7.19532L8.91865 9.28595L9.48115 8.71408L7.74209 7.00001H8.3999C8.5374 7.00001 8.67178 6.98595 8.80147 6.95939C9.58272 6.80001 10.1999 6.18126 10.3593 5.40157C10.3858 5.27189 10.3999 5.13751 10.3999 5.00001C10.3999 4.86251 10.3858 4.72814 10.3593 4.59845C10.1999 3.8172 9.58115 3.20001 8.80147 3.04064C8.67178 3.01407 8.5374 3.00001 8.3999 3.00001C8.32178 3.00001 8.24678 3.0047 8.17022 3.01407C8.15303 3.01564 8.13584 3.02032 8.11709 3.02345C8.06709 3.0297 8.01865 3.03907 7.97021 3.05001C7.86397 3.07345 7.7624 3.1047 7.6624 3.14532C7.63115 3.15782 7.5999 3.17345 7.56865 3.18751C7.49053 3.22501 7.41396 3.26564 7.34209 3.31251C7.29521 3.34064 7.25146 3.37189 7.20772 3.4047C7.15928 3.4422 7.1124 3.48126 7.06709 3.52345C7.0249 3.55939 6.98428 3.59689 6.94678 3.63751C6.89521 3.6922 6.84521 3.75157 6.7999 3.81251C6.75459 3.75157 6.70459 3.6922 6.65303 3.63751C6.61553 3.59689 6.5749 3.55939 6.53271 3.52345C6.4874 3.48126 6.44053 3.4422 6.39209 3.4047C6.34834 3.37189 6.30459 3.34064 6.25771 3.31251C6.18584 3.26564 6.10928 3.22501 6.03115 3.18751C5.9999 3.17345 5.96865 3.15782 5.9374 3.14532C5.8374 3.1047 5.73584 3.07345 5.62959 3.05001C5.58115 3.03907 5.53271 3.0297 5.48272 3.02345C5.46396 3.02032 5.44678 3.01564 5.42959 3.01407C5.35303 3.0047 5.27803 3.00001 5.1999 3.00001ZM5.1999 3.80001C5.28271 3.80001 5.36396 3.80782 5.44209 3.82501C5.44209 3.82501 5.44209 3.82345 5.44365 3.82501C5.98897 3.93751 6.3999 4.42189 6.3999 5.00001V6.20001H5.1999C5.11709 6.20001 5.03584 6.1922 4.95772 6.17501C4.49053 6.0797 4.12021 5.71095 4.0249 5.24376C4.02334 5.2422 4.0249 5.2422 4.0249 5.2422C4.00771 5.16407 3.9999 5.08282 3.9999 5.00001C3.9999 4.9172 4.00771 4.83595 4.0249 4.75782C4.12021 4.29064 4.48897 3.92032 4.95615 3.82501C5.03584 3.80782 5.11709 3.80001 5.1999 3.80001ZM8.3999 3.80001C8.48271 3.80001 8.56396 3.80782 8.64209 3.82501C8.64209 3.82501 8.64209 3.82345 8.64365 3.82501C9.10928 3.92032 9.47959 4.29064 9.5749 4.75626C9.57646 4.75782 9.5749 4.75782 9.5749 4.75782C9.59209 4.83595 9.5999 4.9172 9.5999 5.00001C9.5999 5.08282 9.59209 5.16407 9.5749 5.2422C9.5749 5.2422 9.57646 5.2422 9.5749 5.24376C9.4624 5.78907 8.97803 6.20001 8.3999 6.20001H7.1999V5.00001C7.1999 4.9172 7.20772 4.83595 7.2249 4.75626C7.32021 4.29064 7.69053 3.92032 8.15615 3.82501C8.23584 3.80782 8.31709 3.80001 8.3999 3.80001ZM12.7999 10.2C12.5796 10.2 12.3999 10.3797 12.3999 10.6C12.3999 10.8203 12.5796 11 12.7999 11C13.0202 11 13.1999 10.8203 13.1999 10.6C13.1999 10.3797 13.0202 10.2 12.7999 10.2ZM13.9999 10.2C13.7796 10.2 13.5999 10.3797 13.5999 10.6C13.5999 10.8203 13.7796 11 13.9999 11C14.2202 11 14.3999 10.8203 14.3999 10.6C14.3999 10.3797 14.2202 10.2 13.9999 10.2ZM15.1999 10.2C14.9796 10.2 14.7999 10.3797 14.7999 10.6C14.7999 10.8203 14.9796 11 15.1999 11C15.4202 11 15.5999 10.8203 15.5999 10.6C15.5999 10.3797 15.4202 10.2 15.1999 10.2ZM16.3999 10.2C16.1796 10.2 15.9999 10.3797 15.9999 10.6C15.9999 10.8203 16.1796 11 16.3999 11C16.6202 11 16.7999 10.8203 16.7999 10.6C16.7999 10.3797 16.6202 10.2 16.3999 10.2Z" fill="currentColor"/>
</svg>
