<svg viewBox="0 0 18 18" fill="none" xmlns="http://www.w3.org/2000/svg">
<path fill-rule="evenodd" clip-rule="evenodd" d="M17.64 9.20468C17.64 8.5665 17.5827 7.95286 17.4764 7.36377H9V10.8451H13.8436C13.635 11.9701 13.0009 12.9233 12.0477 13.5615V15.8197H14.9564C16.6582 14.2529 17.64 11.9456 17.64 9.20468Z" fill="#4285F4"/>
<path fill-rule="evenodd" clip-rule="evenodd" d="M9.00074 18C11.4307 18 13.468 17.1941 14.9571 15.8195L12.0485 13.5613C11.2426 14.1013 10.2116 14.4204 9.00074 14.4204C6.65664 14.4204 4.67255 12.8372 3.96483 10.71H0.958008V13.0418C2.43892 15.9831 5.48255 18 9.00074 18Z" fill="#34A853"/>
<path fill-rule="evenodd" clip-rule="evenodd" d="M3.96409 10.7098C3.78409 10.1698 3.68182 9.59301 3.68182 8.99983C3.68182 8.40664 3.78409 7.82983 3.96409 7.28983V4.95801H0.957273C0.347727 6.17301 0 7.54755 0 8.99983C0 10.4521 0.347727 11.8266 0.957273 13.0416L3.96409 10.7098Z" fill="#FBBC05"/>
<path fill-rule="evenodd" clip-rule="evenodd" d="M9.00074 3.57955C10.3221 3.57955 11.5085 4.03364 12.4412 4.92545L15.0226 2.34409C13.4639 0.891818 11.4266 0 9.00074 0C5.48255 0 2.43892 2.01682 0.958008 4.95818L3.96483 7.29C4.67255 5.16273 6.65664 3.57955 9.00074 3.57955Z" fill="#EA4335"/>
</svg>
