<svg  viewBox="0 0 20 20" fill="none" xmlns="http://www.w3.org/2000/svg">
<path d="M1.2002 2.7C1.2002 1.87157 1.87177 1.2 2.7002 1.2H7.18019C8.00862 1.2 8.68019 1.87157 8.68019 2.7V7.18C8.68019 8.00842 8.00862 8.68 7.18019 8.68H2.7002C1.87177 8.68 1.2002 8.00842 1.2002 7.18V2.7ZM11.3202 2.7C11.3202 1.87157 11.9918 1.2 12.8202 1.2H17.3002C18.1286 1.2 18.8002 1.87157 18.8002 2.7V7.18C18.8002 8.00842 18.1286 8.68 17.3002 8.68H12.8202C11.9918 8.68 11.3202 8.00842 11.3202 7.18V2.7ZM1.2002 12.82C1.2002 11.9916 1.87177 11.32 2.7002 11.32H7.18019C8.00862 11.32 8.68019 11.9916 8.68019 12.82V17.3C8.68019 18.1284 8.00862 18.8 7.18019 18.8H2.7002C1.87177 18.8 1.2002 18.1284 1.2002 17.3V12.82ZM11.3202 12.82C11.3202 11.9916 11.9918 11.32 12.8202 11.32H17.3002C18.1286 11.32 18.8002 11.9916 18.8002 12.82V17.3C18.8002 18.1284 18.1286 18.8 17.3002 18.8H12.8202C11.9918 18.8 11.3202 18.1284 11.3202 17.3V12.82Z" stroke="currentColor" stroke-miterlimit="10" stroke-linejoin="round"/>
</svg>
