<svg viewBox="0 0 20 20" fill="none" xmlns="http://www.w3.org/2000/svg">
<path d="M3.1623 0.387503C3.14512 0.390629 3.12793 0.395316 3.1123 0.400003C2.92637 0.442191 2.79512 0.609379 2.7998 0.800003V4.8H6.7998C6.94355 4.80157 7.07793 4.72657 7.15137 4.60157C7.22324 4.47657 7.22324 4.32344 7.15137 4.19844C7.07793 4.07344 6.94355 3.99844 6.7998 4H4.1373C5.64199 2.52188 7.70762 1.6 9.9998 1.6C14.6654 1.6 18.3998 5.33438 18.3998 10C18.3998 14.6656 14.6654 18.4 9.9998 18.4C5.33418 18.4 1.5998 14.6656 1.5998 10C1.5998 8.62657 1.93887 7.28282 2.5123 6.1375L1.7998 5.775C1.17324 7.02969 0.799805 8.49375 0.799805 10C0.799805 15.0938 4.90605 19.2 9.9998 19.2C15.0936 19.2 19.1998 15.0938 19.1998 10C19.1998 4.90625 15.0936 0.800003 9.9998 0.800003C7.51074 0.800003 5.24668 1.79844 3.5998 3.4V0.800003C3.60449 0.684379 3.55762 0.573441 3.4748 0.495316C3.39043 0.415629 3.27637 0.376566 3.1623 0.387503ZM9.5998 3.6V9.3125C9.36074 9.45157 9.19981 9.70469 9.19981 10C9.19981 10.0688 9.20762 10.1359 9.2248 10.2L6.5123 12.9125L7.0873 13.4875L9.7998 10.775C9.86387 10.7922 9.93106 10.8 9.9998 10.8C10.442 10.8 10.7998 10.4422 10.7998 10C10.7998 9.70469 10.6389 9.45157 10.3998 9.3125V3.6H9.5998Z" fill="currentColor"/>
</svg>
