<svg viewBox="0 0 20 19" fill="none" xmlns="http://www.w3.org/2000/svg">
<path d="M9.99958 0.42041C9.91258 0.42041 9.82592 0.448004 9.75192 0.504004L0.551924 7.68447C0.379924 7.82047 0.347955 8.07175 0.483955 8.24775C0.619955 8.41975 0.871236 8.45172 1.04724 8.31572L1.59958 7.88447V18.4001C1.59958 18.6201 1.77958 18.8001 1.99958 18.8001H7.59958V11.6001H12.3996V18.8001H17.9996C18.2196 18.8001 18.3996 18.6201 18.3996 18.4001V7.88447L18.9519 8.31572C19.0279 8.37172 19.1116 8.4001 19.1996 8.4001C19.3196 8.4001 19.4352 8.34775 19.5152 8.24775C19.6512 8.07175 19.6192 7.82047 19.4472 7.68447L10.2472 0.504004C10.1732 0.448004 10.0866 0.42041 9.99958 0.42041ZM13.9996 2.0001V2.42041L16.3996 4.29228V2.0001H13.9996Z" fill="currentColor"/>
</svg>
