<svg viewBox="0 0 4 10" fill="none" xmlns="http://www.w3.org/2000/svg">
<path d="M2.27984 0.240234C1.99341 0.240234 1.71871 0.35402 1.51617 0.556559C1.31363 0.759098 1.19984 1.0338 1.19984 1.32023C1.19984 1.60667 1.31363 1.88137 1.51617 2.08391C1.71871 2.28645 1.99341 2.40023 2.27984 2.40023C2.56628 2.40023 2.84098 2.28645 3.04352 2.08391C3.24606 1.88137 3.35984 1.60667 3.35984 1.32023C3.35984 1.0338 3.24606 0.759098 3.04352 0.556559C2.84098 0.35402 2.56628 0.240234 2.27984 0.240234ZM0.839844 3.84023V4.56023H1.19984H1.55984V9.24023H1.19984H0.839844V9.96023H1.19984H1.55984H2.99984H3.35984H3.71984V9.24023H3.35984H2.99984V3.84023H2.63984H1.19984H0.839844Z" fill="currentColor"/>
</svg>
