<svg width="14" height="14" viewBox="0 0 14 14" fill="none" xmlns="http://www.w3.org/2000/svg">
<path d="M9.74437 0.875H4.25548C2.39149 0.875 0.875 2.39156 0.875 4.25556V9.74444C0.875 11.6085 2.39149 13.125 4.25548 13.125H9.74437C11.6085 13.125 13.125 11.6084 13.125 9.74444V4.25556C13.1251 2.39156 11.6085 0.875 9.74437 0.875ZM12.0382 9.74444C12.0382 11.0092 11.0092 12.0381 9.74444 12.0381H4.25548C2.99079 12.0382 1.96188 11.0092 1.96188 9.74444V4.25556C1.96188 2.99086 2.99079 1.96188 4.25548 1.96188H9.74437C11.0091 1.96188 12.0381 2.99086 12.0381 4.25556L12.0382 9.74444Z" fill="currentColor"/>
<path d="M6.99999 3.84367C5.25947 3.84367 3.84348 5.25965 3.84348 7.00018C3.84348 8.74064 5.25947 10.1566 6.99999 10.1566C8.74052 10.1566 10.1565 8.74064 10.1565 7.00018C10.1565 5.25965 8.74052 3.84367 6.99999 3.84367ZM6.99999 9.0696C5.85884 9.0696 4.93036 8.14126 4.93036 7.00011C4.93036 5.85888 5.85877 4.93047 6.99999 4.93047C8.14122 4.93047 9.06963 5.85888 9.06963 7.00011C9.06963 8.14126 8.14115 9.0696 6.99999 9.0696Z" fill="currentColor"/>
<path d="M10.2889 2.92215C10.0795 2.92215 9.87376 3.00693 9.72587 3.15547C9.57726 3.30328 9.49183 3.50906 9.49183 3.71919C9.49183 3.92867 9.57733 4.13438 9.72587 4.28292C9.87369 4.43074 10.0795 4.51624 10.2889 4.51624C10.499 4.51624 10.7041 4.43074 10.8526 4.28292C11.0011 4.13438 11.0859 3.9286 11.0859 3.71919C11.0859 3.50906 11.0011 3.30328 10.8526 3.15547C10.7048 3.00693 10.499 2.92215 10.2889 2.92215Z" fill="currentColor"/>
</svg>
