<svg width="69" height="33" viewBox="0 0 69 33" fill="none" xmlns="http://www.w3.org/2000/svg">
<g clip-path="url(#clip0)">
<path d="M54.1964 4.49658L48.9487 6.6501V9.65481L52.5058 8.19487C53.5245 7.77679 54.1964 6.73252 54.1964 5.56793V4.49658Z" fill="#304FFE"/>
<path d="M49.1128 25.5068H53.2974C53.3943 25.5068 53.4727 25.4231 53.4727 25.3197V10.316C53.4727 10.2125 53.3943 10.1289 53.2974 10.1289H49.1128C49.0159 10.1289 48.9375 10.2125 48.9375 10.316V25.3197C48.9369 25.4225 49.0159 25.5068 49.1128 25.5068Z" fill="#304FFE"/>
<path d="M43.4628 19.3374C43.4628 18.9428 43.4639 16.3514 43.4571 14.113H46.6597C46.7566 14.113 46.835 14.0294 46.835 13.926V10.3161C46.835 10.2126 46.7566 10.129 46.6597 10.129H43.4633C43.4633 10.129 43.4639 7.70841 43.4628 7.27891C43.4622 7.17605 43.3839 7.09424 43.2875 7.09424H39.0347C38.9377 7.09424 38.8588 7.17605 38.8594 7.28012C38.8622 8.43448 38.8594 14.7892 38.8594 19.8999C38.8594 25.4684 43.6398 25.5051 45.327 25.5057H46.7093C46.8062 25.5057 46.8846 25.422 46.8846 25.3186V21.974C46.8846 21.8717 46.8079 21.7893 46.7121 21.7875C45.2148 21.7599 43.4628 21.3484 43.4628 19.3374Z" fill="#304FFE"/>
<path d="M3.506 23.4574C3.506 24.4415 3.00766 25.8744 0.233573 25.9021C0.137176 25.9033 0.0571289 25.9851 0.0571289 26.0879V29.4313C0.0571289 29.5348 0.135486 29.6184 0.232446 29.6184H1.6147C3.30193 29.6172 8.0823 29.5522 8.0823 23.9844C8.0823 18.8376 8.07948 11.5619 8.0823 10.3143C8.0823 10.2108 8.00394 10.1284 7.90698 10.1284H3.68358C3.58718 10.1284 3.50826 10.2114 3.50826 10.3143C3.50431 11.8579 3.506 22.522 3.506 23.4574Z" fill="#304FFE"/>
<path d="M18.4707 19.9023C18.4769 21.186 17.7525 21.9187 16.4869 21.9187C15.2213 21.9187 14.5071 21.1854 14.5071 19.8993C14.5071 18.9783 14.5127 11.5836 14.5071 10.3137C14.5065 10.2108 14.4282 10.1284 14.3318 10.1284H10.1472C10.0503 10.1284 9.97136 10.2108 9.97193 10.3149C9.97531 11.2341 9.97193 15.9321 9.97193 20.41C9.97193 26.0561 14.8876 26.0759 16.4892 26.0759C18.0907 26.0759 23.0064 26.0759 23.0064 20.41C23.0064 15.9321 23.0064 10.3161 23.0064 10.3161C23.0064 10.2126 22.928 10.129 22.8311 10.129H18.6465C18.5496 10.129 18.4712 10.2126 18.4712 10.3161V19.9023H18.4707Z" fill="#304FFE"/>
<path d="M60.4455 15.7352C60.4393 14.4515 61.1637 13.7188 62.4292 13.7188C63.6948 13.7188 64.409 14.4521 64.409 15.7382C64.409 16.6591 64.4034 24.0539 64.409 25.3237C64.4096 25.4266 64.488 25.509 64.5844 25.509H68.7689C68.8659 25.509 68.9448 25.4266 68.9442 25.3225C68.9408 24.4034 68.9442 19.7053 68.9442 15.2275C68.9442 9.58137 64.0285 9.56152 62.427 9.56152C60.826 9.56152 55.9097 9.56152 55.9097 15.2275C55.9097 19.7053 55.9097 25.3213 55.9097 25.3213C55.9097 25.4248 55.988 25.5084 56.085 25.5084H60.2696C60.3665 25.5084 60.4449 25.4248 60.4449 25.3213V15.7352H60.4455Z" fill="#304FFE"/>
<path d="M34.0122 16.5719C33.9006 16.5448 31.2409 16.0365 31.1169 16.0119C29.9235 15.7773 29.1456 15.3736 29.1456 14.5573C29.1456 14.0147 29.5345 13.1148 31.1067 13.1148C32.816 13.1148 33.0285 14.2139 33.0443 14.7408C33.0477 14.8413 33.1249 14.9195 33.219 14.9195H36.8793C36.9774 14.9195 37.058 14.834 37.0546 14.7294C36.9988 12.9061 36.1025 9.56152 30.7646 9.56152C26.7136 9.56152 24.6882 11.7187 24.6882 14.7823C24.6882 17.1127 26.1229 18.3543 28.0378 18.8469C29.3834 19.1928 33.0279 19.2313 33.0279 20.9969C33.0279 21.537 32.6418 22.4369 31.069 22.4369C29.3062 22.4369 28.9206 21.2724 28.8665 20.7653C28.8564 20.6714 28.7819 20.6028 28.6934 20.6028H24.7491C24.6493 20.6028 24.5687 20.6901 24.5732 20.7965C24.6318 22.2763 25.6166 26.1238 30.9884 26.1238C35.2434 26.1238 37.3613 24.0539 37.3613 20.9054C37.3618 18.5744 35.9339 17.0441 34.0122 16.5719Z" fill="#304FFE"/>
<path d="M55.7309 0.0429688L48.9487 2.786V5.79071L54.0279 3.73644C55.0527 3.32198 55.7303 2.27409 55.7303 1.10469V0.0429688H55.7309Z" fill="#304FFE"/>
<path d="M20.3552 31.3087H20.6754V32.8017H19.8225V32.1917H18.5429V32.8017H17.6899V31.3087H18.0056C18.1251 31.0783 18.1843 30.7565 18.1843 30.3438V29.0054H20.3552V31.3087ZM18.8879 31.3087H19.5023V29.8427H19.0372V30.3522C19.0372 30.7474 18.9876 31.0656 18.8879 31.3087Z" fill="#304FFE"/>
<path d="M23.7863 31.7839C23.4807 32.1039 23.1059 32.264 22.6622 32.264C22.2186 32.264 21.8442 32.1039 21.5381 31.7839C21.232 31.4639 21.0798 31.0687 21.0798 30.5983C21.0798 30.1279 21.2326 29.7327 21.5381 29.4126C21.8437 29.0926 22.2186 28.9326 22.6622 28.9326C23.1059 28.9326 23.4802 29.0926 23.7863 29.4126C24.0924 29.7327 24.2452 30.1279 24.2452 30.5983C24.2452 31.0687 24.0924 31.4639 23.7863 31.7839ZM22.1402 31.1517C22.2783 31.2991 22.4519 31.3725 22.6628 31.3725C22.8736 31.3725 23.0472 31.2991 23.1853 31.1517C23.3235 31.0043 23.3922 30.8203 23.3922 30.5989C23.3922 30.3775 23.3229 30.1928 23.1853 30.0461C23.0472 29.8987 22.8736 29.8253 22.6628 29.8253C22.4519 29.8253 22.2783 29.8987 22.1402 30.0461C22.0021 30.1934 21.9333 30.3775 21.9333 30.5989C21.9333 30.8203 22.0021 31.0043 22.1402 31.1517Z" fill="#304FFE"/>
<path d="M26.3183 32.2645C25.869 32.2645 25.4969 32.1051 25.201 31.7868C24.905 31.468 24.7573 31.0722 24.7573 30.5988C24.7573 30.1254 24.905 29.7296 25.201 29.4107C25.4969 29.0919 25.869 28.9331 26.3183 28.9331C26.5939 28.9331 26.8487 29.0029 27.0816 29.1425C27.3149 29.2821 27.497 29.4703 27.6278 29.7068L26.886 30.1621C26.8375 30.0592 26.7625 29.9768 26.6599 29.916C26.5573 29.8553 26.4434 29.8252 26.3183 29.8252C26.108 29.8252 25.9372 29.898 25.8064 30.0436C25.6756 30.1891 25.6102 30.3744 25.6102 30.5988C25.6102 30.8232 25.6756 31.0085 25.8064 31.1541C25.9372 31.2997 26.1074 31.3724 26.3183 31.3724C26.4462 31.3724 26.5607 31.3424 26.6616 31.2816C26.7625 31.2208 26.8369 31.1378 26.8854 31.0313L27.6273 31.4867C27.4965 31.7267 27.3144 31.9162 27.081 32.0558C26.8487 32.1948 26.5939 32.2645 26.3183 32.2645Z" fill="#304FFE"/>
<path d="M30.272 29.0054V29.8884H29.5679V32.1917H28.715V29.8884H28.0115V29.0054H30.272Z" fill="#304FFE"/>
<path d="M32.4901 29.0054H33.3859L32.524 31.1625C32.3819 31.5174 32.1948 31.7815 31.9631 31.9547C31.7314 32.1274 31.4292 32.2068 31.0566 32.1911V31.3448C31.3153 31.3658 31.5115 31.3129 31.6457 31.1853L30.6558 29.0054H31.5516L32.0673 30.2163L32.4901 29.0054Z" fill="#304FFE"/>
<path d="M36.2434 29.0054V32.1917H35.3904V29.8884H34.7506V32.1917H33.8977V29.0054H36.2434Z" fill="#304FFE"/>
<path d="M38.5469 29.0054H39.3998V32.1917H38.5469V31.0175H37.8214V32.1917H36.9685V29.0054H37.8214V30.1339H38.5469V29.0054Z" fill="#304FFE"/>
<path d="M41.8526 32.1917L41.75 31.7821H40.8881L40.7861 32.1917H39.8689L40.8199 29.0054H41.8183L42.7698 32.1917H41.8526ZM41.0719 31.0536H41.5668L41.3194 30.0749L41.0719 31.0536Z" fill="#304FFE"/>
<path d="M46.8645 31.3087H47.1847V32.8017H46.3318V32.1917H45.0521V32.8017H44.1992V31.3087H44.5149C44.6344 31.0783 44.6936 30.7565 44.6936 30.3438V29.0054H46.8645V31.3087ZM45.3971 31.3087H46.0116V29.8427H45.5465V30.3522C45.5465 30.7474 45.4969 31.0656 45.3971 31.3087Z" fill="#304FFE"/>
<path d="M50.2956 31.7839C49.99 32.1039 49.6151 32.264 49.1715 32.264C48.7278 32.264 48.3535 32.1039 48.0474 31.7839C47.7413 31.4639 47.5891 31.0687 47.5891 30.5983C47.5891 30.1279 47.7419 29.7327 48.0474 29.4126C48.353 29.0926 48.7278 28.9326 49.1715 28.9326C49.6151 28.9326 49.9895 29.0926 50.2956 29.4126C50.6017 29.7327 50.7544 30.1279 50.7544 30.5983C50.7544 31.0687 50.6017 31.4639 50.2956 31.7839ZM48.6495 31.1517C48.7876 31.2991 48.9612 31.3725 49.1721 31.3725C49.3829 31.3725 49.5566 31.2991 49.6947 31.1517C49.8328 31.0043 49.9015 30.8203 49.9015 30.5989C49.9015 30.3775 49.8322 30.1928 49.6947 30.0461C49.5566 29.8987 49.3829 29.8253 49.1721 29.8253C48.9612 29.8253 48.7876 29.8987 48.6495 30.0461C48.5114 30.1934 48.4426 30.3775 48.4426 30.5989C48.4426 30.8203 48.5114 31.0043 48.6495 31.1517Z" fill="#304FFE"/>
<path d="M52.8273 32.2645C52.378 32.2645 52.006 32.1051 51.71 31.7868C51.4141 31.468 51.2664 31.0722 51.2664 30.5988C51.2664 30.1254 51.4141 29.7296 51.71 29.4107C52.006 29.0919 52.378 28.9331 52.8273 28.9331C53.103 28.9331 53.3578 29.0029 53.5906 29.1425C53.824 29.2821 54.0061 29.4703 54.1368 29.7068L53.395 30.1621C53.3465 30.0592 53.2715 29.9768 53.1689 29.916C53.0663 29.8553 52.9525 29.8252 52.8273 29.8252C52.617 29.8252 52.4462 29.898 52.3155 30.0436C52.1847 30.1891 52.1193 30.3744 52.1193 30.5988C52.1193 30.8232 52.1847 31.0085 52.3155 31.1541C52.4462 31.2997 52.6165 31.3724 52.8273 31.3724C52.9553 31.3724 53.0697 31.3424 53.1706 31.2816C53.2715 31.2208 53.3459 31.1378 53.3944 31.0313L54.1363 31.4867C54.0055 31.7267 53.8234 31.9162 53.59 32.0558C53.3578 32.1948 53.103 32.2645 52.8273 32.2645Z" fill="#304FFE"/>
<path d="M56.7815 29.0054V29.8884H56.0775V32.1917H55.2246V29.8884H54.5205V29.0054H56.7815Z" fill="#304FFE"/>
<path d="M58.8502 32.1917L58.7476 31.7821H57.8857L57.7836 32.1917H56.8665L57.8175 29.0054H58.8158L59.7674 32.1917H58.8502ZM58.07 31.0536H58.565L58.3175 30.0749L58.07 31.0536Z" fill="#304FFE"/>
<path d="M62.1556 30.5479C62.4115 30.7025 62.5395 30.9377 62.5395 31.2535C62.5395 31.5447 62.451 31.7739 62.2728 31.9405C62.0953 32.1077 61.8371 32.1907 61.4988 32.1907H60.2361V29.0044H61.4222C61.7576 29.0044 62.0135 29.082 62.19 29.2366C62.3664 29.3912 62.4543 29.6125 62.4543 29.9013C62.4538 30.178 62.3546 30.3933 62.1556 30.5479ZM61.3709 29.7882H61.089V30.2159L61.4177 30.2111C61.54 30.193 61.6014 30.1233 61.6014 30.0017C61.6014 29.932 61.5783 29.879 61.5327 29.8423C61.4876 29.8062 61.4334 29.7882 61.3709 29.7882ZM61.4475 31.4081C61.5157 31.4081 61.5721 31.3871 61.6178 31.3444C61.6634 31.3017 61.686 31.2475 61.686 31.1808C61.686 31.0532 61.6223 30.9792 61.4943 30.9576L61.089 30.9528V31.4081H61.4475Z" fill="#304FFE"/>
<path d="M65.6568 32.1917H64.7103L63.9679 30.8262V32.1917H63.115V29.0054H63.9679V30.28L64.6675 29.0054H65.6146L64.7272 30.5531L65.6568 32.1917Z" fill="#304FFE"/>
<path d="M67.9818 32.1917L67.8792 31.7821H67.0173L66.9152 32.1917H65.998L66.9491 29.0054H67.9474L68.899 32.1917H67.9818ZM67.201 31.0536H67.696L67.4485 30.0749L67.201 31.0536Z" fill="#304FFE"/>
</g>
<defs>
<clipPath id="clip0">
<rect width="69" height="32.8442" fill="white"/>
</clipPath>
</defs>
</svg>
