<svg viewBox="0 0 22 16" fill="none" xmlns="http://www.w3.org/2000/svg">
<path d="M1.23744 0.0799713C1.02775 0.119503 0.876503 0.305128 0.87994 0.519971V2.27997C0.87994 2.52232 1.0776 2.71997 1.31994 2.71997H3.07994C3.32228 2.71997 3.51994 2.52232 3.51994 2.27997V0.519971C3.51994 0.277628 3.32228 0.0799713 3.07994 0.0799713H1.31994C1.30619 0.0799713 1.29244 0.0799713 1.27869 0.0799713C1.26494 0.0799713 1.25119 0.0799713 1.23744 0.0799713ZM1.75994 0.959971H2.63994V1.83997H1.75994V0.959971ZM4.71619 0.959971C4.47385 0.994346 4.30369 1.2195 4.33807 1.46185C4.37244 1.70419 4.5976 1.87435 4.83994 1.83997H20.6799C20.8381 1.84169 20.9859 1.75919 21.0667 1.62169C21.1457 1.48419 21.1457 1.31575 21.0667 1.17825C20.9859 1.04075 20.8381 0.958253 20.6799 0.959971H4.83994C4.82619 0.959971 4.81244 0.959971 4.79869 0.959971C4.78494 0.959971 4.77119 0.959971 4.75744 0.959971C4.74369 0.959971 4.72994 0.959971 4.71619 0.959971ZM1.23744 4.47997C1.02775 4.5195 0.876503 4.70513 0.87994 4.91997V6.67997C0.87994 6.92232 1.0776 7.11997 1.31994 7.11997H3.07994C3.32228 7.11997 3.51994 6.92232 3.51994 6.67997V4.91997C3.51994 4.67763 3.32228 4.47997 3.07994 4.47997H1.31994C1.30619 4.47997 1.29244 4.47997 1.27869 4.47997C1.26494 4.47997 1.25119 4.47997 1.23744 4.47997ZM1.75994 5.35997H2.63994V6.23997H1.75994V5.35997ZM4.71619 5.35997C4.47385 5.39435 4.30369 5.6195 4.33807 5.86185C4.37244 6.10419 4.5976 6.27435 4.83994 6.23997H20.6799C20.8381 6.24169 20.9859 6.15919 21.0667 6.02169C21.1457 5.88419 21.1457 5.71575 21.0667 5.57825C20.9859 5.44075 20.8381 5.35825 20.6799 5.35997H4.83994C4.82619 5.35997 4.81244 5.35997 4.79869 5.35997C4.78494 5.35997 4.77119 5.35997 4.75744 5.35997C4.74369 5.35997 4.72994 5.35997 4.71619 5.35997ZM1.23744 8.87997C1.02775 8.9195 0.876503 9.10513 0.87994 9.31997V11.08C0.87994 11.3223 1.0776 11.52 1.31994 11.52H3.07994C3.32228 11.52 3.51994 11.3223 3.51994 11.08V9.31997C3.51994 9.07763 3.32228 8.87997 3.07994 8.87997H1.31994C1.30619 8.87997 1.29244 8.87997 1.27869 8.87997C1.26494 8.87997 1.25119 8.87997 1.23744 8.87997ZM1.75994 9.75997H2.63994V10.64H1.75994V9.75997ZM4.71619 9.75997C4.47385 9.79435 4.30369 10.0195 4.33807 10.2618C4.37244 10.5042 4.5976 10.6743 4.83994 10.64H20.6799C20.8381 10.6417 20.9859 10.5592 21.0667 10.4217C21.1457 10.2842 21.1457 10.1158 21.0667 9.97825C20.9859 9.84075 20.8381 9.75825 20.6799 9.75997H4.83994C4.82619 9.75997 4.81244 9.75997 4.79869 9.75997C4.78494 9.75997 4.77119 9.75997 4.75744 9.75997C4.74369 9.75997 4.72994 9.75997 4.71619 9.75997ZM1.23744 13.28C1.02775 13.3195 0.876503 13.5051 0.87994 13.72V15.48C0.87994 15.7223 1.0776 15.92 1.31994 15.92H3.07994C3.32228 15.92 3.51994 15.7223 3.51994 15.48V13.72C3.51994 13.4776 3.32228 13.28 3.07994 13.28H1.31994C1.30619 13.28 1.29244 13.28 1.27869 13.28C1.26494 13.28 1.25119 13.28 1.23744 13.28ZM1.75994 14.16H2.63994V15.04H1.75994V14.16ZM4.71619 14.16C4.47385 14.1943 4.30369 14.4195 4.33807 14.6618C4.37244 14.9042 4.5976 15.0743 4.83994 15.04H20.6799C20.8381 15.0417 20.9859 14.9592 21.0667 14.8217C21.1457 14.6842 21.1457 14.5158 21.0667 14.3783C20.9859 14.2408 20.8381 14.1583 20.6799 14.16H4.83994C4.82619 14.16 4.81244 14.16 4.79869 14.16C4.78494 14.16 4.77119 14.16 4.75744 14.16C4.74369 14.16 4.72994 14.16 4.71619 14.16Z" fill="currentColor"/>
</svg>
