<svg viewBox="0 0 14 16" fill="none" xmlns="http://www.w3.org/2000/svg">
<path
    fill-rule="evenodd"
    clip-rule="evenodd"
    d="M4.27503 1.62857C3.5461 2.26659 3.04762 3.23069 3.04762 4.5483V6.09567H10.9524V4.5483C10.9524 3.23067 10.4539 2.26657 9.72497 1.62856C8.98991 0.985184 8.00041 0.656455 7 0.656458C5.9996 0.65646 5.01009 0.985193 4.27503 1.62857ZM11.619 6.09567V4.5483C11.619 3.05254 11.0461 1.9066 10.1679 1.13792C9.2958 0.37461 8.14245 -2.68304e-06 7 0C5.85755 2.68307e-06 4.7042 0.37462 3.83212 1.13793C2.9539 1.90661 2.38095 3.05255 2.38095 4.5483V6.09567H1.28571C0.575633 6.09567 0 6.66249 0 7.3617V14.3952C0 15.0944 0.575634 15.6612 1.28571 15.6612H12.7143C13.4244 15.6612 14 15.0944 14 14.3952V7.36169C14 6.66249 13.4244 6.09567 12.7143 6.09567H11.619ZM1.28571 6.75213C0.943824 6.75213 0.666667 7.02504 0.666667 7.3617V14.3952C0.666667 14.7318 0.943824 15.0047 1.28571 15.0047H12.7143C13.0562 15.0047 13.3333 14.7318 13.3333 14.3952V7.36169C13.3333 7.02504 13.0562 6.75213 12.7143 6.75213H1.28571Z"
    fill="currentColor"
  />
<path
    d="M3.19045 11.1129C3.19045 11.3718 2.97726 11.5818 2.71426 11.5818C2.45127 11.5818 2.23807 11.3718 2.23807 11.1129C2.23807 10.8539 2.45127 10.644 2.71426 10.644C2.97726 10.644 3.19045 10.8539 3.19045 11.1129Z"
    fill="currentColor"
  />
<path
    d="M6.0476 11.1129C6.0476 11.3718 5.8344 11.5818 5.5714 11.5818C5.30841 11.5818 5.09521 11.3718 5.09521 11.1129C5.09521 10.8539 5.30841 10.644 5.5714 10.644C5.8344 10.644 6.0476 10.8539 6.0476 11.1129Z"
    fill="currentColor"
  />
<path
    d="M8.90474 11.1129C8.90474 11.3718 8.69154 11.5818 8.42855 11.5818C8.16556 11.5818 7.95236 11.3718 7.95236 11.1129C7.95236 10.8539 8.16556 10.644 8.42855 10.644C8.69154 10.644 8.90474 10.8539 8.90474 11.1129Z"
    fill="currentColor"
  />
<path
    d="M11.7619 11.1129C11.7619 11.3718 11.5487 11.5818 11.2857 11.5818C11.0227 11.5818 10.8095 11.3718 10.8095 11.1129C10.8095 10.8539 11.0227 10.644 11.2857 10.644C11.5487 10.644 11.7619 10.8539 11.7619 11.1129Z"
    fill="currentColor"
  />
</svg>
