<svg viewBox="0 0 18 18" fill="none" xmlns="http://www.w3.org/2000/svg">
<g>
<path
      fill-rule="evenodd"
      clip-rule="evenodd"
      d="M4.56066 5.14645C4.75592 5.34171 4.75592 5.65829 4.56066 5.85355L1.91421 8.5H11.2071C11.4832 8.5 11.7071 8.72386 11.7071 9C11.7071 9.27614 11.4832 9.5 11.2071 9.5H1.91421L4.56066 12.1464C4.75592 12.3417 4.75592 12.6583 4.56066 12.8536C4.3654 13.0488 4.04882 13.0488 3.85355 12.8536L0 9L3.85355 5.14645C4.04882 4.95118 4.3654 4.95118 4.56066 5.14645Z"
      fill="currentColor"
    />
<path
      d="M4.20709 1H16.2071V17H4.20709V15.7071C4.20709 15.4419 4.10174 15.1875 3.9142 15L3.20709 14.2929V17C3.20709 17.5523 3.65481 18 4.20709 18H16.2071C16.7594 18 17.2071 17.5523 17.2071 17V1C17.2071 0.447715 16.7594 0 16.2071 0H4.20709C3.65481 0 3.20709 0.447716 3.20709 1V3.5L3.9142 2.79289C4.10174 2.60536 4.20709 2.351 4.20709 2.08579V1Z"
      fill="currentColor"
    />
</g>
</svg>
