<svg width="95" height="40" viewBox="0 0 95 40" fill="none" xmlns="http://www.w3.org/2000/svg">
<mask id="mask0" mask-type="alpha" maskUnits="userSpaceOnUse" x="0" y="1" width="95" height="38">
<path d="M14.747 24.0205C13.4789 26.0178 14.9138 28.6285 17.2797 28.6285H21.8145C23.4713 28.6285 24.8145 29.9717 24.8145 31.6285V34.444C24.8145 36.1009 23.4713 37.444 21.8145 37.444H3C1.34315 37.444 0 36.1009 0 34.444V31.2839C0 30.7144 0.162105 30.1567 0.467368 29.6759L9.65981 15.1979C10.9279 13.2006 9.49306 10.5899 7.12717 10.5899H3.25477C1.59791 10.5899 0.254769 9.24675 0.254769 7.5899V4.77441C0.254769 3.11756 1.59791 1.77441 3.25477 1.77441H21.4068C23.0637 1.77441 24.4068 3.11756 24.4068 4.77441V7.93448C24.4068 8.50399 24.2447 9.06173 23.9395 9.54252L14.747 24.0205Z" fill="#1CCF59"/>
<path d="M39.7674 38.1574C35.9968 38.1574 32.7867 36.8665 30.1371 34.2847C27.4875 31.6689 26.1627 28.4756 26.1627 24.7049C26.1627 20.9341 27.4875 17.7578 30.1371 15.176C32.7867 12.5602 35.9968 11.2523 39.7674 11.2523C43.5719 11.2523 46.782 12.5602 49.3976 15.176C52.0472 17.7578 53.372 20.9341 53.372 24.7049C53.372 28.4756 52.0472 31.6689 49.3976 34.2847C46.782 36.8665 43.5719 38.1574 39.7674 38.1574ZM39.7674 30.0043C41.262 30.0043 42.4849 29.5118 43.436 28.5266C44.4212 27.5414 44.9137 26.2675 44.9137 24.7049C44.9137 23.1422 44.4212 21.8683 43.436 20.8831C42.4849 19.898 41.262 19.4054 39.7674 19.4054C38.3067 19.4054 37.0838 19.898 36.0987 20.8831C35.1476 21.8683 34.672 23.1422 34.672 24.7049C34.672 26.2675 35.1476 27.5414 36.0987 28.5266C37.0838 29.5118 38.3067 30.0043 39.7674 30.0043Z" fill="#1CCF59"/>
<path d="M69.4738 38.1574C65.7032 38.1574 62.4931 36.8665 59.8435 34.2847C57.1939 31.6689 55.8691 28.4756 55.8691 24.7049C55.8691 20.9341 57.1939 17.7578 59.8435 15.176C62.4931 12.5602 65.7032 11.2523 69.4738 11.2523C73.2783 11.2523 76.4884 12.5602 79.104 15.176C81.7536 17.7578 83.0784 20.9341 83.0784 24.7049C83.0784 28.4756 81.7536 31.6689 79.104 34.2847C76.4884 36.8665 73.2783 38.1574 69.4738 38.1574ZM69.4738 30.0043C70.9684 30.0043 72.1913 29.5118 73.1425 28.5266C74.1276 27.5414 74.6201 26.2675 74.6201 24.7049C74.6201 23.1422 74.1276 21.8683 73.1425 20.8831C72.1913 19.898 70.9684 19.4054 69.4738 19.4054C68.0131 19.4054 66.7902 19.898 65.8051 20.8831C64.854 21.8683 64.3784 23.1422 64.3784 24.7049C64.3784 26.2675 64.854 27.5414 65.8051 28.5266C66.7902 29.5118 68.0131 30.0043 69.4738 30.0043Z" fill="#1CCF59"/>
<path d="M89.7008 38.1574C88.2062 38.1574 86.9323 37.6478 85.8793 36.6287C84.8602 35.5756 84.3507 34.3187 84.3507 32.8579C84.3507 31.3972 84.8772 30.1572 85.9302 29.1381C86.9833 28.085 88.2401 27.5584 89.7008 27.5584C91.1615 27.5584 92.4014 28.085 93.4204 29.1381C94.4735 30.1572 95 31.3972 95 32.8579C95 34.3187 94.4735 35.5756 93.4204 36.6287C92.4014 37.6478 91.1615 38.1574 89.7008 38.1574Z" fill="#1CCF59"/>
</mask>
<g mask="url(#mask0)">
<g filter="url(#filter0_i)">
<path d="M11.8213 28.6285H24.8145V37.444H0V30.412L12.5856 10.5899H0.254769V1.77441H24.4068V8.80642L11.8213 28.6285Z" fill="#20BD56"/>
<path d="M11.8213 28.6285H24.8145V37.444H0V30.412L12.5856 10.5899H0.254769V1.77441H24.4068V8.80642L11.8213 28.6285Z" fill="#20BD56"/>
<path d="M11.8213 28.6285H24.8145V37.444H0V30.412L12.5856 10.5899H0.254769V1.77441H24.4068V8.80642L11.8213 28.6285Z" fill="#20BD56"/>
<path d="M39.7674 38.1574C35.9968 38.1574 32.7867 36.8665 30.1371 34.2847C27.4875 31.6689 26.1627 28.4756 26.1627 24.7049C26.1627 20.9341 27.4875 17.7578 30.1371 15.176C32.7867 12.5602 35.9968 11.2523 39.7674 11.2523C43.5719 11.2523 46.782 12.5602 49.3976 15.176C52.0472 17.7578 53.372 20.9341 53.372 24.7049C53.372 28.4756 52.0472 31.6689 49.3976 34.2847C46.782 36.8665 43.5719 38.1574 39.7674 38.1574ZM39.7674 30.0043C41.262 30.0043 42.4849 29.5118 43.436 28.5266C44.4212 27.5414 44.9137 26.2675 44.9137 24.7049C44.9137 23.1422 44.4212 21.8683 43.436 20.8831C42.4849 19.898 41.262 19.4054 39.7674 19.4054C38.3067 19.4054 37.0838 19.898 36.0987 20.8831C35.1476 21.8683 34.672 23.1422 34.672 24.7049C34.672 26.2675 35.1476 27.5414 36.0987 28.5266C37.0838 29.5118 38.3067 30.0043 39.7674 30.0043Z" fill="#20BD56"/>
<path d="M39.7674 38.1574C35.9968 38.1574 32.7867 36.8665 30.1371 34.2847C27.4875 31.6689 26.1627 28.4756 26.1627 24.7049C26.1627 20.9341 27.4875 17.7578 30.1371 15.176C32.7867 12.5602 35.9968 11.2523 39.7674 11.2523C43.5719 11.2523 46.782 12.5602 49.3976 15.176C52.0472 17.7578 53.372 20.9341 53.372 24.7049C53.372 28.4756 52.0472 31.6689 49.3976 34.2847C46.782 36.8665 43.5719 38.1574 39.7674 38.1574ZM39.7674 30.0043C41.262 30.0043 42.4849 29.5118 43.436 28.5266C44.4212 27.5414 44.9137 26.2675 44.9137 24.7049C44.9137 23.1422 44.4212 21.8683 43.436 20.8831C42.4849 19.898 41.262 19.4054 39.7674 19.4054C38.3067 19.4054 37.0838 19.898 36.0987 20.8831C35.1476 21.8683 34.672 23.1422 34.672 24.7049C34.672 26.2675 35.1476 27.5414 36.0987 28.5266C37.0838 29.5118 38.3067 30.0043 39.7674 30.0043Z" fill="#20BD56"/>
<path d="M39.7674 38.1574C35.9968 38.1574 32.7867 36.8665 30.1371 34.2847C27.4875 31.6689 26.1627 28.4756 26.1627 24.7049C26.1627 20.9341 27.4875 17.7578 30.1371 15.176C32.7867 12.5602 35.9968 11.2523 39.7674 11.2523C43.5719 11.2523 46.782 12.5602 49.3976 15.176C52.0472 17.7578 53.372 20.9341 53.372 24.7049C53.372 28.4756 52.0472 31.6689 49.3976 34.2847C46.782 36.8665 43.5719 38.1574 39.7674 38.1574ZM39.7674 30.0043C41.262 30.0043 42.4849 29.5118 43.436 28.5266C44.4212 27.5414 44.9137 26.2675 44.9137 24.7049C44.9137 23.1422 44.4212 21.8683 43.436 20.8831C42.4849 19.898 41.262 19.4054 39.7674 19.4054C38.3067 19.4054 37.0838 19.898 36.0987 20.8831C35.1476 21.8683 34.672 23.1422 34.672 24.7049C34.672 26.2675 35.1476 27.5414 36.0987 28.5266C37.0838 29.5118 38.3067 30.0043 39.7674 30.0043Z" fill="#20BD56"/>
<path d="M69.4738 38.1574C65.7032 38.1574 62.4931 36.8665 59.8435 34.2847C57.1939 31.6689 55.8691 28.4756 55.8691 24.7049C55.8691 20.9341 57.1939 17.7578 59.8435 15.176C62.4931 12.5602 65.7032 11.2523 69.4738 11.2523C73.2783 11.2523 76.4884 12.5602 79.104 15.176C81.7536 17.7578 83.0784 20.9341 83.0784 24.7049C83.0784 28.4756 81.7536 31.6689 79.104 34.2847C76.4884 36.8665 73.2783 38.1574 69.4738 38.1574ZM69.4738 30.0043C70.9684 30.0043 72.1913 29.5118 73.1425 28.5266C74.1276 27.5414 74.6201 26.2675 74.6201 24.7049C74.6201 23.1422 74.1276 21.8683 73.1425 20.8831C72.1913 19.898 70.9684 19.4054 69.4738 19.4054C68.0131 19.4054 66.7902 19.898 65.8051 20.8831C64.854 21.8683 64.3784 23.1422 64.3784 24.7049C64.3784 26.2675 64.854 27.5414 65.8051 28.5266C66.7902 29.5118 68.0131 30.0043 69.4738 30.0043Z" fill="#20BD56"/>
<path d="M69.4738 38.1574C65.7032 38.1574 62.4931 36.8665 59.8435 34.2847C57.1939 31.6689 55.8691 28.4756 55.8691 24.7049C55.8691 20.9341 57.1939 17.7578 59.8435 15.176C62.4931 12.5602 65.7032 11.2523 69.4738 11.2523C73.2783 11.2523 76.4884 12.5602 79.104 15.176C81.7536 17.7578 83.0784 20.9341 83.0784 24.7049C83.0784 28.4756 81.7536 31.6689 79.104 34.2847C76.4884 36.8665 73.2783 38.1574 69.4738 38.1574ZM69.4738 30.0043C70.9684 30.0043 72.1913 29.5118 73.1425 28.5266C74.1276 27.5414 74.6201 26.2675 74.6201 24.7049C74.6201 23.1422 74.1276 21.8683 73.1425 20.8831C72.1913 19.898 70.9684 19.4054 69.4738 19.4054C68.0131 19.4054 66.7902 19.898 65.8051 20.8831C64.854 21.8683 64.3784 23.1422 64.3784 24.7049C64.3784 26.2675 64.854 27.5414 65.8051 28.5266C66.7902 29.5118 68.0131 30.0043 69.4738 30.0043Z" fill="#20BD56"/>
<path d="M69.4738 38.1574C65.7032 38.1574 62.4931 36.8665 59.8435 34.2847C57.1939 31.6689 55.8691 28.4756 55.8691 24.7049C55.8691 20.9341 57.1939 17.7578 59.8435 15.176C62.4931 12.5602 65.7032 11.2523 69.4738 11.2523C73.2783 11.2523 76.4884 12.5602 79.104 15.176C81.7536 17.7578 83.0784 20.9341 83.0784 24.7049C83.0784 28.4756 81.7536 31.6689 79.104 34.2847C76.4884 36.8665 73.2783 38.1574 69.4738 38.1574ZM69.4738 30.0043C70.9684 30.0043 72.1913 29.5118 73.1425 28.5266C74.1276 27.5414 74.6201 26.2675 74.6201 24.7049C74.6201 23.1422 74.1276 21.8683 73.1425 20.8831C72.1913 19.898 70.9684 19.4054 69.4738 19.4054C68.0131 19.4054 66.7902 19.898 65.8051 20.8831C64.854 21.8683 64.3784 23.1422 64.3784 24.7049C64.3784 26.2675 64.854 27.5414 65.8051 28.5266C66.7902 29.5118 68.0131 30.0043 69.4738 30.0043Z" fill="#20BD56"/>
<path d="M89.7008 38.1574C88.2062 38.1574 86.9323 37.6478 85.8793 36.6287C84.8602 35.5756 84.3507 34.3187 84.3507 32.8579C84.3507 31.3972 84.8772 30.1572 85.9302 29.1381C86.9833 28.085 88.2401 27.5584 89.7008 27.5584C91.1615 27.5584 92.4014 28.085 93.4204 29.1381C94.4735 30.1572 95 31.3972 95 32.8579C95 34.3187 94.4735 35.5756 93.4204 36.6287C92.4014 37.6478 91.1615 38.1574 89.7008 38.1574Z" fill="#20BD56"/>
<path d="M89.7008 38.1574C88.2062 38.1574 86.9323 37.6478 85.8793 36.6287C84.8602 35.5756 84.3507 34.3187 84.3507 32.8579C84.3507 31.3972 84.8772 30.1572 85.9302 29.1381C86.9833 28.085 88.2401 27.5584 89.7008 27.5584C91.1615 27.5584 92.4014 28.085 93.4204 29.1381C94.4735 30.1572 95 31.3972 95 32.8579C95 34.3187 94.4735 35.5756 93.4204 36.6287C92.4014 37.6478 91.1615 38.1574 89.7008 38.1574Z" fill="#20BD56"/>
<path d="M89.7008 38.1574C88.2062 38.1574 86.9323 37.6478 85.8793 36.6287C84.8602 35.5756 84.3507 34.3187 84.3507 32.8579C84.3507 31.3972 84.8772 30.1572 85.9302 29.1381C86.9833 28.085 88.2401 27.5584 89.7008 27.5584C91.1615 27.5584 92.4014 28.085 93.4204 29.1381C94.4735 30.1572 95 31.3972 95 32.8579C95 34.3187 94.4735 35.5756 93.4204 36.6287C92.4014 37.6478 91.1615 38.1574 89.7008 38.1574Z" fill="#20BD56"/>
</g>
<g filter="url(#filter1_d)">
<circle cx="58.5106" cy="-29.4894" r="48.5106" fill="black" fill-opacity="0.1"/>
<circle cx="58.5106" cy="-29.4894" r="48.5106" fill="#20BD56"/>
<circle cx="58.5106" cy="-29.4894" r="48.5106" fill="#20BD56"/>
<circle cx="58.5106" cy="-29.4894" r="48.2606" stroke="url(#paint0_linear)" stroke-width="0.5"/>
</g>
<g filter="url(#filter2_d)">
<circle cx="37" cy="81" r="49" fill="black" fill-opacity="0.1"/>
<circle cx="37" cy="81" r="49" fill="#20BD56"/>
<circle cx="37" cy="81" r="49" fill="#20BD56"/>
<circle cx="37" cy="81" r="48.75" stroke="url(#paint1_linear)" stroke-width="0.5"/>
</g>
<g filter="url(#filter3_d)">
<circle cx="102.58" cy="59.3808" r="29.3085" fill="black" fill-opacity="0.1"/>
<circle cx="102.58" cy="59.3808" r="29.3085" fill="#20BD56"/>
<circle cx="102.58" cy="59.3808" r="29.3085" fill="#20BD56"/>
<circle cx="102.58" cy="59.3808" r="28.8085" stroke="url(#paint2_linear)"/>
</g>
<g filter="url(#filter4_d)">
<circle cx="-11.837" cy="-37.855" r="48.5106" transform="rotate(105 -11.837 -37.855)" fill="white" fill-opacity="0.15"/>
<circle cx="-11.837" cy="-37.855" r="48.5106" transform="rotate(105 -11.837 -37.855)" fill="#20BD56"/>
<circle cx="-11.837" cy="-37.855" r="48.2606" transform="rotate(105 -11.837 -37.855)" stroke="url(#paint3_linear)" stroke-width="0.5"/>
</g>
<path d="M30.3116 15.355L30.3128 15.3539C32.9149 12.785 36.0616 11.5023 39.7674 11.5023C43.5077 11.5023 46.6536 12.7854 49.2208 15.3528L49.2232 15.355C51.8234 17.8888 53.122 21 53.122 24.7049C53.122 28.4097 51.8233 31.5387 49.222 34.1068C46.655 36.6406 43.5088 37.9074 39.7674 37.9074C36.0609 37.9074 32.914 36.6412 30.3122 34.1062C27.7112 31.5382 26.4127 28.4095 26.4127 24.7049C26.4127 21 27.7113 17.8888 30.3116 15.355ZM35.9219 20.7064L35.9219 20.7063L35.9189 20.7095C34.9163 21.7479 34.422 23.0873 34.422 24.7049C34.422 26.3224 34.9163 27.6618 35.9189 28.7002L35.9188 28.7003L35.9219 28.7034C36.9564 29.7379 38.244 30.2543 39.7674 30.2543C41.3222 30.2543 42.6118 29.7394 43.6144 28.7018C44.6512 27.6641 45.1637 26.3242 45.1637 24.7049C45.1637 23.0855 44.6512 21.7456 43.6144 20.7079C42.6118 19.6703 41.3222 19.1554 39.7674 19.1554C38.244 19.1554 36.9564 19.6718 35.9219 20.7064ZM60.018 15.355L60.0192 15.3539C62.6213 12.785 65.768 11.5023 69.4738 11.5023C73.2141 11.5023 76.36 12.7854 78.9272 15.3528L78.9296 15.355C81.5298 17.8888 82.8284 21 82.8284 24.7049C82.8284 28.4097 81.5297 31.5387 78.9284 34.1068C76.3614 36.6406 73.2152 37.9074 69.4738 37.9074C65.7672 37.9074 62.6202 36.6411 60.0183 34.106C57.4176 31.538 56.1191 28.4094 56.1191 24.7049C56.1191 21 57.4177 17.8888 60.018 15.355ZM65.6283 20.7063L65.6253 20.7095C64.6227 21.7479 64.1284 23.0873 64.1284 24.7049C64.1284 26.3224 64.6227 27.6618 65.6252 28.7003L65.6283 28.7034C66.6628 29.7379 67.9504 30.2543 69.4738 30.2543C71.0286 30.2543 72.3182 29.7394 73.3208 28.7018C74.3576 27.6641 74.8701 26.3242 74.8701 24.7049C74.8701 23.0855 74.3576 21.7456 73.3208 20.7079C72.3182 19.6703 71.0286 19.1554 69.4738 19.1554C67.9504 19.1554 66.6628 19.6718 65.6283 20.7063ZM86.1041 29.3178L86.107 29.3149C87.1142 28.3076 88.3079 27.8084 89.7008 27.8084C91.0935 27.8084 92.2686 28.3073 93.2408 29.3119L93.2407 29.312L93.2466 29.3177C94.2511 30.2899 94.75 31.4651 94.75 32.8579C94.75 34.2509 94.2508 35.4447 93.2437 36.4519C92.2722 37.4235 91.0962 37.9074 89.7008 37.9074C88.271 37.9074 87.0609 37.423 86.0562 36.452C85.0839 35.4459 84.6007 34.2522 84.6007 32.8579C84.6007 31.4651 85.0995 30.2899 86.1041 29.3178ZM14.536 23.8865C13.1621 26.0502 14.7166 28.8785 17.2797 28.8785H21.8145C23.3332 28.8785 24.5645 30.1097 24.5645 31.6285V34.444C24.5645 35.9628 23.3332 37.194 21.8145 37.194H3C1.48122 37.194 0.25 35.9628 0.25 34.444V31.2839C0.25 30.7619 0.398597 30.2506 0.67842 29.8099L9.87086 15.3319C11.2447 13.1682 9.69022 10.3399 7.12717 10.3399H3.25477C1.73598 10.3399 0.504769 9.10868 0.504769 7.5899V4.77441C0.504769 3.25563 1.73599 2.02441 3.25477 2.02441H21.4068C22.9256 2.02441 24.1568 3.25563 24.1568 4.77441V7.93448C24.1568 8.45653 24.0082 8.96779 23.7284 9.40851L14.536 23.8865Z" stroke="url(#paint4_linear)" stroke-width="0.5"/>
</g>
<g filter="url(#filter5_d)">
<path d="M59.5474 12.3147C56.3449 6.04535 50.1996 1.53897 42.9405 0.630371C43.2337 2.98796 43.8781 5.21866 44.8343 7.26922C44.9938 7.61129 45.162 7.94835 45.3387 8.28015C47.5542 12.4406 51.1055 15.774 55.632 17.793C56.4669 15.6937 57.8334 13.7817 59.5474 12.3147Z" fill="url(#paint5_linear)"/>
<path d="M63.0335 35.786C63.0193 35.0686 61.9431 33.2749 61.2135 32.1987C59.8789 30.23 60.0174 28.3006 60.4095 26.9666C60.6877 26.0204 60.2882 24.7767 59.3032 24.8282C59.3032 24.8282 60.1525 24.6113 60.6738 24.407C64.0343 23.0896 65.35 20.2072 66.5581 17.2793C66.7399 16.8389 66.9049 16.3855 67.07 15.9319C67.6476 14.3455 68.226 12.7567 69.5214 11.7124C70.7123 10.7524 75.0784 10.1274 76.6867 9.97999L71.377 9.94639C70.7507 9.94639 70.1326 9.87478 69.5384 9.73885C69.3643 9.69901 69.1897 9.65725 69.0149 9.61541C67.8481 9.33627 66.6672 9.05373 65.5049 9.31714C63.2673 9.82423 61.2337 10.8713 59.5474 12.3147C57.8334 13.7817 56.4669 15.6937 55.632 17.793C55.5982 17.8783 55.5653 17.9637 55.5333 18.0493C56.1416 18.1776 56.7585 18.2829 57.3828 18.3643C56.7246 18.4634 56.3091 18.4798 55.4133 18.3836C54.9191 19.8167 54.6506 21.3555 54.6506 22.9573C54.6506 28.6991 58.1001 33.6327 63.0335 35.786Z" fill="url(#paint6_linear)"/>
<path fill-rule="evenodd" clip-rule="evenodd" d="M55.632 17.793C55.5982 17.8783 55.5653 17.9637 55.5333 18.0493C49.0078 16.6729 43.4581 12.6492 40.0605 7.15419C40.656 7.11001 41.2575 7.08753 41.8643 7.08753C42.7123 7.08753 43.5501 7.13145 44.3754 7.21713C44.6845 7.67472 44.8991 7.90316 45.3387 8.28015C47.5542 12.4406 51.1055 15.774 55.632 17.793Z" fill="url(#paint7_linear)"/>
<path opacity="0.4" d="M61.214 32.1977C61.9436 33.2739 63.0198 35.0676 63.034 35.785C59.4069 31.8314 58.0438 29.5137 59.3037 24.8272C60.2887 24.7757 60.6882 26.0194 60.41 26.9656C60.0179 28.2996 59.8794 30.229 61.214 32.1977Z" fill="url(#paint8_linear)"/>
<path opacity="0.3" d="M59.5473 12.3142C56.3448 6.04486 50.1996 1.53848 42.9404 0.629883C43.2336 2.98748 43.878 5.21817 44.8343 7.26873C44.9938 7.6108 45.162 7.94786 45.3387 8.27966C47.5542 12.4401 51.1054 15.7735 55.6319 17.7926C56.4668 15.6932 57.8333 13.7812 59.5473 12.3142Z" fill="url(#paint9_linear)"/>
<path opacity="0.5" fill-rule="evenodd" clip-rule="evenodd" d="M59.5473 12.3142C56.3448 6.04486 50.1996 1.53848 42.9404 0.629883C46.6607 1.43425 51.0063 3.014 53.561 6.63008C55.961 10.0273 56.2611 11.4302 58.9611 12.8461C59.1516 12.663 59.3471 12.4855 59.5473 12.3142Z" fill="url(#paint10_linear)"/>
<path opacity="0.1" d="M55.5333 18.0487C55.5653 17.963 55.5982 17.8777 55.632 17.7924C51.1054 15.7734 47.5542 12.44 45.3387 8.27954C44.8991 7.90254 44.6845 7.67411 44.3754 7.21652C43.5501 7.13083 42.7123 7.08691 41.8643 7.08691C41.2575 7.08691 40.656 7.1094 40.0605 7.15358C43.4581 12.6486 49.0078 16.6723 55.5333 18.0487Z" fill="url(#paint11_linear)"/>
<path opacity="0.4" fill-rule="evenodd" clip-rule="evenodd" d="M64.096 16.056C65.8039 11.9392 68.7231 10.697 76.6872 9.98017L71.3775 9.94656C70.7512 9.94656 70.1331 9.87496 69.5389 9.73903C69.3648 9.69919 69.1902 9.65743 69.0154 9.61559C67.8486 9.33645 66.6677 9.05391 65.5054 9.31732C63.2678 9.82441 61.2342 10.8715 59.5479 12.3148L64.096 16.056Z" fill="url(#paint12_linear)"/>
<path opacity="0.1" d="M55.4121 18.3841C54.9179 19.8172 54.6494 21.356 54.6494 22.9578C54.6494 23.7187 54.71 24.4655 54.8266 25.1935C56.6698 22.5293 57.8232 21.2478 57.3816 18.3647C56.7234 18.4639 56.3079 18.4803 55.4121 18.3841Z" fill="url(#paint13_linear)"/>
<path opacity="0.1" d="M55.6309 17.7924C56.4658 15.693 57.8323 13.781 59.5463 12.314C57.9834 14.4777 57.5547 15.8148 57.3817 18.3636C56.7574 18.2822 56.1406 18.1769 55.5322 18.0486C55.5642 17.963 55.5971 17.8776 55.6309 17.7924Z" fill="url(#paint14_linear)"/>
<circle cx="65.8627" cy="10.832" r="0.600019" fill="white"/>
</g>
<defs>
<filter id="filter0_i" x="0" y="1.77441" width="95" height="40.383" filterUnits="userSpaceOnUse" color-interpolation-filters="sRGB">
<feFlood flood-opacity="0" result="BackgroundImageFix"/>
<feBlend mode="normal" in="SourceGraphic" in2="BackgroundImageFix" result="shape"/>
<feColorMatrix in="SourceAlpha" type="matrix" values="0 0 0 0 0 0 0 0 0 0 0 0 0 0 0 0 0 0 127 0" result="hardAlpha"/>
<feOffset dy="4"/>
<feGaussianBlur stdDeviation="2"/>
<feComposite in2="hardAlpha" operator="arithmetic" k2="-1" k3="1"/>
<feColorMatrix type="matrix" values="0 0 0 0 0 0 0 0 0 0 0 0 0 0 0 0 0 0 0.15 0"/>
<feBlend mode="normal" in2="shape" result="effect1_innerShadow"/>
</filter>
<filter id="filter1_d" x="-4" y="-88" width="125.021" height="125.021" filterUnits="userSpaceOnUse" color-interpolation-filters="sRGB">
<feFlood flood-opacity="0" result="BackgroundImageFix"/>
<feColorMatrix in="SourceAlpha" type="matrix" values="0 0 0 0 0 0 0 0 0 0 0 0 0 0 0 0 0 0 127 0"/>
<feOffset dy="4"/>
<feGaussianBlur stdDeviation="7"/>
<feColorMatrix type="matrix" values="0 0 0 0 0 0 0 0 0 0 0 0 0 0 0 0 0 0 0.25 0"/>
<feBlend mode="normal" in2="BackgroundImageFix" result="effect1_dropShadow"/>
<feBlend mode="normal" in="SourceGraphic" in2="effect1_dropShadow" result="shape"/>
</filter>
<filter id="filter2_d" x="-26" y="22" width="126" height="126" filterUnits="userSpaceOnUse" color-interpolation-filters="sRGB">
<feFlood flood-opacity="0" result="BackgroundImageFix"/>
<feColorMatrix in="SourceAlpha" type="matrix" values="0 0 0 0 0 0 0 0 0 0 0 0 0 0 0 0 0 0 127 0"/>
<feOffset dy="4"/>
<feGaussianBlur stdDeviation="7"/>
<feColorMatrix type="matrix" values="0 0 0 0 0 0 0 0 0 0 0 0 0 0 0 0 0 0 0.25 0"/>
<feBlend mode="normal" in2="BackgroundImageFix" result="effect1_dropShadow"/>
<feBlend mode="normal" in="SourceGraphic" in2="effect1_dropShadow" result="shape"/>
</filter>
<filter id="filter3_d" x="59.2715" y="20.0723" width="86.617" height="86.617" filterUnits="userSpaceOnUse" color-interpolation-filters="sRGB">
<feFlood flood-opacity="0" result="BackgroundImageFix"/>
<feColorMatrix in="SourceAlpha" type="matrix" values="0 0 0 0 0 0 0 0 0 0 0 0 0 0 0 0 0 0 127 0"/>
<feOffset dy="4"/>
<feGaussianBlur stdDeviation="7"/>
<feColorMatrix type="matrix" values="0 0 0 0 0 0 0 0 0 0 0 0 0 0 0 0 0 0 0.25 0"/>
<feBlend mode="normal" in2="BackgroundImageFix" result="effect1_dropShadow"/>
<feBlend mode="normal" in="SourceGraphic" in2="effect1_dropShadow" result="shape"/>
</filter>
<filter id="filter4_d" x="-85.25" y="-107.268" width="146.826" height="146.826" filterUnits="userSpaceOnUse" color-interpolation-filters="sRGB">
<feFlood flood-opacity="0" result="BackgroundImageFix"/>
<feColorMatrix in="SourceAlpha" type="matrix" values="0 0 0 0 0 0 0 0 0 0 0 0 0 0 0 0 0 0 127 0"/>
<feOffset dy="4"/>
<feGaussianBlur stdDeviation="7"/>
<feColorMatrix type="matrix" values="0 0 0 0 0 0 0 0 0 0 0 0 0 0 0 0 0 0 0.05 0"/>
<feBlend mode="normal" in2="BackgroundImageFix" result="effect1_dropShadow"/>
<feBlend mode="normal" in="SourceGraphic" in2="effect1_dropShadow" result="shape"/>
</filter>
<filter id="filter5_d" x="38.0605" y="0.629883" width="40.6267" height="39.1561" filterUnits="userSpaceOnUse" color-interpolation-filters="sRGB">
<feFlood flood-opacity="0" result="BackgroundImageFix"/>
<feColorMatrix in="SourceAlpha" type="matrix" values="0 0 0 0 0 0 0 0 0 0 0 0 0 0 0 0 0 0 127 0"/>
<feOffset dy="2"/>
<feGaussianBlur stdDeviation="1"/>
<feColorMatrix type="matrix" values="0 0 0 0 0 0 0 0 0 0 0 0 0 0 0 0 0 0 0.25 0"/>
<feBlend mode="normal" in2="BackgroundImageFix" result="effect1_dropShadow"/>
<feBlend mode="normal" in="SourceGraphic" in2="effect1_dropShadow" result="shape"/>
</filter>
<linearGradient id="paint0_linear" x1="15.5585" y1="-61.0718" x2="65.5851" y2="-69.9149" gradientUnits="userSpaceOnUse">
<stop stop-color="white" stop-opacity="0"/>
<stop offset="0.510417" stop-color="white" stop-opacity="0.4"/>
<stop offset="1" stop-color="white" stop-opacity="0"/>
</linearGradient>
<linearGradient id="paint1_linear" x1="-6.38542" y1="49.099" x2="44.1458" y2="40.1667" gradientUnits="userSpaceOnUse">
<stop stop-color="white" stop-opacity="0"/>
<stop offset="0.510417" stop-color="white" stop-opacity="0.4"/>
<stop offset="1" stop-color="white" stop-opacity="0"/>
</linearGradient>
<linearGradient id="paint2_linear" x1="76.6298" y1="40.2997" x2="106.854" y2="34.957" gradientUnits="userSpaceOnUse">
<stop stop-color="white" stop-opacity="0"/>
<stop offset="0.510417" stop-color="white" stop-opacity="0.4"/>
<stop offset="1" stop-color="white" stop-opacity="0"/>
</linearGradient>
<linearGradient id="paint3_linear" x1="-11.837" y1="-86.3657" x2="29.0939" y2="-56.0465" gradientUnits="userSpaceOnUse">
<stop stop-color="white" stop-opacity="0"/>
<stop offset="0.510417" stop-color="white" stop-opacity="0.4"/>
<stop offset="1" stop-color="white" stop-opacity="0"/>
</linearGradient>
<linearGradient id="paint4_linear" x1="0" y1="1.77441" x2="95" y2="38.7744" gradientUnits="userSpaceOnUse">
<stop stop-color="white" stop-opacity="0"/>
<stop offset="0.416667" stop-color="white" stop-opacity="0.31"/>
<stop offset="1" stop-color="white" stop-opacity="0"/>
</linearGradient>
<linearGradient id="paint5_linear" x1="73.7813" y1="8.88119" x2="57.2796" y2="41.167" gradientUnits="userSpaceOnUse">
<stop stop-color="#CF9D1C"/>
<stop offset="0.244792" stop-color="#CF1C1C"/>
<stop offset="1" stop-color="#1CCF43"/>
</linearGradient>
<linearGradient id="paint6_linear" x1="73.7813" y1="8.88119" x2="57.2796" y2="41.167" gradientUnits="userSpaceOnUse">
<stop stop-color="#CF9D1C"/>
<stop offset="0.244792" stop-color="#CF1C1C"/>
<stop offset="1" stop-color="#1CCF43"/>
</linearGradient>
<linearGradient id="paint7_linear" x1="73.7813" y1="8.88119" x2="57.2796" y2="41.167" gradientUnits="userSpaceOnUse">
<stop stop-color="#CF9D1C"/>
<stop offset="0.244792" stop-color="#CF1C1C"/>
<stop offset="1" stop-color="#1CCF43"/>
</linearGradient>
<linearGradient id="paint8_linear" x1="60.9394" y1="24.8242" x2="60.9394" y2="35.785" gradientUnits="userSpaceOnUse">
<stop stop-color="white"/>
<stop offset="1" stop-color="white" stop-opacity="0"/>
</linearGradient>
<linearGradient id="paint9_linear" x1="42.9304" y1="0.629883" x2="58.3558" y2="14.9791" gradientUnits="userSpaceOnUse">
<stop stop-color="white"/>
<stop offset="0.427083" stop-color="white" stop-opacity="0"/>
</linearGradient>
<linearGradient id="paint10_linear" x1="50.1149" y1="7.44091" x2="57.0881" y2="1.44072" gradientUnits="userSpaceOnUse">
<stop stop-color="white"/>
<stop offset="1" stop-color="white" stop-opacity="0"/>
</linearGradient>
<linearGradient id="paint11_linear" x1="40.0605" y1="7.08691" x2="57.6384" y2="18.2076" gradientUnits="userSpaceOnUse">
<stop/>
<stop offset="1" stop-opacity="0"/>
</linearGradient>
<linearGradient id="paint12_linear" x1="73.7817" y1="9.59881" x2="63.7373" y2="15.6972" gradientUnits="userSpaceOnUse">
<stop stop-color="white"/>
<stop offset="1" stop-color="white" stop-opacity="0"/>
</linearGradient>
<linearGradient id="paint13_linear" x1="57.6371" y1="18.2087" x2="54.4086" y2="25.0246" gradientUnits="userSpaceOnUse">
<stop/>
<stop offset="1" stop-opacity="0"/>
</linearGradient>
<linearGradient id="paint14_linear" x1="59.5195" y1="12.3057" x2="57.5392" y2="18.3636" gradientUnits="userSpaceOnUse">
<stop/>
<stop offset="1" stop-opacity="0"/>
</linearGradient>
</defs>
</svg>
