<svg viewBox="0 0 12 18" fill="none" xmlns="http://www.w3.org/2000/svg">
<path d="M6.00023 0.359863C2.81789 0.359863 0.240234 2.93752 0.240234 6.11986C0.240234 8.75096 1.62961 11.5789 2.99648 13.7699C4.36336 15.9608 5.73023 17.5161 5.73023 17.5161C5.79914 17.5935 5.89758 17.6385 6.00023 17.6385C6.10289 17.6385 6.20133 17.5935 6.27023 17.5161C6.27023 17.5161 7.63851 15.9285 9.00398 13.7249C10.3695 11.5213 11.7602 8.70033 11.7602 6.11986C11.7602 2.93752 9.18258 0.359863 6.00023 0.359863ZM6.00023 1.07986C8.79445 1.07986 11.0402 3.32564 11.0402 6.11986C11.0402 8.43596 9.73102 11.1894 8.39648 13.3424C7.27852 15.1466 6.33211 16.3081 6.00023 16.7061C5.66555 16.311 4.71914 15.1747 3.60398 13.3874C2.27086 11.2499 0.960234 8.49221 0.960234 6.11986C0.960234 3.32564 3.20602 1.07986 6.00023 1.07986ZM6.00023 3.95986C4.61227 3.95986 3.48023 5.09189 3.48023 6.47986C3.48023 7.86783 4.61227 8.99986 6.00023 8.99986C7.3882 8.99986 8.52023 7.86783 8.52023 6.47986C8.52023 5.09189 7.3882 3.95986 6.00023 3.95986ZM6.00023 4.67986C6.99867 4.67986 7.80023 5.48143 7.80023 6.47986C7.80023 7.4783 6.99867 8.27986 6.00023 8.27986C5.0018 8.27986 4.20023 7.4783 4.20023 6.47986C4.20023 5.48143 5.0018 4.67986 6.00023 4.67986Z" fill="currentColor"/>
</svg>
