<svg width="75" height="26" viewBox="0 0 75 26" fill="none" xmlns="http://www.w3.org/2000/svg">
<g clip-path="url(#clip0)">
<path fill-rule="evenodd" clip-rule="evenodd" d="M32.8311 4.41064C32.8311 4.41064 32.8311 4.41064 34.4085 4.41064C34.9834 4.41064 35.2729 4.68631 35.2729 5.30864C35.2729 5.30864 35.2729 5.30864 35.2729 7.51394C35.2729 7.51394 35.2729 7.51394 38.3631 7.51394C38.3631 7.51394 38.3631 7.51394 38.3631 5.30864C38.3631 4.68631 38.6483 4.41064 39.2966 4.41064C39.2966 4.41064 39.2966 4.41064 40.805 4.41064C40.805 4.41064 40.805 4.41065 40.805 5.85996C40.805 5.85996 40.805 5.85996 40.161 5.85996L40.0875 5.93097C40.0875 5.93097 40.0875 5.93097 40.0875 12.1375C40.0875 12.1375 40.0875 12.1375 38.3631 12.1375C38.3631 12.1375 38.3631 12.1376 38.3631 9.03426C38.3631 9.03426 38.3631 9.03426 35.2729 9.03426C35.2729 9.03426 35.2729 9.03426 35.2729 12.1375C35.2729 12.1375 35.2729 12.1375 33.5485 12.1375C33.5485 12.1375 33.5485 12.1376 33.5485 5.93097C33.5485 5.93097 33.5485 5.85996 33.475 5.85996C33.475 5.85996 33.475 5.85996 32.8311 5.85996C32.8311 5.85996 32.8311 5.85996 32.8311 4.41064Z" fill="#ED1C24"/>
<path fill-rule="evenodd" clip-rule="evenodd" d="M45.3304 4.27295L45.3693 4.27712V5.86845L45.3304 5.8601C44.0381 5.8601 43.0311 6.89592 43.0311 8.20741C43.0311 9.58572 44.0381 10.6884 45.3304 10.6884L45.3693 10.68V12.2713L45.3304 12.2755C43.0311 12.2755 41.1641 10.4837 41.1641 8.20741C41.1641 5.99793 43.0311 4.27295 45.3304 4.27295Z" fill="#ED1C24"/>
<path fill-rule="evenodd" clip-rule="evenodd" d="M45.3691 4.27686L46.1687 4.35204C48.066 4.71124 49.4965 6.27332 49.4965 8.20714C49.4965 10.1953 48.066 11.82 46.1687 12.1917L45.3691 12.2711V10.6798L46.2465 10.496C47.0936 10.1201 47.703 9.23879 47.703 8.20714C47.703 7.22144 47.0936 6.39445 46.2465 6.04361L45.3691 5.86818V4.27686Z" fill="#ED1C24"/>
<path fill-rule="evenodd" clip-rule="evenodd" d="M49.855 4.41064C49.855 4.41064 49.855 4.41064 52.2623 4.41064H53.4119V5.85996H53.3038C53.1612 5.85996 52.8717 5.85996 52.2968 5.85996C52.2968 5.85996 52.2968 5.85996 52.2968 7.44711C52.2968 7.44711 52.2968 7.44711 52.7852 7.44711H53.4119V8.82542H53.0445C52.863 8.82542 52.621 8.82542 52.2968 8.82542C52.2968 8.82542 52.2968 8.82542 52.2968 10.5504C52.2968 10.6214 52.2968 10.6214 52.3703 10.6214C52.3703 10.6214 52.3703 10.6214 52.8846 10.6214H53.4119V12.1375H53.2606C53.0013 12.1375 52.4784 12.1375 51.4368 12.1375C50.862 12.1375 50.5767 11.8619 50.5767 11.2396V5.85996C50.5767 5.85996 50.5767 5.85996 49.855 5.85996C49.855 5.85996 49.855 5.85996 49.855 4.41064Z" fill="#ED1C24"/>
<path fill-rule="evenodd" clip-rule="evenodd" d="M53.4121 4.41064H53.4467C55.0285 4.41064 55.962 5.23763 55.962 6.48229C55.962 7.23828 55.6033 7.72277 55.2446 8.06944C55.8929 8.3451 56.3207 9.03426 56.3207 9.79024C56.3207 11.2396 55.1711 12.1375 53.5202 12.1375C53.5202 12.1375 53.5202 12.1375 53.4899 12.1375H53.4121V10.6214H53.5893C54.1641 10.6214 54.5272 10.2747 54.5272 9.72341C54.5272 9.17209 54.1641 8.82542 53.5893 8.82542C53.5893 8.82542 53.5893 8.82542 53.4294 8.82542H53.4121V7.44711H53.4467C53.9523 7.44711 54.2376 7.10044 54.2376 6.62012C54.2376 6.13563 53.9523 5.85996 53.4467 5.85996C53.4467 5.85996 53.4467 5.85996 53.4294 5.85996H53.4121V4.41064Z" fill="#ED1C24"/>
<path fill-rule="evenodd" clip-rule="evenodd" d="M59.627 4.41064C59.627 4.41064 59.627 4.41064 60.3531 4.41064H60.4871V6.62012C60.4179 6.75795 60.3444 6.96261 60.3444 7.17145C60.3444 7.17145 60.3444 7.17145 59.7696 8.7586C59.7696 8.7586 59.7696 8.7586 60.379 8.7586H60.4871V10.2037H60.0981C59.8777 10.2037 59.627 10.2037 59.3417 10.2037C59.3417 10.2037 59.3418 10.2037 58.8361 11.4484C58.6935 11.9287 58.4082 12.1375 57.8334 12.1375C57.8334 12.1375 57.8334 12.1375 56.7529 12.1375C56.7529 12.1375 56.7529 12.1376 56.7529 10.6214C56.7529 10.6214 56.7529 10.6214 57.1116 10.6214C57.2586 10.6214 57.2586 10.6214 57.3277 10.5504C57.3277 10.5504 57.3277 10.5504 59.627 4.41064Z" fill="#ED1C24"/>
<path fill-rule="evenodd" clip-rule="evenodd" d="M60.4868 4.41064H61.3512C61.3512 4.41064 61.3512 4.41064 63.6504 10.5504C63.7196 10.6214 63.7196 10.6214 63.8622 10.6214C63.8622 10.6214 63.8622 10.6214 64.1518 10.6214C64.1518 10.6214 64.1518 10.6214 64.1518 12.1375C64.1518 12.1375 64.1518 12.1375 63.1448 12.1375C62.57 12.1375 62.2847 11.9287 62.1378 11.3774C62.1378 11.3774 62.1378 11.3774 61.6364 10.2037C61.6364 10.2037 61.6364 10.2037 60.6683 10.2037H60.4868V8.7586H61.2043C61.2043 8.7586 61.2043 8.7586 60.6338 7.17145C60.6338 6.96261 60.5603 6.75795 60.4868 6.62012V4.41064Z" fill="#ED1C24"/>
<path fill-rule="evenodd" clip-rule="evenodd" d="M32.8311 14.3428C32.8311 14.3428 32.8311 14.3428 39.0805 14.3428C39.6553 14.3428 40.014 14.6184 40.014 15.2408C40.014 15.2408 40.014 15.2408 40.014 20.4825C40.014 20.5494 40.014 20.5494 40.0875 20.5494C40.0875 20.5494 40.0875 20.5494 40.6623 20.5494C40.6623 20.5494 40.6623 20.5494 40.6623 22.0697C40.6623 22.0697 40.6623 22.0697 39.154 22.0697C38.5057 22.0697 38.2205 21.794 38.2205 21.1717C38.2205 21.1717 38.2205 21.1717 38.2205 15.8631C38.2205 15.8631 38.2205 15.7921 38.147 15.7921C38.147 15.7921 38.147 15.7921 35.2729 15.7921C35.2729 15.7921 35.2729 15.7921 35.2729 22.0697C35.2729 22.0697 35.2729 22.0697 33.5485 22.0697C33.5485 22.0697 33.5485 22.0697 33.5485 15.7921C33.5485 15.7921 33.5485 15.7921 32.8311 15.7921C32.8311 15.7921 32.8311 15.7921 32.8311 14.3428Z" fill="#ED1C24"/>
<path fill-rule="evenodd" clip-rule="evenodd" d="M45.188 14.2051L45.2226 14.2093V15.8006L45.188 15.7922C43.8914 15.7922 42.8887 16.828 42.8887 18.1395C42.8887 19.5178 43.8914 20.6205 45.188 20.6205L45.2226 20.6121V22.2035L45.188 22.2076C42.8887 22.2076 41.0908 20.4117 41.0908 18.1395C41.0908 15.9301 42.8887 14.2051 45.188 14.2051Z" fill="#ED1C24"/>
<path fill-rule="evenodd" clip-rule="evenodd" d="M45.2222 14.209L46.0476 14.2842C47.9795 14.6434 49.3539 16.2054 49.3539 18.1393C49.3539 20.1274 47.9795 21.7521 46.0476 22.1238L45.2222 22.2032V20.6119L46.1341 20.4281C46.9941 20.0522 47.5603 19.1709 47.5603 18.1393C47.5603 17.1536 46.9941 16.3266 46.1341 15.9757L45.2222 15.8003V14.209Z" fill="#ED1C24"/>
<path fill-rule="evenodd" clip-rule="evenodd" d="M49.7126 14.3428C49.7126 14.3428 49.7126 14.3428 51.2945 14.3428C51.8693 14.3428 52.1545 14.6184 52.1545 15.2408C52.1545 15.2408 52.1545 15.2408 52.1545 20.4825C52.1545 20.5494 52.1545 20.5494 52.228 20.5494C52.228 20.5494 52.228 20.5494 54.3111 20.5494C54.3111 20.5494 54.3111 20.5494 54.3111 14.3428C54.3111 14.3428 54.3111 14.3428 56.0356 14.3428C56.0356 14.3428 56.0356 14.3428 56.0356 20.5494C56.0356 20.5494 56.0356 20.5494 58.1187 20.5494C58.1922 20.5494 58.1922 20.5494 58.1922 20.4825C58.1922 20.4825 58.1922 20.4825 58.1922 15.2408C58.1922 14.6184 58.4775 14.3428 59.0523 14.3428C59.0523 14.3428 59.0523 14.3428 60.6341 14.3428C60.6341 14.3428 60.6341 14.3428 60.6341 15.7921C60.6341 15.7921 60.6341 15.7921 59.9858 15.7921C59.9123 15.7921 59.9123 15.8631 59.9123 15.8631C59.9123 15.8631 59.9123 15.8631 59.9123 21.1717C59.9123 21.794 59.6271 22.0697 59.0523 22.0697C59.0523 22.0697 59.0523 22.0697 51.3636 22.0697C50.7196 22.0697 50.4301 21.794 50.4301 21.1717C50.4301 21.1717 50.4301 21.1717 50.4301 15.8631C50.4301 15.8631 50.4301 15.7921 50.3609 15.7921C50.3609 15.7921 50.3609 15.7921 49.7126 15.7921C49.7126 15.7921 49.7126 15.7921 49.7126 14.3428Z" fill="#ED1C24"/>
<path fill-rule="evenodd" clip-rule="evenodd" d="M61.995 14.3428C61.995 14.3428 61.995 14.3428 67.3844 14.3428C68.0327 14.3428 68.2488 14.6184 68.2488 15.1698C68.2488 15.1698 68.2488 15.1698 68.2488 16.4812H66.667C66.667 16.4812 66.667 16.4812 66.667 15.8631C66.667 15.7921 66.667 15.7921 66.5935 15.7921C66.5935 15.7921 66.5935 15.7921 65.5908 15.7921C65.5908 15.7921 65.5908 15.7921 65.5908 22.0697C65.5908 22.0697 65.5908 22.0697 63.8621 22.0697C63.8621 22.0697 63.8621 22.0697 63.8621 15.7921C63.8621 15.7921 63.8621 15.7921 62.8594 15.7921C62.7859 15.7921 62.7859 15.7921 62.7859 15.8631C62.7859 15.8631 62.7859 15.8631 62.7859 16.4812C62.7859 16.4812 62.7859 16.4812 61.2041 16.4812C61.2041 16.4812 61.2041 16.4812 61.2041 15.1698C61.2041 14.6184 61.4202 14.3428 61.995 14.3428Z" fill="#ED1C24"/>
<path fill-rule="evenodd" clip-rule="evenodd" d="M70.4751 14.3428C70.4751 14.3428 70.4751 14.3428 71.2012 14.3428H71.3352V16.5523C71.2617 16.6901 71.1926 16.8947 71.1926 17.1036C71.1926 17.1036 71.1926 17.1036 70.6177 18.6907C70.6177 18.6907 70.6177 18.6907 71.2228 18.6907H71.3352V20.1359H70.9462C70.7258 20.1359 70.4751 20.1359 70.1856 20.1359C70.1856 20.1359 70.1856 20.1359 69.6842 21.3095C69.5416 21.8608 69.252 22.0697 68.6772 22.0697C68.6772 22.0697 68.6772 22.0697 67.6011 22.0697C67.6011 22.0697 67.6011 22.0697 67.6011 20.5494C67.6011 20.5494 67.6011 20.5494 67.9598 20.5494C68.1067 20.5494 68.1067 20.5494 68.1759 20.4825C68.1759 20.4825 68.1759 20.4825 70.4751 14.3428Z" fill="#ED1C24"/>
<path fill-rule="evenodd" clip-rule="evenodd" d="M71.335 14.3428H72.195C72.195 14.3428 72.195 14.3428 74.4986 20.4825C74.5677 20.5494 74.5677 20.5494 74.7147 20.5494H74.9999C74.9999 20.5494 74.9999 20.5494 74.9999 22.0697C74.9999 22.0697 74.9999 22.0697 73.9929 22.0697C73.4181 22.0697 73.1329 21.8608 72.9859 21.3095C72.9859 21.3095 72.9859 21.3095 72.4846 20.1359C72.4846 20.1359 72.4846 20.1359 71.5165 20.1359H71.335V18.6907H72.0524C72.0524 18.6907 72.0524 18.6907 71.4776 17.1036C71.4776 16.8947 71.4084 16.6901 71.335 16.5523V14.3428Z" fill="#ED1C24"/>
<path fill-rule="evenodd" clip-rule="evenodd" d="M21.7587 7.69761C21.8409 7.67255 21.9489 7.72268 22.0569 7.86051C22.0569 7.86051 22.0569 7.86051 26.9407 12.4799C27.2259 12.7556 27.2259 13.1733 26.9407 13.3779C26.9407 13.3779 26.9407 13.3779 22.0569 18.0684C21.9489 18.2062 21.8409 18.2396 21.7587 18.1979C21.6766 18.1561 21.6248 18.035 21.6248 17.8595V7.99834C21.6248 7.82709 21.6766 7.72267 21.7587 7.69761Z" fill="#ED1C24"/>
<path fill-rule="evenodd" clip-rule="evenodd" d="M13.4044 0H13.7501L14.0829 0.133655C14.0829 0.133655 14.0829 0.133655 19.1093 4.96193C19.3254 5.23759 19.2519 5.44642 18.8932 5.44642C18.8932 5.44642 18.8932 5.44642 16.8101 5.44642C16.4513 5.44642 16.1661 5.72209 16.1661 6.06875C16.1661 6.06875 16.1661 6.06875 16.1661 9.65237C16.1661 9.99903 15.8765 10.2747 15.4443 10.2747C15.4443 10.2747 15.4443 10.2747 11.7837 10.2747C11.425 10.2747 11.1354 9.99903 11.1354 9.65237C11.1354 9.65237 11.1354 9.65237 11.1354 6.06875C11.1354 5.72209 10.8502 5.44642 10.4871 5.44642H8.26134C7.90262 5.44642 7.82915 5.23759 8.04525 4.96193C8.04525 4.96193 8.04525 4.96193 13.0759 0.133655L13.4044 0Z" fill="#ED1C24"/>
<path fill-rule="evenodd" clip-rule="evenodd" d="M5.52986 7.59348C5.62062 7.63525 5.67681 7.75637 5.67681 7.93179V17.9977C5.67681 18.1731 5.62062 18.2775 5.52986 18.3109C5.44343 18.3443 5.31809 18.3109 5.17115 18.2065C5.17115 18.2065 5.17115 18.2065 0.213934 13.3782C-0.0713113 13.1736 -0.0713113 12.7559 0.213934 12.4802C0.213934 12.4802 0.213934 12.4802 5.17115 7.72296C5.31809 7.58513 5.44343 7.55172 5.52986 7.59348Z" fill="#ED1C24"/>
<path fill-rule="evenodd" clip-rule="evenodd" d="M11.7835 15.5166C11.7835 15.5166 11.7835 15.5166 15.4441 15.5166C15.8763 15.5166 16.1659 15.7923 16.1659 16.1389C16.1659 16.1389 16.1659 16.1389 16.1659 19.9314C16.1659 20.3449 16.4511 20.6205 16.8098 20.6205H18.7504C19.1091 20.6205 19.2517 20.8252 18.9665 21.034C18.9665 21.034 18.9665 21.034 14.0827 25.7913C13.9358 25.9291 13.7586 26.0001 13.5771 26.0001C13.3999 26.0001 13.2183 25.9291 13.0757 25.7913C13.0757 25.7913 13.0757 25.7913 8.19198 21.034C7.90241 20.8252 8.04503 20.6205 8.40375 20.6205C8.40375 20.6205 8.40375 20.6205 10.4869 20.6205C10.8499 20.6205 11.1352 20.3449 11.1352 19.9314C11.1352 19.9314 11.1352 19.9314 11.1352 16.1389C11.1352 15.7923 11.4248 15.5166 11.7835 15.5166Z" fill="#ED1C24"/>
</g>
<defs>
<clipPath id="clip0">
<rect width="75" height="26" fill="white"/>
</clipPath>
</defs>
</svg>
