<svg width="152" height="152" viewBox="0 0 152 152" fill="none" xmlns="http://www.w3.org/2000/svg">
<path d="M129.831 110.833H88.6641V69.6665H129.831C131.731 69.6665 132.997 70.9332 132.997 72.8332V107.667C132.997 109.567 131.731 110.833 129.831 110.833Z" fill="#52BF8D"/>
<path d="M123.497 69.6665H88.6641V110.833H123.497V69.6665Z" fill="#107C42"/>
<path d="M129.831 104.5H88.6641V63.3335H129.831C131.731 63.3335 132.997 64.6002 132.997 66.5002V101.333C132.997 103.233 131.731 104.5 129.831 104.5Z" fill="#59D19A"/>
<path d="M123.497 63.3335H88.6641V104.5H123.497V63.3335Z" fill="#21A366"/>
<path d="M50.6641 64.9165V15.8332C50.6641 13.9332 51.9307 12.6665 53.8307 12.6665H56.9974C56.9974 14.5665 58.2641 15.8332 60.1641 15.8332C62.0641 15.8332 63.3307 14.5665 63.3307 12.6665H69.6641C69.6641 14.5665 70.9307 15.8332 72.8307 15.8332C74.7307 15.8332 75.9974 14.5665 75.9974 12.6665H82.3307C82.3307 14.5665 83.5974 15.8332 85.4974 15.8332C87.3974 15.8332 88.6641 14.5665 88.6641 12.6665H94.9974C94.9974 14.5665 96.2641 15.8332 98.1641 15.8332C100.064 15.8332 101.331 14.5665 101.331 12.6665H107.664C107.664 14.5665 108.931 15.8332 110.831 15.8332C112.731 15.8332 113.997 14.5665 113.997 12.6665H117.164C119.064 12.6665 120.331 13.9332 120.331 15.8332V64.9165H50.6641Z" fill="url(#paint0_linear)"/>
<path d="M129.831 98.1667H88.6641V57H129.831C131.731 57 132.997 58.2667 132.997 60.1667V95C132.997 96.9 131.731 98.1667 129.831 98.1667Z" fill="#61E3A7"/>
<path d="M123.497 57H88.6641V98.1667H123.497V57Z" fill="#33C481"/>
<path d="M90.25 91.8335C98.1201 91.8335 104.5 85.4535 104.5 77.5835C104.5 69.7134 98.1201 63.3335 90.25 63.3335C82.3799 63.3335 76 69.7134 76 77.5835C76 85.4535 82.3799 91.8335 90.25 91.8335Z" fill="#61E3A7"/>
<path d="M114.003 91.8333C115.752 91.8333 117.169 90.4156 117.169 88.6667C117.169 86.9178 115.752 85.5 114.003 85.5C112.254 85.5 110.836 86.9178 110.836 88.6667C110.836 90.4156 112.254 91.8333 114.003 91.8333Z" fill="#61E3A7"/>
<path d="M95 41.1665H25.3333C21.85 41.1665 19 44.0165 19 47.4998V136.166C19 138.066 20.2667 139.333 22.1667 139.333H25.3333C25.3333 137.433 26.6 136.166 28.5 136.166C30.4 136.166 31.6667 137.75 31.6667 139.333H38C38 137.433 39.2667 136.166 41.1667 136.166C43.0667 136.166 44.3333 137.75 44.3333 139.333H50.6667C50.6667 137.433 51.9333 136.166 53.8333 136.166C55.7333 136.166 57 137.75 57 139.333H63.3333C63.3333 137.433 64.6 136.166 66.5 136.166C68.4 136.166 69.6667 137.75 69.6667 139.333H76C76 137.433 77.2667 136.166 79.1667 136.166C81.0667 136.166 82.3333 137.75 82.3333 139.333H85.5C87.4 139.333 88.6667 138.066 88.6667 136.166V50.6665H95V41.1665Z" fill="url(#paint1_linear)"/>
<path d="M101.331 56.9998H88.6641V47.4998C88.6641 44.0165 91.5141 41.1665 94.9974 41.1665C98.4807 41.1665 101.331 44.0165 101.331 47.4998V56.9998Z" fill="url(#paint2_linear)"/>
<path d="M77.5833 63.3333H30.0833C29.1333 63.3333 28.5 62.7 28.5 61.75V58.5833C28.5 57.6333 29.1333 57 30.0833 57H77.5833C78.5333 57 79.1667 57.6333 79.1667 58.5833V61.75C79.1667 62.7 78.5333 63.3333 77.5833 63.3333Z" fill="#057093"/>
<path d="M77.5859 85.4998H74.4193C73.4693 85.4998 72.8359 84.8665 72.8359 83.9165V80.7498C72.8359 79.7998 73.4693 79.1665 74.4193 79.1665H77.5859C78.5359 79.1665 79.1693 79.7998 79.1693 80.7498V83.9165C79.1693 84.8665 78.5359 85.4998 77.5859 85.4998Z" fill="#057093"/>
<path d="M52.25 85.4998H30.0833C29.1333 85.4998 28.5 84.8665 28.5 83.9165V80.7498C28.5 79.7998 29.1333 79.1665 30.0833 79.1665H52.25C53.2 79.1665 53.8333 79.7998 53.8333 80.7498V83.9165C53.8333 84.8665 53.2 85.4998 52.25 85.4998Z" fill="#057093"/>
<path d="M77.5859 98.1668H74.4193C73.4693 98.1668 72.8359 97.5335 72.8359 96.5835V93.4168C72.8359 92.4668 73.4693 91.8335 74.4193 91.8335H77.5859C78.5359 91.8335 79.1693 92.4668 79.1693 93.4168V96.5835C79.1693 97.5335 78.5359 98.1668 77.5859 98.1668Z" fill="#057093"/>
<path d="M42.75 98.1668H30.0833C29.1333 98.1668 28.5 97.5335 28.5 96.5835V93.4168C28.5 92.4668 29.1333 91.8335 30.0833 91.8335H42.75C43.7 91.8335 44.3333 92.4668 44.3333 93.4168V96.5835C44.3333 97.5335 43.7 98.1668 42.75 98.1668Z" fill="#057093"/>
<path d="M77.5859 110.833H74.4193C73.4693 110.833 72.8359 110.2 72.8359 109.25V106.083C72.8359 105.133 73.4693 104.5 74.4193 104.5H77.5859C78.5359 104.5 79.1693 105.133 79.1693 106.083V109.25C79.1693 110.2 78.5359 110.833 77.5859 110.833Z" fill="#057093"/>
<path d="M52.25 110.833H30.0833C29.1333 110.833 28.5 110.2 28.5 109.25V106.083C28.5 105.133 29.1333 104.5 30.0833 104.5H52.25C53.2 104.5 53.8333 105.133 53.8333 106.083V109.25C53.8333 110.2 53.2 110.833 52.25 110.833Z" fill="#057093"/>
<path opacity="0.05" d="M91.8307 57H88.6641V110.833H91.8307V57Z" fill="black"/>
<path opacity="0.07" d="M90.2474 57H88.6641V110.833H90.2474V57Z" fill="black"/>
<defs>
<linearGradient id="paint0_linear" x1="85.4974" y1="11.4537" x2="85.4974" y2="49.859" gradientUnits="userSpaceOnUse">
<stop stop-color="#199AE0"/>
<stop offset="1" stop-color="#0782D8"/>
</linearGradient>
<linearGradient id="paint1_linear" x1="57" y1="42.3888" x2="57" y2="130.514" gradientUnits="userSpaceOnUse">
<stop stop-color="#7DD8F3"/>
<stop offset="1" stop-color="#45B0D0"/>
</linearGradient>
<linearGradient id="paint2_linear" x1="94.9974" y1="70.398" x2="94.9974" y2="47.142" gradientUnits="userSpaceOnUse">
<stop stop-color="#0176D0"/>
<stop offset="1" stop-color="#16538C"/>
</linearGradient>
</defs>
</svg>
