<svg  viewBox="0 0 16 16" fill="none" xmlns="http://www.w3.org/2000/svg">
<path fill-rule="evenodd" clip-rule="evenodd" d="M13.1637 0.470996C13.8195 -0.16392 14.8643 -0.155929 15.5102 0.488943C16.1703 1.14794 16.1621 2.21889 15.492 2.86772L14.8789 3.46133L12.5138 1.10023L13.1637 0.470996ZM2.95089 14.191L13.3946 3.76448C13.5639 3.59545 13.8384 3.59545 14.0077 3.76448C14.1771 3.93351 14.1771 4.20757 14.0077 4.3766L3.18493 15.1816L0.815711 15.9674C0.331869 16.1279 -0.128121 15.6686 0.0326711 15.1856L0.819976 12.8205L11.6428 2.01557C11.8121 1.84654 12.0866 1.84654 12.2559 2.01557C12.4252 2.1846 12.4252 2.45865 12.2559 2.62769L1.8122 13.0542L2.95089 14.191Z" fill="currentColor"/>
</svg>
