<svg width="28" height="28" viewBox="0 0 28 28" fill="none" xmlns="http://www.w3.org/2000/svg">
<path d="M6.10368 0.793237C5.64197 0.755737 5.12868 0.889331 4.65525 1.22214C4.23806 1.51277 3.33806 2.22761 2.49665 3.03621C2.07712 3.43933 1.67634 3.85886 1.36697 4.27136C1.05525 4.68386 0.783372 5.06121 0.799778 5.60964C0.816185 6.10183 0.865404 7.5573 1.91306 9.78855C2.96072 12.0175 4.99275 15.076 8.95603 19.0417C12.9217 23.0073 15.9802 25.0393 18.2092 26.087C20.4381 27.1346 21.8959 27.1839 22.3881 27.2003C22.9342 27.2167 23.3115 26.9448 23.724 26.6331C24.1365 26.3214 24.556 25.9229 24.9592 25.5034C25.7654 24.662 26.4802 23.762 26.7709 23.3448C27.4342 22.4003 27.324 21.2846 26.5857 20.7667C26.1217 20.4409 21.8537 17.6003 21.2115 17.2065C20.5599 16.8081 19.8099 16.9885 19.1396 17.3425C18.6123 17.6214 17.1849 18.4393 16.7771 18.6737C16.4701 18.4792 15.3052 17.7034 12.7998 15.1979C10.292 12.6925 9.51853 11.5276 9.324 11.2206C9.55837 10.8128 10.374 9.39246 10.6552 8.85574C11.0068 8.18777 11.2037 7.43074 10.7842 6.77449C10.6084 6.49558 9.80915 5.27918 9.0029 4.05808C8.19431 2.83699 7.4279 1.67917 7.22868 1.40261V1.40027C6.96853 1.04167 6.56306 0.830737 6.10368 0.793237ZM5.99353 2.01902C6.15759 2.04011 6.25603 2.10574 6.25603 2.10574C6.35212 2.23933 7.19353 3.50027 7.99978 4.71902C8.80603 5.94011 9.62868 7.19167 9.77165 7.41902C9.79509 7.45417 9.8279 7.85261 9.59353 8.29558V8.29792C9.32868 8.80183 8.09353 10.9604 8.09353 10.9604L7.92243 11.2628L8.09822 11.5628C8.09822 11.5628 9.01931 13.1167 11.949 16.0464C14.881 18.976 16.4349 19.8995 16.4349 19.8995L16.7349 20.0753L17.0373 19.9042C17.0373 19.9042 19.1912 18.6714 19.6998 18.4042C20.1427 18.1721 20.5412 18.2026 20.5881 18.2307C21.0029 18.4862 25.6131 21.5495 25.8967 21.7487C25.906 21.7557 26.1568 22.1354 25.7912 22.6557H25.7888C25.5685 22.9721 24.8467 23.8885 24.0943 24.6714C23.717 25.0628 23.3302 25.4284 23.0021 25.6745C22.674 25.9206 22.381 25.9979 22.4279 26.0003C21.917 25.9839 20.7896 25.9721 18.7201 24.9995C16.6506 24.0292 13.6974 22.0862 9.80447 18.1909C5.91384 14.3003 3.97087 11.3471 2.99822 9.27527C2.0279 7.20574 2.01618 6.07839 1.99978 5.5698C2.00212 5.61667 2.07947 5.32136 2.32556 4.99324C2.57165 4.66511 2.93493 4.27605 3.32634 3.89871C4.1115 3.14636 5.02556 2.42449 5.34197 2.20418V2.20652C5.60212 2.02371 5.82947 2.00027 5.99353 2.01902Z" fill="#455067"/>
</svg>
