<svg viewBox="0 0 28 24" fill="none" xmlns="http://www.w3.org/2000/svg">
<path d="M0.799526 0C0.640401 1.59101e-05 0.487798 0.0632351 0.375279 0.175754C0.262761 0.288272 0.199542 0.440875 0.199526 0.6V10.0934C0.183491 10.1722 0.183491 10.2535 0.199526 10.3324V17.4C0.199542 17.5591 0.262761 17.7117 0.375279 17.8242C0.487798 17.9368 0.640401 18 0.799526 18H21.1995C21.3587 18 21.5113 17.9368 21.6238 17.8242C21.7363 17.7117 21.7995 17.5591 21.7995 17.4V12.7055C21.8104 12.6403 21.8104 12.5738 21.7995 12.5086V0.6C21.7995 0.440875 21.7363 0.288272 21.6238 0.175754C21.5113 0.0632351 21.3587 1.59101e-05 21.1995 0H0.799526ZM1.39953 1.2H20.5995V11.1516L17.4237 7.97578C17.3669 7.91894 17.2993 7.87409 17.2248 7.84389C17.1503 7.81369 17.0705 7.79877 16.9902 7.8C16.8343 7.80249 16.6855 7.86553 16.5753 7.97578L14.0183 10.5328L7.84132 3.79453C7.78719 3.73542 7.72176 3.68775 7.6489 3.65433C7.57604 3.62092 7.49722 3.60245 7.4171 3.6C7.26199 3.5956 7.11121 3.65146 6.9964 3.75586L1.39953 8.84414V1.2ZM16.9995 3C16.6813 3 16.376 3.12643 16.151 3.35147C15.926 3.57652 15.7995 3.88174 15.7995 4.2C15.7995 4.51826 15.926 4.82348 16.151 5.04853C16.376 5.27357 16.6813 5.4 16.9995 5.4C17.3178 5.4 17.623 5.27357 17.8481 5.04853C18.0731 4.82348 18.1995 4.51826 18.1995 4.2C18.1995 3.88174 18.0731 3.57652 17.8481 3.35147C17.623 3.12643 17.3178 3 16.9995 3ZM22.9995 3V4.2H23.5995V19.8H4.39953V19.2H3.19953V20.4C3.19954 20.5591 3.26276 20.7117 3.37528 20.8242C3.4878 20.9368 3.6404 21 3.79953 21H24.1995C24.3587 21 24.5113 20.9368 24.6238 20.8242C24.7363 20.7117 24.7995 20.5591 24.7995 20.4V3.6C24.7995 3.44088 24.7363 3.28827 24.6238 3.17575C24.5113 3.06324 24.3587 3.00002 24.1995 3H22.9995ZM7.36085 5.04609L13.1698 11.3813L11.7753 12.7758C11.7177 12.8311 11.6717 12.8973 11.6401 12.9706C11.6084 13.0438 11.5917 13.1227 11.5909 13.2025C11.59 13.2824 11.6052 13.3615 11.6353 13.4354C11.6655 13.5094 11.7101 13.5765 11.7666 13.6329C11.823 13.6894 11.8902 13.734 11.9641 13.7642C12.038 13.7944 12.1172 13.8095 12.197 13.8087C12.2768 13.8079 12.3557 13.7911 12.429 13.7594C12.5022 13.7278 12.5685 13.6818 12.6237 13.6242L14.3101 11.9379C14.4045 11.8844 14.4827 11.8062 14.5362 11.7117L16.9995 9.24844L20.5995 12.8484V16.8H1.39953V10.4648L7.36085 5.04609ZM25.9995 6V7.2H26.5995V22.8H7.39953V22.2H6.19953V23.4C6.19954 23.5591 6.26276 23.7117 6.37528 23.8242C6.4878 23.9368 6.6404 24 6.79953 24H27.1995C27.3587 24 27.5113 23.9368 27.6238 23.8242C27.7363 23.7117 27.7995 23.5591 27.7995 23.4V6.6C27.7995 6.44088 27.7363 6.28827 27.6238 6.17575C27.5113 6.06324 27.3587 6.00002 27.1995 6H25.9995Z" fill="currentColor"/>
</svg>
