<svg  viewBox="0 0 26 26" fill="none" xmlns="http://www.w3.org/2000/svg">
<path d="M13.0001 0.120117C5.89995 0.120117 0.120117 5.89995 0.120117 13.0001C0.120117 20.1003 5.89995 25.8801 13.0001 25.8801C20.1003 25.8801 25.8801 20.1003 25.8801 13.0001C25.8822 12.8517 25.8548 12.7044 25.7994 12.5666C25.7441 12.4289 25.6619 12.3036 25.5577 12.1979C25.4535 12.0922 25.3293 12.0082 25.1924 11.951C25.0555 11.8937 24.9085 11.8642 24.7601 11.8642C24.6117 11.8642 24.4647 11.8937 24.3278 11.951C24.1909 12.0082 24.0667 12.0922 23.9625 12.1979C23.8583 12.3036 23.7761 12.4289 23.7208 12.5666C23.6654 12.7044 23.638 12.8517 23.6401 13.0001C23.6401 18.8897 18.8897 23.6401 13.0001 23.6401C7.11053 23.6401 2.36012 18.8897 2.36012 13.0001C2.36012 7.11053 7.11053 2.36012 13.0001 2.36012C16.0666 2.36012 18.8196 3.65261 20.7592 5.72012H18.6001C18.4517 5.71802 18.3044 5.74544 18.1666 5.80078C18.0289 5.85612 17.9036 5.93829 17.7979 6.0425C17.6922 6.14671 17.6082 6.27088 17.5509 6.40781C17.4937 6.54474 17.4642 6.69169 17.4642 6.84012C17.4642 6.98855 17.4937 7.13549 17.5509 7.27242C17.6082 7.40935 17.6922 7.53353 17.7979 7.63774C17.9036 7.74195 18.0289 7.82411 18.1666 7.87945C18.3044 7.9348 18.4517 7.96222 18.6001 7.96012H24.7601V1.80012C24.7622 1.65037 24.7342 1.50173 24.6778 1.36299C24.6214 1.22425 24.5377 1.09823 24.4318 0.992377C24.3258 0.886528 24.1997 0.803001 24.0609 0.746736C23.9221 0.690472 23.7735 0.662612 23.6237 0.664805C23.3269 0.669155 23.0439 0.791176 22.8369 1.00406C22.63 1.21694 22.5161 1.50326 22.5201 1.80012V4.33434C20.1628 1.74787 16.7676 0.120117 13.0001 0.120117Z" fill="currentColor"/>
</svg>
