<svg  viewBox="0 0 23 20" fill="none" xmlns="http://www.w3.org/2000/svg">
<g >
<path fill-rule="evenodd" clip-rule="evenodd" d="M4.87493 0.150008C5.06645 0.347218 5.0633 0.663778 4.86791 0.857078L1.92083 3.77258H15.0892C17.6869 3.77258 19.6756 4.71116 21.0126 6.15408C22.3428 7.5897 23 9.4942 23 11.3863C23 13.2783 22.3428 15.1828 21.0126 16.6185C19.6756 18.0614 17.6869 19 15.0892 19H6.9996C6.72601 19 6.50422 18.7761 6.50422 18.5C6.50422 18.2239 6.72601 18 6.9996 18H15.0892C17.4351 18 19.1541 17.1602 20.289 15.9354C21.4305 14.7034 22.0092 13.0511 22.0092 11.3863C22.0092 9.7215 21.4305 8.0691 20.289 6.83714C19.1541 5.61242 17.4351 4.77258 15.0892 4.77258H1.92081L4.86792 7.6881C5.0633 7.8814 5.06644 8.198 4.87493 8.3952C4.68342 8.5924 4.36977 8.5956 4.17438 8.4023L0 4.27257L4.17439 0.142918C4.36978 -0.0503723 4.68342 -0.0472022 4.87493 0.150008Z" fill="currentColor"/>
<path d="M2.99945 18.5C2.99945 17.9477 2.55173 17.5 1.99945 17.5C1.44716 17.5 0.999449 17.9477 0.999449 18.5C0.999449 19.0523 1.44716 19.5 1.99945 19.5C2.55173 19.5 2.99945 19.0523 2.99945 18.5Z" fill="currentColor"/>
</g>
</svg>
