<svg viewBox="0 0 20 20" fill="none" xmlns="http://www.w3.org/2000/svg">
<path d="M11.9073 0.805474C11.7977 0.813773 11.6893 0.84258 11.587 0.893755L10.0003 1.65079L8.38542 0.879693L8.36276 0.872662C8.00026 0.751826 7.50245 0.82797 7.23776 1.22501L6.20261 2.61641L4.40417 2.65313L4.37683 2.65782C4.01289 2.71847 3.60474 2.99054 3.53698 3.46485L3.53776 3.45626L3.24948 5.19063L1.62448 6.07657L1.59792 6.09766C1.28479 6.34817 1.08774 6.76634 1.23308 7.20235L1.23386 7.20469L1.81276 8.87032L0.877606 10.3453C0.623936 10.7258 0.696939 11.2443 1.00651 11.5539L1.00808 11.5563L2.27917 12.7906L2.13386 14.5688L2.13698 14.5453C2.06703 15.035 2.39866 15.4341 2.79792 15.5672L2.80729 15.5703L4.51667 16.0438L5.20808 17.682L5.21354 17.693C5.41824 18.1024 5.8522 18.2906 6.26433 18.2219L6.27136 18.2211L8.01823 17.857L9.40964 18.9922L9.42526 19.0023C9.59485 19.1154 9.79417 19.1875 10.0003 19.1875C10.2064 19.1875 10.4227 19.1252 10.594 18.9539L10.5651 18.9805L11.9417 17.857L13.6815 18.2195L13.6542 18.2125C14.1216 18.3461 14.5655 18.0562 14.7471 17.693L14.7526 17.682L15.444 16.0438L17.1534 15.5703L17.1628 15.5672C17.562 15.4341 17.8937 15.035 17.8237 14.5453L17.826 14.5688L17.6815 12.7906L18.9503 11.5578L18.9221 11.5828C19.2992 11.2812 19.3684 10.7398 19.0628 10.3578L19.0878 10.3922L18.1448 8.90626L18.6909 7.2336L18.6924 7.22657C18.8099 6.81538 18.6782 6.30616 18.2534 6.09376L16.7518 5.23516L16.4628 3.4961L16.4635 3.50547C16.4016 3.07207 16.0249 2.69297 15.5604 2.69297H15.576L13.801 2.62032L12.7628 1.22501C12.6359 1.03475 12.4441 0.900776 12.2331 0.839849C12.1276 0.809386 12.0169 0.797175 11.9073 0.805474ZM11.9831 1.56876C12.0293 1.55959 12.0685 1.58007 12.1182 1.65469L12.1237 1.66329L13.3995 3.37969L15.5526 3.46719H15.5604C15.6559 3.46719 15.6791 3.48825 15.6971 3.61485V3.61954L16.0487 5.72501L17.8971 6.78204L17.9073 6.78672C17.9623 6.81423 17.9898 6.86485 17.9479 7.01251V7.01329L17.2956 9.01329L18.4448 10.8258L18.4581 10.8422C18.4725 10.8602 18.4615 10.959 18.4385 10.9773L18.4237 10.9891L18.4104 11.0023L16.8792 12.4891L17.055 14.643L17.0565 14.6547C17.0665 14.7247 16.9985 14.8047 16.9182 14.832L14.876 15.3969L14.0526 17.3477C13.9947 17.4631 13.9588 17.4935 13.8667 17.4672L13.8534 17.4633L11.7385 17.0234L10.0604 18.3922L10.0464 18.4063C10.0577 18.3949 10.0342 18.4125 10.0003 18.4125C9.96797 18.4125 9.92639 18.4014 9.86198 18.3602L8.22214 17.0234L6.1362 17.4578C6.0688 17.4691 5.94437 17.4175 5.90808 17.3477L5.08386 15.3969L3.04167 14.8313C2.96173 14.8037 2.89341 14.7245 2.90339 14.6547L2.90573 14.643L3.08151 12.4891L1.55417 11.0063C1.46374 10.9158 1.45659 10.8745 1.52292 10.775L1.52526 10.7711L2.66745 8.96954L1.96745 6.95782V6.95704C1.95363 6.91431 1.99801 6.78333 2.07839 6.71172L3.95104 5.68985L4.30339 3.57891V3.57501C4.31528 3.49176 4.3884 3.44693 4.4987 3.42657L6.59792 3.3836L7.87682 1.66329L7.88229 1.65469C7.93651 1.57337 7.99972 1.57188 8.11276 1.6086L10.0003 2.50938L11.9299 1.58829L11.9339 1.58672C11.9515 1.5779 11.9677 1.57181 11.9831 1.56876ZM7.80026 5.60001C7.16026 5.60001 6.67995 5.96016 6.47995 6.56016C6.39995 6.80016 6.40026 6.92001 6.40026 7.80001C6.40026 8.68001 6.43995 8.83985 6.47995 9.03985C6.67995 9.59985 7.16026 10 7.80026 10C8.44026 10 8.92058 9.63985 9.12057 9.03985C9.20057 8.79985 9.20026 8.68001 9.20026 7.80001C9.20026 6.92001 9.16057 6.76016 9.12057 6.56016C8.92058 6.00016 8.44026 5.60001 7.80026 5.60001ZM12.1604 5.60001C12.0404 5.60001 12.0004 5.64032 11.9604 5.72032L7.24011 14.2797C7.20011 14.3197 7.24057 14.4 7.32058 14.4H7.87995C7.95995 14.4 8.00011 14.3597 8.04011 14.2797L12.8003 5.72032C12.8003 5.68032 12.8006 5.60001 12.7206 5.60001H12.1604ZM7.80026 6.43985C8.08026 6.43985 8.28042 6.59985 8.36042 6.83985C8.40042 6.95985 8.40026 7.07985 8.40026 7.83985C8.40026 8.55985 8.36042 8.68001 8.36042 8.80001C8.28042 9.08001 8.08026 9.20001 7.80026 9.20001C7.52026 9.20001 7.32011 9.04001 7.24011 8.80001C7.20011 8.68001 7.20026 8.55985 7.20026 7.83985C7.20026 7.07985 7.24011 6.95985 7.24011 6.83985C7.32011 6.55985 7.52026 6.43985 7.80026 6.43985ZM12.2003 10C11.5603 10 11.08 10.3602 10.88 10.9602C10.7999 11.2002 10.8003 11.32 10.8003 12.2C10.8003 13.08 10.84 13.2398 10.88 13.4398C11.08 13.9998 11.5603 14.4 12.2003 14.4C12.8403 14.4 13.3206 14.0398 13.5206 13.4398C13.6006 13.1998 13.6003 13.08 13.6003 12.2C13.6003 11.32 13.5606 11.1602 13.5206 10.9602C13.3206 10.4002 12.8403 10 12.2003 10ZM12.2003 10.8398C12.4803 10.8398 12.6804 10.9998 12.7604 11.2398C12.8004 11.3598 12.8003 11.4798 12.8003 12.2398C12.8003 12.9598 12.7604 13.08 12.7604 13.2C12.6804 13.48 12.4803 13.6 12.2003 13.6C11.9203 13.6 11.7201 13.44 11.6401 13.2C11.6001 13.08 11.6003 12.9598 11.6003 12.2398C11.6003 11.4798 11.6401 11.3598 11.6401 11.2398C11.7201 10.9598 11.9203 10.8398 12.2003 10.8398Z" fill="currentColor"/>
</svg>
