<svg viewBox="0 0 24 24" fill="none" xmlns="http://www.w3.org/2000/svg">
<path fill-rule="evenodd" clip-rule="evenodd" d="M9.11671 0C14.1517 0 18.2334 4.13726 18.2334 9.24083C18.2334 11.2925 17.5737 13.1881 16.4577 14.7214L24 22.3664L22.3884 24L14.8864 16.3959C13.3148 17.6995 11.3059 18.4817 9.11671 18.4817C4.08169 18.4817 0 14.3444 0 9.24083C0 4.13726 4.08169 0 9.11671 0ZM9.11671 17.3728C13.5475 17.3728 17.1394 13.732 17.1394 9.24083C17.1394 4.74969 13.5475 1.1089 9.11671 1.1089C4.68589 1.1089 1.09401 4.74969 1.09401 9.24083C1.09401 13.732 4.68589 17.3728 9.11671 17.3728Z" fill="currentColor"/>
</svg>
