<svg  viewBox="0 0 22 21" fill="none" xmlns="http://www.w3.org/2000/svg">
<path d="M3.07988 0.759766C1.8668 0.759766 0.879883 1.74669 0.879883 2.95977V13.5198C0.879883 14.7328 1.8668 15.7198 3.07988 15.7198H4.90176C5.05092 16.9936 4.67503 17.8575 3.73387 18.4225C3.56447 18.5241 3.48341 18.727 3.53621 18.9175C3.58857 19.108 3.76188 19.2398 3.95988 19.2398C5.08628 19.2398 7.79122 18.89 9.10066 15.7198H11.4975C11.464 15.4927 11.4399 15.2606 11.4399 15.0159C11.4399 14.9565 11.4463 14.8983 11.4493 14.8398H8.79988C8.61552 14.8398 8.45032 14.9547 8.38652 15.1277C7.66448 17.0971 6.34422 17.8801 5.2627 18.181C5.78234 17.4115 5.93345 16.4142 5.71301 15.2007C5.67473 14.9917 5.4924 14.8398 5.27988 14.8398H3.07988C2.35212 14.8398 1.75988 14.2475 1.75988 13.5198V2.95977C1.75988 2.23201 2.35212 1.63977 3.07988 1.63977H18.9199C19.6476 1.63977 20.2399 2.23201 20.2399 2.95977V11.483C20.5532 11.5785 20.8475 11.7171 21.1199 11.8861V2.95977C21.1199 1.74669 20.133 0.759766 18.9199 0.759766H3.07988ZM15.1799 12.1998C13.5959 12.1998 12.3199 13.4759 12.3199 15.0159C12.3199 17.4359 14.5195 18.8881 15.9275 19.8121C16.3235 20.0761 16.6322 20.2521 16.8522 20.4721L17.1161 20.6921L17.3799 20.4721C17.5999 20.2961 17.9517 20.0761 18.3037 19.8121C19.7997 18.8441 21.9999 17.4359 21.9999 15.0159C21.9999 13.4759 20.7239 12.1998 19.1399 12.1998C18.3919 12.1998 17.6879 12.5081 17.1599 12.9921C16.6319 12.5081 15.9279 12.1998 15.1799 12.1998ZM15.1799 13.0798C15.8399 13.0798 16.4115 13.3878 16.8075 13.9598L17.1599 14.4874L17.5122 13.9598C17.8642 13.4318 18.4799 13.0798 19.1399 13.0798C20.2399 13.0798 21.1199 13.9599 21.1199 15.0159C21.1199 16.9519 19.2715 18.1836 17.9075 19.0636C17.5995 19.2396 17.3799 19.4154 17.1599 19.5474C16.9399 19.3714 16.7202 19.2396 16.4122 19.0636C15.0482 18.1836 13.1999 16.9519 13.1999 15.0159C13.1999 13.9599 14.0799 13.0798 15.1799 13.0798Z" fill="currentColor"/>
</svg>
