<svg width="18" height="18" viewBox="0 0 18 18" fill="none" xmlns="http://www.w3.org/2000/svg">
<path d="M14.8659 0.200195C14.0879 0.200195 13.3418 0.509242 12.7917 1.05935C12.2416 1.60946 11.9326 2.35556 11.9326 3.13353C11.9339 3.33972 11.9569 3.54519 12.0013 3.74655L5.34115 7.07663C5.06645 6.76038 4.72721 6.50663 4.34625 6.33245C3.96529 6.15828 3.55144 6.06772 3.13255 6.06686C2.35458 6.06686 1.60848 6.37591 1.05837 6.92601C0.508265 7.47612 0.199219 8.22223 0.199219 9.00019C0.199219 9.77816 0.508265 10.5243 1.05837 11.0744C1.60848 11.6245 2.35458 11.9335 3.13255 11.9335C3.55157 11.9331 3.96563 11.8428 4.34685 11.6689C4.72807 11.495 5.0676 11.2414 5.34258 10.9252L11.9984 14.2538C11.955 14.4553 11.9329 14.6608 11.9326 14.8669C11.9326 15.6448 12.2416 16.3909 12.7917 16.941C13.3418 17.4911 14.0879 17.8002 14.8659 17.8002C15.6439 17.8002 16.39 17.4911 16.9401 16.941C17.4902 16.3909 17.7992 15.6448 17.7992 14.8669C17.7992 14.0889 17.4902 13.3428 16.9401 12.7927C16.39 12.2426 15.6439 11.9335 14.8659 11.9335C14.4469 11.934 14.0328 12.0242 13.6516 12.1982C13.2704 12.3721 12.9308 12.6257 12.6559 12.9419L6 9.61322C6.04344 9.41176 6.06552 9.20628 6.06589 9.00019C6.06448 8.79449 6.04143 8.58949 5.99714 8.38861L12.6573 5.05853C12.9321 5.37452 13.2714 5.628 13.6524 5.80192C14.0333 5.97585 14.4471 6.06619 14.8659 6.06686C15.6439 6.06686 16.39 5.75781 16.9401 5.20771C17.4902 4.6576 17.7992 3.9115 17.7992 3.13353C17.7992 2.35556 17.4902 1.60946 16.9401 1.05935C16.39 0.509242 15.6439 0.200195 14.8659 0.200195Z" fill="white"/>
</svg>
