<svg width="12" height="19" viewBox="0 0 12 19" fill="none" xmlns="http://www.w3.org/2000/svg">
<path d="M2 0C0.900156 0 0 0.929509 0 2.06522V16.9348C0 18.0705 0.900156 19 2 19H10C11.0998 19 12 18.0705 12 16.9348V2.06522C12 0.929509 11.0998 0 10 0H2ZM2.88672 0.826087H9.11328C9.01859 0.99437 8.94812 1.17959 8.91562 1.38031L8.79453 2.13298C8.79453 2.13331 8.79453 2.13347 8.79453 2.13379C8.76219 2.33547 8.59844 2.47826 8.4 2.47826H3.6C3.40156 2.47826 3.23812 2.33499 3.20547 2.13298L3.08359 1.38111V1.38031C3.05109 1.17943 2.98125 0.994209 2.88672 0.826087ZM1.73125 0.859163C1.73641 0.861099 1.74156 0.863035 1.74687 0.86481C2.02656 0.956615 2.24375 1.20186 2.29453 1.51664L2.41641 2.26932C2.5125 2.86371 3.01609 3.30435 3.6 3.30435H8.4C8.98375 3.30435 9.48766 2.86371 9.58359 2.26932V2.26851L9.70469 1.51664C9.75688 1.19476 9.98375 0.946289 10.2719 0.859969C10.8058 0.986141 11.2 1.47324 11.2 2.06522V16.9348C11.2 17.6239 10.6673 18.1739 10 18.1739H2C1.33266 18.1739 0.8 17.6239 0.8 16.9348V2.06522C0.8 1.47195 1.19578 0.984205 1.73125 0.859163ZM4.8 1.23913C4.65578 1.23703 4.52156 1.31529 4.44891 1.44388C4.37609 1.57263 4.37609 1.73172 4.44891 1.86047C4.52156 1.98906 4.65578 2.06731 4.8 2.06522H6C6.14422 2.06731 6.27844 1.98906 6.35109 1.86047C6.42391 1.73172 6.42391 1.57263 6.35109 1.44388C6.27844 1.31529 6.14422 1.23703 6 1.23913H4.8ZM7.2 1.23913C6.97906 1.23913 6.8 1.42403 6.8 1.65217C6.8 1.88032 6.97906 2.06522 7.2 2.06522C7.42094 2.06522 7.6 1.88032 7.6 1.65217C7.6 1.42403 7.42094 1.23913 7.2 1.23913Z" fill="#455067"/>
</svg>
