<svg  viewBox="0 0 26 20" fill="none" xmlns="http://www.w3.org/2000/svg">
<path d="M0.941591 0.640195C0.366747 0.666601 -0.0760652 1.1541 -0.0496591 1.72895C-0.0232529 2.30379 0.464247 2.7466 1.03909 2.7202H12.9991C13.3749 2.72629 13.7222 2.52926 13.9111 2.20426C14.1021 1.88129 14.1021 1.4791 13.9111 1.15613C13.7222 0.831133 13.3749 0.634101 12.9991 0.640195H1.03909C1.00659 0.638164 0.974091 0.638164 0.941591 0.640195ZM20.6853 1.14395C20.1491 1.20285 19.7469 1.66191 19.7591 2.2002V15.0377L17.4353 12.7139C17.2403 12.5088 16.9702 12.391 16.6878 12.3889C16.2633 12.3849 15.8774 12.6408 15.7169 13.0349C15.5564 13.4289 15.6519 13.8799 15.9566 14.1764L20.7991 19.0189L25.6416 14.1764C25.9117 13.9144 26.0194 13.5264 25.9219 13.1629C25.8244 12.7993 25.538 12.5169 25.1744 12.4235C24.8088 12.33 24.4228 12.4418 24.1628 12.7139L21.8391 15.0377V2.2002C21.8432 1.91785 21.7335 1.6477 21.5344 1.44863C21.3353 1.24957 21.0652 1.13988 20.7828 1.14395C20.7503 1.14191 20.7178 1.14191 20.6853 1.14395ZM0.941591 4.8002C0.366747 4.8266 -0.0760652 5.3141 -0.0496591 5.88895C-0.0232529 6.46379 0.464247 6.9066 1.03909 6.8802H9.35909C9.73487 6.88629 10.0822 6.68926 10.2711 6.36426C10.4621 6.04129 10.4621 5.6391 10.2711 5.31613C10.0822 4.99113 9.73487 4.7941 9.35909 4.8002H1.03909C1.00659 4.79816 0.974091 4.79816 0.941591 4.8002ZM0.941591 8.9602C0.366747 8.9866 -0.0760652 9.4741 -0.0496591 10.0489C-0.0232529 10.6238 0.464247 11.0666 1.03909 11.0402H7.27909C7.65487 11.0463 8.00222 10.8493 8.19112 10.5243C8.38206 10.2013 8.38206 9.7991 8.19112 9.47613C8.00222 9.15113 7.65487 8.9541 7.27909 8.9602H1.03909C1.00659 8.95817 0.974091 8.95817 0.941591 8.9602ZM0.941591 13.1202C0.366747 13.1466 -0.0760652 13.6341 -0.0496591 14.2089C-0.0232529 14.7838 0.464247 15.2266 1.03909 15.2002H5.19909C5.57487 15.2063 5.92222 15.0093 6.11112 14.6843C6.30206 14.3613 6.30206 13.9591 6.11112 13.6361C5.92222 13.3111 5.57487 13.1141 5.19909 13.1202H1.03909C1.00659 13.1182 0.974091 13.1182 0.941591 13.1202ZM0.941591 17.2802C0.366747 17.3066 -0.0760652 17.7941 -0.0496591 18.3689C-0.0232529 18.9438 0.464247 19.3866 1.03909 19.3602H3.11909C3.49487 19.3663 3.84222 19.1693 4.03112 18.8443C4.22206 18.5213 4.22206 18.1191 4.03112 17.7961C3.84222 17.4711 3.49487 17.2741 3.11909 17.2802H1.03909C1.00659 17.2782 0.974091 17.2782 0.941591 17.2802Z" fill="currentColor"/>
</svg>
