<svg viewBox="0 0 18 18" fill="none" xmlns="http://www.w3.org/2000/svg">
<path  d="M17.4598 5.76286C17.8393 6.23338 18.0213 6.73777 17.998 7.25722C17.9748 7.82936 17.7115 8.27729 17.4946 8.55207C17.7463 9.16186 17.8431 10.1217 17.0029 10.867C16.3872 11.4128 15.3417 11.6575 13.8935 11.5897C12.8751 11.5445 12.0232 11.3601 11.9884 11.3526H11.9845C11.7909 11.3187 11.5856 11.2773 11.3765 11.2321C11.3611 11.473 11.4037 12.0715 11.8606 13.4191C12.4027 15.0226 12.3717 16.2497 11.7599 17.0703C11.1171 17.9322 10.091 18 9.78894 18C9.49853 18 9.23135 17.8833 9.04161 17.6688C8.61179 17.1832 8.66213 16.2873 8.71634 15.8733C8.20521 14.5408 6.77249 11.2735 5.56049 10.3664C5.53726 10.3513 5.5179 10.3325 5.49854 10.3137C5.14229 9.94856 4.90222 9.55332 4.73958 9.20703C4.51112 9.32748 4.25169 9.39523 3.97289 9.39523H1.61084C0.720231 9.39523 0 8.69134 0 7.82936V1.71267C0 0.846926 0.724103 0.146801 1.61084 0.146801H3.97289C4.31751 0.146801 4.63891 0.252195 4.90222 0.432873L5.81218 0.327478C5.95158 0.308659 8.4298 0.00376511 10.9738 0.0526981C11.4346 0.0188217 11.8683 0 12.271 0C12.9642 0 13.5682 0.0526981 14.0716 0.158094C15.2565 0.402761 16.0658 0.892096 16.4762 1.61104C16.7899 2.1606 16.7899 2.7064 16.7396 3.0527C17.5101 3.73024 17.6457 4.4793 17.6185 5.00627C17.6031 5.31117 17.5334 5.57089 17.4598 5.76286ZM1.61084 1.16311C1.29719 1.16311 1.0455 1.41154 1.0455 1.71267V7.83312C1.0455 8.13802 1.30106 8.38269 1.61084 8.38269H3.97289C4.28653 8.38269 4.53823 8.13425 4.53823 7.83312V1.71644C4.53823 1.41154 4.28266 1.16688 3.97289 1.16688H1.61084V1.16311ZM16.4685 6.20326C16.3059 6.03764 16.2749 5.78545 16.3988 5.58971C16.3988 5.58595 16.5576 5.32246 16.5769 4.96111C16.604 4.46801 16.3601 4.03137 15.849 3.65872C15.667 3.52321 15.5934 3.28984 15.6708 3.07905C15.6708 3.07528 15.8373 2.57842 15.5663 2.1079C15.3068 1.65621 14.7299 1.3325 13.8548 1.15182C13.1539 1.00502 12.2013 0.978672 11.0319 1.06901C11.0164 1.06901 10.9971 1.06901 10.9777 1.06901C8.48788 1.01631 5.97095 1.3325 5.94384 1.33626H5.93997L5.54888 1.38143C5.57211 1.48683 5.58372 1.59975 5.58372 1.71267V7.83312C5.58372 7.99498 5.55662 8.15307 5.51015 8.29987C5.57985 8.55207 5.77346 9.11292 6.23038 9.59097C7.96901 10.931 9.6689 15.4517 9.74248 15.6474C9.77345 15.7265 9.7812 15.813 9.76571 15.8996C9.69988 16.3212 9.72311 16.8369 9.81605 16.9912C10.0213 16.9875 10.575 16.931 10.908 16.4831C11.303 15.9523 11.2875 15.0038 10.8615 13.7465C10.211 11.8306 10.1568 10.8218 10.6718 10.3777C10.9274 10.1556 11.2681 10.1443 11.5159 10.2309C11.7522 10.2836 11.9767 10.3287 12.1897 10.3626C12.2052 10.3664 12.2246 10.3701 12.2401 10.3739C13.4288 10.6261 15.5585 10.7804 16.2981 10.1255C16.9254 9.56838 16.4801 8.83062 16.4298 8.75157C16.2865 8.54078 16.3291 8.266 16.5227 8.09661C16.5266 8.09285 16.9332 7.7202 16.9525 7.21957C16.968 6.88457 16.8054 6.54203 16.4685 6.20326Z" fill="currentColor"/>
</svg>
