<svg viewBox="0 0 18 18" fill="none" xmlns="http://www.w3.org/2000/svg">
<path fill-rule="evenodd" clip-rule="evenodd" d="M17.998 10.7428C18.0213 11.2622 17.8393 11.7666 17.4598 12.2371C17.5334 12.4291 17.6031 12.6888 17.6185 12.9937C17.6457 13.5207 17.5101 14.2698 16.7396 14.9473C16.7899 15.2936 16.7899 15.8394 16.4762 16.389C16.0658 17.1079 15.2565 17.5972 14.0716 17.8419C13.5682 17.9473 12.9642 18 12.271 18C11.8683 18 11.4346 17.9812 10.9738 17.9473C8.4298 17.9962 5.95158 17.6913 5.81218 17.6725L4.90222 17.5671L4.73958 8.79297C4.90222 8.44668 5.14229 8.05144 5.49854 7.68632C5.5179 7.6675 5.53726 7.64868 5.56049 7.63363C6.77249 6.72647 8.20521 3.45922 8.71634 2.12673C8.66213 1.71267 8.61179 0.816813 9.04161 0.331242C9.23135 0.116688 9.49853 0 9.78894 0C10.091 0 11.1171 0.0677541 11.7599 0.929736C12.3717 1.75031 12.4027 2.97742 11.8606 4.58093C11.4037 5.92848 11.3611 6.52698 11.3765 6.76788C11.5856 6.72271 11.7909 6.6813 11.9845 6.64743H11.9884C12.0268 6.63912 12.8774 6.45536 13.8935 6.41029C15.3417 6.34253 16.3872 6.5872 17.0029 7.133C17.8431 7.87829 17.7463 8.83814 17.4946 9.44793C17.7115 9.72271 17.9748 10.1706 17.998 10.7428ZM3.97289 8.60477H1.61084C0.720231 8.60477 0 9.30866 0 10.1706V16.2873C0 17.1531 0.724103 17.8532 1.61084 17.8532H3.97289V8.60477Z" fill="currentColor"/>
</svg>
