<svg viewBox="0 0 18 18" fill="none" xmlns="http://www.w3.org/2000/svg">
<path
    d="M17.4598 12.2371C17.8393 11.7666 18.0213 11.2622 17.998 10.7428C17.9748 10.1706 17.7115 9.72271 17.4946 9.44793C17.7463 8.83814 17.8431 7.87829 17.0029 7.133C16.3872 6.5872 15.3417 6.34253 13.8935 6.41029C12.8751 6.45546 12.0232 6.6399 11.9884 6.64743H11.9845C11.7909 6.6813 11.5856 6.72271 11.3765 6.76788C11.3611 6.52698 11.4037 5.92848 11.8606 4.58093C12.4027 2.97742 12.3717 1.75031 11.7599 0.929736C11.1171 0.0677541 10.091 0 9.78894 0C9.49853 0 9.23135 0.116688 9.04161 0.331242C8.61179 0.816813 8.66213 1.71267 8.71634 2.12673C8.20521 3.45922 6.77249 6.72647 5.56049 7.63363C5.53726 7.64868 5.5179 7.6675 5.49854 7.68632C5.14229 8.05144 4.90222 8.44668 4.73958 8.79297C4.51112 8.67252 4.25169 8.60477 3.97289 8.60477H1.61084C0.720231 8.60477 0 9.30866 0 10.1706V16.2873C0 17.1531 0.724103 17.8532 1.61084 17.8532H3.97289C4.31751 17.8532 4.63891 17.7478 4.90222 17.5671L5.81218 17.6725C5.95158 17.6913 8.4298 17.9962 10.9738 17.9473C11.4346 17.9812 11.8683 18 12.271 18C12.9642 18 13.5682 17.9473 14.0716 17.8419C15.2565 17.5972 16.0658 17.1079 16.4762 16.389C16.7899 15.8394 16.7899 15.2936 16.7396 14.9473C17.5101 14.2698 17.6457 13.5207 17.6185 12.9937C17.6031 12.6888 17.5334 12.4291 17.4598 12.2371ZM1.61084 16.8369C1.29719 16.8369 1.0455 16.5885 1.0455 16.2873V10.1669C1.0455 9.86198 1.30106 9.61731 1.61084 9.61731H3.97289C4.28653 9.61731 4.53823 9.86575 4.53823 10.1669V16.2836C4.53823 16.5885 4.28266 16.8331 3.97289 16.8331H1.61084V16.8369ZM16.4685 11.7967C16.3059 11.9624 16.2749 12.2146 16.3988 12.4103C16.3988 12.4141 16.5576 12.6775 16.5769 13.0389C16.604 13.532 16.3601 13.9686 15.849 14.3413C15.667 14.4768 15.5934 14.7102 15.6708 14.921C15.6708 14.9247 15.8373 15.4216 15.5663 15.8921C15.3068 16.3438 14.7299 16.6675 13.8548 16.8482C13.1539 16.995 12.2013 17.0213 11.0319 16.931C11.0164 16.931 10.9971 16.931 10.9777 16.931C8.48788 16.9837 5.97095 16.6675 5.94384 16.6637H5.93997L5.54888 16.6186C5.57211 16.5132 5.58372 16.4002 5.58372 16.2873V10.1669C5.58372 10.005 5.55662 9.84693 5.51015 9.70013C5.57985 9.44793 5.77346 8.88708 6.23038 8.40903C7.96901 7.06901 9.6689 2.54831 9.74248 2.35257C9.77345 2.27353 9.7812 2.18695 9.76571 2.10038C9.69988 1.6788 9.72312 1.16311 9.81605 1.00878C10.0213 1.01255 10.575 1.06901 10.908 1.51694C11.303 2.04768 11.2875 2.99624 10.8615 4.25345C10.211 6.16938 10.1568 7.17817 10.6718 7.62233C10.9274 7.84442 11.2681 7.85571 11.5159 7.76913C11.7522 7.71644 11.9767 7.67127 12.1897 7.63739C12.2052 7.63363 12.2246 7.62986 12.2401 7.6261C13.4288 7.3739 15.5585 7.21957 16.2981 7.87453C16.9254 8.43162 16.4801 9.16938 16.4298 9.24843C16.2865 9.45922 16.3291 9.734 16.5227 9.90339C16.5266 9.90715 16.9332 10.2798 16.9525 10.7804C16.968 11.1154 16.8054 11.458 16.4685 11.7967Z"
    fill="currentColor"
  />
</svg>
