<svg viewBox="0 0 18 18" fill="none" xmlns="http://www.w3.org/2000/svg">
<path d="M17.4598 5.76286C17.8393 6.23338 18.0213 6.73777 17.998 7.25722C17.9748 7.82936 17.7115 8.27729 17.4946 8.55207C17.7463 9.16186 17.8431 10.1217 17.0029 10.867C16.3872 11.4128 15.3417 11.6575 13.8935 11.5897C12.8751 11.5445 11.9884 11.3526 11.9884 11.3526C11.7947 11.3187 11.5856 11.2773 11.3765 11.2321C11.3611 11.473 11.4037 12.0715 11.8606 13.4191C12.4027 15.0226 12.3717 16.2497 11.7599 17.0703C11.1171 17.9322 10.091 18 9.78894 18C9.49853 18 9.23135 17.8833 9.04161 17.6688C8.61179 17.1832 8.66213 16.2873 8.71634 15.8733C8.20521 14.5408 6.77249 11.2735 5.56049 10.3664C5.53726 10.3513 5.5179 10.3325 5.49854 10.3137C5.14229 9.94856 4.90222 9.55332 4.73958 9.20703L4.90222 0.432873L5.81218 0.327478C5.95158 0.308659 8.4298 0.00376511 10.9738 0.0526981C11.4346 0.0188217 11.8683 0 12.271 0C12.9642 0 13.5682 0.0527 14.0716 0.158094C15.2565 0.402761 16.0658 0.892096 16.4762 1.61104C16.7899 2.1606 16.7899 2.7064 16.7396 3.0527C17.5101 3.73024 17.6457 4.4793 17.6185 5.00627C17.6031 5.31117 17.5334 5.57089 17.4598 5.76286Z" fill="currentColor"/>
<path d="M3.97289 9.39523H1.61084C0.720231 9.39523 0 8.69134 0 7.82936V1.71267C0 0.846928 0.724103 0.146801 1.61084 0.146801H3.97289V9.39523Z" fill="currentColor"/>
</svg>
