<svg viewBox="0 0 18 18" fill="none" xmlns="http://www.w3.org/2000/svg">
<path fill-rule="evenodd" clip-rule="evenodd" d="M9.93803 5.48588C9.81508 5.60883 9.61574 5.60883 9.49279 5.48588L9.07937 5.07245C8.95642 4.94951 8.95642 4.75017 9.07937 4.62722C9.20231 4.50428 9.40165 4.50428 9.5246 4.62722L9.93802 5.04065C10.061 5.1636 10.061 5.36294 9.93803 5.48588ZM11.3691 6.91698C11.2462 7.03993 11.0468 7.03993 10.9239 6.91698L10.5105 6.50355C10.3875 6.38061 10.3875 6.18127 10.5105 6.05832C10.6334 5.93538 10.8327 5.93538 10.9557 6.05832L11.3691 6.47175C11.4921 6.5947 11.4921 6.79404 11.3691 6.91698ZM12.8002 8.34808C12.6773 8.47103 12.4779 8.47103 12.355 8.34808L11.9416 7.93465C11.8186 7.81171 11.8186 7.61237 11.9416 7.48942C12.0645 7.36647 12.2638 7.36647 12.3868 7.48942L12.8002 7.90285C12.9232 8.0258 12.9232 8.22513 12.8002 8.34808Z" fill="currentColor" />
<path fill-rule="evenodd" clip-rule="evenodd" d="M11.7984 0.540637C11.4999 0.242051 11.0158 0.242052 10.7172 0.540638L0.540471 10.7173C0.241885 11.0159 0.241885 11.5 0.540471 11.7986L1.17651 12.4347C1.48356 12.7417 1.93962 12.7065 2.23877 12.5077C2.98974 12.0087 4.01281 12.0907 4.67476 12.7527C5.3367 13.4146 5.4187 14.4377 4.91974 15.1887C4.72099 15.4878 4.68574 15.9439 4.99278 16.2509L5.62882 16.887C5.92741 17.1856 6.41151 17.1856 6.7101 16.887L16.8868 6.71026C17.1854 6.41168 17.1854 5.92758 16.8868 5.62899L16.2508 4.99295C15.9437 4.6859 15.4877 4.72115 15.1885 4.91991C14.4375 5.41886 13.4145 5.33686 12.7525 4.67492C12.0906 4.01298 12.0086 2.9899 12.5075 2.23893C12.7063 1.93979 12.7415 1.48372 12.4345 1.17668L11.7984 0.540637ZM11.3532 0.985868C11.3005 0.933177 11.2151 0.933177 11.1624 0.985868L8.50693 3.60955C8.62987 3.7325 8.62987 3.93184 8.50693 4.05478C8.38398 4.17773 8.18464 4.17773 8.0617 4.05478L0.985702 11.1626C0.933011 11.2153 0.933011 11.3007 0.985702 11.3534L1.62175 11.9894C1.66598 12.0337 1.77569 12.0594 1.89032 11.9832C2.88606 11.3217 4.24193 11.4294 5.11999 12.3075C5.99804 13.1855 6.10577 14.5414 5.44419 15.5371C5.36803 15.6518 5.39377 15.7615 5.43801 15.8057L6.07405 16.4417C6.12675 16.4944 6.21218 16.4944 6.26487 16.4417L13.3727 9.36575C13.2497 9.2428 13.2497 9.04347 13.3727 8.92052C13.4956 8.79757 13.6949 8.79757 13.8179 8.92052L16.4416 6.26503C16.4943 6.21234 16.4943 6.12691 16.4416 6.07422L15.8055 5.43818C15.7613 5.39394 15.6516 5.36819 15.537 5.44436C14.5412 6.10594 13.1853 5.99821 12.3073 5.12015C11.4292 4.2421 11.3215 2.88623 11.9831 1.89048C12.0592 1.77585 12.0335 1.66615 11.9893 1.62191L11.3532 0.985868Z" fill="currentColor" />
</svg>
