<svg width="22" height="22" viewBox="0 0 22 22" fill="none" xmlns="http://www.w3.org/2000/svg">
<path d="M13.5987 0.426243C13.5798 0.429681 13.5609 0.434837 13.5437 0.439993C13.3392 0.486399 13.1948 0.670306 13.2 0.879993V8.60749L11.7562 7.16374C11.6652 7.06577 11.5328 7.01593 11.3987 7.02624C11.3798 7.02968 11.3609 7.03484 11.3437 7.03999C11.1787 7.06921 11.0464 7.18952 11 7.34937C10.9536 7.51093 11.0017 7.68281 11.1237 7.79624L13.3237 9.99624L13.64 10.2987L13.9562 9.99624L16.1562 7.79624C16.3316 7.62093 16.3316 7.33906 16.1562 7.16374C15.9809 6.98843 15.6991 6.98843 15.5237 7.16374L14.08 8.60749V0.879993C14.0852 0.752806 14.0336 0.630774 13.9425 0.544837C13.8497 0.457181 13.7242 0.414212 13.5987 0.426243ZM0.75625 0.879993C0.7425 0.883431 0.72875 0.888587 0.715 0.893743C0.709844 0.893743 0.706406 0.892024 0.70125 0.893743C0.692656 0.897181 0.682344 0.902337 0.67375 0.907493C0.287031 1.00031 0 1.34577 0 1.75999C0 2.2464 0.393594 2.63999 0.88 2.63999C1.36641 2.63999 1.76 2.2464 1.76 1.75999H3.80875C4.35703 1.75999 4.64234 1.87343 4.85375 2.06249C5.06172 2.24984 5.23016 2.56609 5.37625 3.05249L8.89625 17.2562C9.02859 17.7598 9.16094 18.2789 9.52875 18.7C9.68172 18.8753 9.87422 19.018 10.1062 19.1262C9.84844 19.4322 9.68 19.812 9.68 20.24C9.68 21.2076 10.4723 22 11.44 22C12.4077 22 13.2 21.2076 13.2 20.24C13.2 19.9169 13.1055 19.6212 12.9525 19.36H15.6475C15.4945 19.6212 15.4 19.9169 15.4 20.24C15.4 21.2076 16.1923 22 17.16 22C18.1277 22 18.92 21.2076 18.92 20.24C18.92 19.788 18.7361 19.3841 18.4525 19.0712C18.5023 18.9372 18.4817 18.7859 18.4009 18.6691C18.3184 18.5505 18.1844 18.48 18.04 18.48H11.3162C10.6373 18.48 10.3606 18.3356 10.175 18.1225C9.99109 17.9111 9.87937 17.5416 9.74875 17.05V17.0362L9.44625 15.84H17.5175C17.7014 15.84 17.8681 15.7248 17.93 15.5512L21.0925 7.19124C21.1509 7.04343 21.1252 6.87671 21.0255 6.75468C20.9258 6.63265 20.7677 6.57249 20.6112 6.59999C20.4514 6.62577 20.3208 6.73577 20.2675 6.88874L17.215 14.96H9.24L6.22875 2.84624C6.22875 2.83765 6.22875 2.82734 6.22875 2.81874C6.06031 2.25156 5.84203 1.75999 5.445 1.40249C5.04797 1.04499 4.48937 0.879993 3.80875 0.879993H0.88C0.86625 0.879993 0.8525 0.879993 0.83875 0.879993C0.825 0.879993 0.81125 0.879993 0.7975 0.879993C0.78375 0.879993 0.77 0.879993 0.75625 0.879993ZM11.44 19.36C11.9316 19.36 12.32 19.7484 12.32 20.24C12.32 20.7316 11.9316 21.12 11.44 21.12C10.9484 21.12 10.56 20.7316 10.56 20.24C10.56 19.7484 10.9484 19.36 11.44 19.36ZM17.16 19.36C17.6516 19.36 18.04 19.7484 18.04 20.24C18.04 20.7316 17.6516 21.12 17.16 21.12C16.6684 21.12 16.28 20.7316 16.28 20.24C16.28 19.7484 16.6684 19.36 17.16 19.36Z" fill="white"/>
</svg>
