<svg width="18" height="15" viewBox="0 0 18 15" fill="none" xmlns="http://www.w3.org/2000/svg">
<path d="M0 0.879883V1.59988H10.1159C10.2599 1.59988 10.44 1.78002 10.44 1.92402V11.6799H6.80695C6.63405 10.6617 5.74574 9.87988 4.68 9.87988C3.99 9.87988 3.42668 10.1516 3.0607 10.5633C2.77779 10.8816 2.6122 11.2736 2.55023 11.6799H1.08C0.880364 11.6799 0.72 11.5195 0.72 11.3199V8.07988H0V11.3199C0 11.9122 0.487636 12.3999 1.08 12.3999H2.55023C2.6122 12.8062 2.77779 13.1982 3.0607 13.5164C3.42668 13.9282 3.99 14.1999 4.68 14.1999C5.74574 14.1999 6.63405 13.4181 6.80695 12.3999H11.16H12.2702C12.3322 12.8062 12.4978 13.1982 12.7807 13.5164C13.1467 13.9282 13.71 14.1999 14.4 14.1999C15.4657 14.1999 16.3541 13.4181 16.527 12.3999H16.92C17.22 12.3999 17.478 12.261 17.6695 12.0694C17.8611 11.8778 18 11.6199 18 11.3199V7.86402C18 7.4592 17.8495 7.09126 17.711 6.80934C17.5725 6.52741 17.4312 6.32559 17.4312 6.32559L17.4277 6.32137L15.9448 4.33152L15.9413 4.3273C15.6222 3.92845 15.1097 3.39988 14.4 3.39988H11.52C11.3909 3.39988 11.2716 3.42985 11.16 3.47441V1.92402C11.16 1.34802 10.6919 0.879883 10.1159 0.879883H0ZM0 2.31988V3.03988H6.48V2.31988H0ZM0 3.75988V4.47988H5.4V3.75988H0ZM11.52 4.11988H12.96V7.35988C12.96 7.65988 13.0989 7.91784 13.2905 8.10941C13.482 8.30098 13.74 8.43988 14.04 8.43988H17.28V11.3199C17.28 11.3799 17.2389 11.4819 17.1605 11.5604C17.082 11.6388 16.98 11.6799 16.92 11.6799H16.527C16.3541 10.6617 15.4657 9.87988 14.4 9.87988C13.71 9.87988 13.1467 10.1516 12.7807 10.5633C12.4978 10.8816 12.3322 11.2736 12.2702 11.6799H11.16V4.47988C11.16 4.41988 11.2011 4.31785 11.2795 4.23941C11.358 4.16098 11.46 4.11988 11.52 4.11988ZM13.68 4.11988H14.4C14.6983 4.11988 15.1218 4.45545 15.3788 4.7766L16.8413 6.73832C16.8413 6.73832 16.9513 6.89607 17.0648 7.12715C17.1561 7.31301 17.2086 7.52938 17.2378 7.71988H14.04C13.98 7.71988 13.878 7.67878 13.7995 7.60035C13.7211 7.52192 13.68 7.41988 13.68 7.35988V4.11988ZM0 5.19988V5.91988H4.32V5.19988H0ZM0 6.63988V7.35988H3.24V6.63988H0ZM4.68 10.5999C5.47956 10.5999 6.12 11.2403 6.12 12.0399C6.12 12.8394 5.47956 13.4799 4.68 13.4799C4.17 13.4799 3.83332 13.3016 3.5993 13.0383C3.36528 12.775 3.24 12.4099 3.24 12.0399C3.24 11.6699 3.36528 11.3047 3.5993 11.0414C3.83332 10.7782 4.17 10.5999 4.68 10.5999ZM14.4 10.5999C15.1996 10.5999 15.84 11.2403 15.84 12.0399C15.84 12.8394 15.1996 13.4799 14.4 13.4799C13.89 13.4799 13.5533 13.3016 13.3193 13.0383C13.0853 12.775 12.96 12.4099 12.96 12.0399C12.96 11.6699 13.0853 11.3047 13.3193 11.0414C13.5533 10.7782 13.89 10.5999 14.4 10.5999Z" fill="#455067"/>
</svg>
