<svg width="83" height="23" viewBox="0 0 83 23" fill="none" xmlns="http://www.w3.org/2000/svg">
<path d="M14.588 13.2039C14.5874 13.2038 7.23756 11.4807 7.23756 11.4807C5.04683 10.9671 3.67257 8.71072 4.16818 6.44097C4.66409 4.17121 6.84201 2.74777 9.03274 3.26123C11.2236 3.77488 12.5977 6.03118 12.1021 8.30078C11.8537 9.43714 11.1837 10.3605 10.3016 10.9358C10.3014 10.9358 10.2993 10.9377 10.2985 10.9381C10.2725 10.9574 10.2557 10.9888 10.2557 11.0241C10.2557 11.0736 10.2887 11.1153 10.3333 11.1264C10.3334 11.1265 13.6029 11.8925 13.6035 11.8925C13.6813 11.9108 13.7621 11.8797 13.8099 11.8142C13.8101 11.8136 13.81 11.8141 13.81 11.8141C14.7108 10.5793 15.2518 9.03856 15.2518 7.37211C15.2518 3.4476 12.2923 0.240389 8.55925 0.0125961C8.52597 0.0106888 8.32367 0.00250053 8.25532 0.00149155C6.6025 -0.0253887 4.9267 0.465603 3.46942 1.52292C-0.210746 4.19252 -1.10489 9.4472 1.47167 13.2597L8.01087 22.935C8.0388 22.9744 8.08376 23 8.13421 23C8.18509 23 8.2302 22.974 8.25799 22.9343C8.25799 22.9343 14.6793 13.4471 14.6799 13.4462C14.6963 13.4211 14.706 13.3906 14.706 13.3579C14.706 13.2828 14.6557 13.22 14.588 13.2039Z" fill="#FABC26"/>
<path d="M20.8796 4.53027C20.9583 4.53027 21.0105 4.55726 21.0366 4.61143L23.217 8.46633H23.3213L25.1754 4.66534C25.2144 4.57057 25.293 4.53027 25.3974 4.53027H26.7291C26.8467 4.53027 26.9118 4.65203 26.8595 4.74655L23.0209 11.7805C22.9819 11.8616 22.9036 11.9023 22.799 11.9023H21.4934C21.3498 11.9023 21.3368 11.8076 21.3891 11.6993L22.4204 9.87313L19.3392 4.70609C19.2867 4.61143 19.3261 4.53027 19.4174 4.53027H20.8796Z" fill="#2C2E2C"/>
<path d="M29.1523 4.53027C29.2699 4.53027 29.3352 4.59771 29.3352 4.71952V7.61242L32.2732 4.63831C32.3514 4.57057 32.4688 4.53027 32.6125 4.53027H34.2054C34.3229 4.53027 34.3622 4.63831 34.2706 4.73309L31.15 7.76313L34.4666 11.6993C34.5579 11.7938 34.5059 11.9023 34.3883 11.9023H32.8215C32.6779 11.9023 32.5736 11.8616 32.4949 11.7668L30.0103 8.7305L29.3352 9.38098V11.7128C29.3352 11.8346 29.2699 11.9023 29.1523 11.9023H28.0035C27.8859 11.9023 27.8208 11.8346 27.8208 11.7128V4.71952C27.8208 4.59771 27.8859 4.53027 28.0035 4.53027H29.1523Z" fill="#2C2E2C"/>
<path d="M38.7954 8.45302C39.5918 8.45302 40.0487 7.93911 40.0487 7.22222C40.0487 6.51873 39.5918 6.01839 38.7954 6.01839H36.9019V8.45302H38.7954ZM38.7954 4.53027C40.3749 4.53027 41.5629 5.70704 41.5629 7.22222C41.5629 8.79125 40.3749 9.94103 38.7954 9.94103H36.9019V11.7129C36.9019 11.8346 36.8366 11.9023 36.7193 11.9023H35.5701C35.4526 11.9023 35.3872 11.8346 35.3872 11.7129V4.71967C35.3872 4.59786 35.4526 4.53027 35.5701 4.53027H38.7954Z" fill="#2C2E2C"/>
<path d="M48.7001 4.53027C48.8174 4.53027 48.8831 4.59771 48.8831 4.71952V11.7128C48.8831 11.8346 48.8174 11.9023 48.7001 11.9023H47.5508C47.4339 11.9023 47.3682 11.8346 47.3682 11.7128V6.00452H44.2084V11.7128C44.2084 11.8346 44.1431 11.9023 44.0258 11.9023H42.8768C42.7592 11.9023 42.6938 11.8346 42.6938 11.7128V4.71952C42.6938 4.59771 42.7592 4.53027 42.8768 4.53027H48.7001Z" fill="#2C2E2C"/>
<path d="M51.7588 8.22269C51.7588 9.56187 52.6725 10.5355 53.9781 10.5355C55.2711 10.5355 56.1852 9.56187 56.1852 8.22269C56.1852 6.85649 55.2711 5.89615 53.9781 5.89615C52.6725 5.89615 51.7588 6.85649 51.7588 8.22269ZM53.9781 4.42156C56.0282 4.42156 57.7128 6.05837 57.7128 8.22269C57.7128 10.4004 56.0282 12.0103 53.9781 12.0103C51.9154 12.0103 50.2312 10.4004 50.2312 8.22269C50.2312 6.05837 51.9154 4.42156 53.9781 4.42156Z" fill="#2C2E2C"/>
<path d="M62.7823 10.4279V4.71937C62.7823 4.59786 62.8473 4.53027 62.9653 4.53027H64.088C64.2056 4.53027 64.2709 4.59786 64.2709 4.71937V10.4279H66.5036V4.71937C66.5036 4.59786 66.5686 4.53027 66.6862 4.53027H67.8093C67.9269 4.53027 67.9919 4.59786 67.9919 4.71937V11.7128C67.9919 11.8346 67.9269 11.9023 67.8093 11.9023H59.244C59.1527 11.9023 59.061 11.8346 59.061 11.7128V4.71937C59.061 4.59786 59.126 4.53027 59.244 4.53027H60.3667C60.4843 4.53027 60.5496 4.59786 60.5496 4.71937V10.4279H62.7823Z" fill="#2C2E2C"/>
<path d="M75.2475 4.53027C75.3644 4.53027 75.4301 4.59771 75.4301 4.71952V5.82869C75.4301 5.95049 75.3644 6.01798 75.2475 6.01798H72.9754V11.7128C72.9754 11.8346 72.9097 11.9023 72.7925 11.9023H71.6435C71.5262 11.9023 71.4609 11.8346 71.4609 11.7128V6.01798H69.1888C69.0715 6.01798 69.0059 5.95049 69.0059 5.82869V4.71952C69.0059 4.59771 69.0715 4.53027 69.1888 4.53027H75.2475Z" fill="#2C2E2C"/>
<path d="M77.831 9.02129H80.3116L79.1629 5.9914H79.0193L77.831 9.02129ZM80.8341 10.4415H77.2824L76.7866 11.7399C76.7476 11.8483 76.6693 11.9023 76.5647 11.9023H75.272C75.1418 11.9023 75.1024 11.8346 75.1418 11.7129L78.2229 4.63861C78.2489 4.57087 78.3012 4.53027 78.3928 4.53027H79.8811C79.9724 4.53027 80.0247 4.57087 80.0507 4.63861L82.9885 11.6858C83.0278 11.7943 82.9625 11.9023 82.8449 11.9023H81.6046C81.4743 11.9023 81.3823 11.8346 81.3303 11.7129L80.8341 10.4415Z" fill="#2C2E2C"/>
<path d="M20.3442 18.2227V15.0657H22.349V15.4293H20.747V18.2227H20.3442Z" fill="#617171"/>
<path d="M23.3364 16.6401C23.3364 17.4294 23.7519 17.9392 24.3987 17.9392C25.037 17.9392 25.4525 17.4247 25.4525 16.6401C25.4525 15.8598 25.037 15.3543 24.3901 15.3543C23.6705 15.3543 23.3364 15.9661 23.3364 16.6401ZM25.8553 16.6179C25.8553 17.5448 25.3626 18.2983 24.3945 18.2983C23.4179 18.2983 22.9338 17.5268 22.9338 16.609C22.9338 15.6249 23.5035 14.9907 24.3901 14.9907C25.3368 14.9907 25.8553 15.6778 25.8553 16.6179Z" fill="#617171"/>
<path d="M29.0074 18.223H28.6048V15.4297H27.4782L27.4183 17.2075C27.3969 17.8418 27.174 18.2896 26.7115 18.2896C26.6257 18.2896 26.4973 18.2584 26.4202 18.2273V17.8726C26.476 17.9082 26.5916 17.9171 26.6385 17.9171C26.857 17.9171 27.0157 17.7929 27.037 16.9902L27.0927 15.066H29.0074V18.223Z" fill="#617171"/>
<path d="M30.3609 16.6401C30.3609 17.4294 30.7763 17.9392 31.4232 17.9392C32.0614 17.9392 32.4769 17.4247 32.4769 16.6401C32.4769 15.8598 32.0614 15.3543 31.4146 15.3543C30.695 15.3543 30.3609 15.9661 30.3609 16.6401ZM32.8795 16.6179C32.8795 17.5448 32.3871 18.2983 31.419 18.2983C30.4422 18.2983 29.958 17.5268 29.958 16.609C29.958 15.6249 30.5279 14.9907 31.4146 14.9907C32.3613 14.9907 32.8795 15.6778 32.8795 16.6179Z" fill="#617171"/>
<path d="M34.2209 17.8723H35.0264C35.4332 17.8723 35.8316 17.8459 35.8316 17.2916C35.8316 16.7418 35.3647 16.7462 34.9579 16.7462H34.2209V17.8723ZM34.2209 16.418H34.9449C35.2876 16.418 35.6989 16.3914 35.6989 15.9171C35.6989 15.4425 35.3431 15.4204 34.9835 15.4204H34.2209V16.418ZM35.1291 15.0657C35.6346 15.0657 36.1013 15.2742 36.1013 15.8549C36.1013 16.1652 35.9259 16.4314 35.6517 16.5332C36.0286 16.6222 36.2384 16.9146 36.2384 17.3315C36.2384 18.0586 35.6645 18.2227 35.082 18.2227H33.8269V15.0657H35.1291Z" fill="#617171"/>
<path d="M39.6165 18.2227H39.2137V16.7462H37.6032V18.2227H37.2004V15.0657H37.6032V16.3824H39.2137V15.0657H39.6165V18.2227Z" fill="#617171"/>
<path d="M41.8656 15.4647L41.3387 16.9236H42.3842L41.8656 15.4647ZM43.2921 18.2227H42.8425L42.504 17.2561H41.2233L40.8765 18.2227H40.4478L41.6473 15.0657H42.1013L43.2921 18.2227Z" fill="#617171"/>
<path d="M48.2573 18.2227H47.8546V15.4293H46.244V18.2227H45.8413V15.0657H48.2573V18.2227Z" fill="#617171"/>
<path d="M49.6134 16.6401C49.6134 17.4294 50.0288 17.9392 50.6755 17.9392C51.3138 17.9392 51.7292 17.4247 51.7292 16.6401C51.7292 15.8598 51.3138 15.3543 50.6672 15.3543C49.9472 15.3543 49.6134 15.9661 49.6134 16.6401ZM52.1319 16.6179C52.1319 17.5448 51.6393 18.2983 50.6715 18.2983C49.6946 18.2983 49.2107 17.5268 49.2107 16.609C49.2107 15.6249 49.7801 14.9907 50.6672 14.9907C51.6137 14.9907 52.1319 15.6778 52.1319 16.6179Z" fill="#617171"/>
<path d="M53.0803 15.0657H53.4831V17.8592H54.8367V15.0657H55.239V17.8592H56.5927V15.0657H56.9954V18.2227H53.0803V15.0657Z" fill="#617171"/>
<path d="M60.3028 15.4293H59.2791V18.2227H58.8763V15.4293H57.8525V15.0657H60.3028V15.4293Z" fill="#617171"/>
<path d="M61.8617 15.4647L61.3352 16.9236H62.3803L61.8617 15.4647ZM63.2886 18.2227H62.8386L62.5001 17.2561H61.2194L60.8726 18.2227H60.4438L61.6434 15.0657H62.0974L63.2886 18.2227Z" fill="#617171"/>
<path d="M67.0283 16.3339L68.3646 18.2227H67.8507L66.7453 16.6175L66.2401 17.1143V18.2227H65.8374V15.0657H66.2401V16.6309L67.7865 15.0657H68.3133L67.0283 16.3339Z" fill="#617171"/>
<path d="M69.6181 16.5777H70.3932C70.7833 16.5777 71.0832 16.4668 71.0832 16.0014C71.0832 15.4958 70.736 15.4248 70.3376 15.4248H69.6181V16.5777ZM70.4704 15.0657C71.0532 15.0657 71.4856 15.3183 71.4856 15.9747C71.4856 16.6886 71.0402 16.928 70.4448 16.928H69.6181V18.2227H69.2153V15.0657H70.4704Z" fill="#617171"/>
<path d="M73.2672 15.4647L72.7403 16.9236H73.7854L73.2672 15.4647ZM74.6937 18.2227H74.2441L73.9056 17.2561H72.6249L72.2777 18.2227H71.8494L73.0485 15.0657H73.5029L74.6937 18.2227Z" fill="#617171"/>
<path d="M76.3326 14.7952H75.9469V14.3475H76.3326V14.7952ZM75.9342 18.2227H75.5315V15.0657H75.9342V18.2227ZM75.5229 14.7952H75.1375V14.3475H75.5229V14.7952Z" fill="#617171"/>
<path d="M79.464 18.2227H79.0616V16.7462H77.4511V18.2227H77.0483V15.0657H77.4511V16.3824H79.0616V15.0657H79.464V18.2227Z" fill="#617171"/>
<path d="M80.5725 15.0657H80.9752V17.7394H80.9835L82.4786 15.0657H82.9882V18.2227H82.5858V15.54H82.5771L81.0777 18.2227H80.5725V15.0657Z" fill="#617171"/>
</svg>
