<svg  viewBox="0 0 24 24" fill="none" xmlns="http://www.w3.org/2000/svg">
<path d="M1.92048 0.23999C0.999295 0.23999 0.240479 0.998807 0.240479 1.91999V10.32C0.240493 10.4685 0.299498 10.6109 0.404515 10.716C0.509532 10.821 0.651962 10.88 0.800478 10.88H10.3205C10.469 10.88 10.6114 10.821 10.7164 10.716C10.8215 10.6109 10.8805 10.4685 10.8805 10.32V1.91999C10.8805 0.998807 10.1217 0.23999 9.20048 0.23999H1.92048ZM14.8005 0.23999C13.8793 0.23999 13.1205 0.998807 13.1205 1.91999V10.32C13.1205 10.4685 13.1795 10.6109 13.2845 10.716C13.3895 10.821 13.532 10.88 13.6805 10.88H23.2005C23.349 10.88 23.4914 10.821 23.5964 10.716C23.7015 10.6109 23.7605 10.4685 23.7605 10.32V1.91999C23.7605 0.998807 23.0017 0.23999 22.0805 0.23999H14.8005ZM1.92048 1.35999H9.20048C9.51689 1.35999 9.76048 1.60357 9.76048 1.91999V3.03999H1.36048V1.91999C1.36048 1.60357 1.60406 1.35999 1.92048 1.35999ZM14.8005 1.35999H22.0805C22.3969 1.35999 22.6405 1.60357 22.6405 1.91999V3.03999H14.2405V1.91999C14.2405 1.60357 14.4841 1.35999 14.8005 1.35999ZM1.36048 4.15999H9.76048V9.75999H1.36048V4.15999ZM14.2405 4.15999H22.6405V9.75999H14.2405V4.15999ZM1.92048 13.12C0.999295 13.12 0.240479 13.8788 0.240479 14.8V23.2C0.240493 23.3485 0.299498 23.4909 0.404515 23.596C0.509532 23.701 0.651962 23.76 0.800478 23.76H10.3205C10.469 23.76 10.6114 23.701 10.7164 23.596C10.8215 23.4909 10.8805 23.3485 10.8805 23.2V14.8C10.8805 13.8788 10.1217 13.12 9.20048 13.12H1.92048ZM14.8005 13.12C13.8793 13.12 13.1205 13.8788 13.1205 14.8V23.2C13.1205 23.3485 13.1795 23.4909 13.2845 23.596C13.3895 23.701 13.532 23.76 13.6805 23.76H23.2005C23.349 23.76 23.4914 23.701 23.5964 23.596C23.7015 23.4909 23.7605 23.3485 23.7605 23.2V14.8C23.7605 13.8788 23.0017 13.12 22.0805 13.12H14.8005ZM1.92048 14.24H9.20048C9.51689 14.24 9.76048 14.4836 9.76048 14.8V15.92H1.36048V14.8C1.36048 14.4836 1.60406 14.24 1.92048 14.24ZM14.8005 14.24H22.0805C22.3969 14.24 22.6405 14.4836 22.6405 14.8V15.92H14.2405V14.8C14.2405 14.4836 14.4841 14.24 14.8005 14.24ZM1.36048 17.04H9.76048V22.64H1.36048V17.04ZM14.2405 17.04H22.6405V22.64H14.2405V17.04Z" fill="currentColor"/>
</svg>
