<svg width="83" height="28" viewBox="0 0 83 28" fill="none" xmlns="http://www.w3.org/2000/svg">
<g clip-path="url(#clip0)">
<path d="M35.9667 27.596H29.2432L33.4486 0.491211H40.1718L35.9667 27.596Z" fill="#00579F"/>
<path d="M60.3398 1.15396C59.0136 0.605531 56.9102 0 54.3093 0C47.6695 0 42.9939 3.69067 42.9652 8.96721C42.91 12.8602 46.3128 15.0225 48.8578 16.3206C51.4591 17.647 52.3433 18.5127 52.3433 19.695C52.3169 21.5109 50.2414 22.3479 48.3056 22.3479C45.6212 22.3479 44.1829 21.9163 41.9971 20.9061L41.1118 20.473L40.1709 26.5575C41.7478 27.3063 44.6532 27.9709 47.6695 28C54.7244 28 59.3173 24.3664 59.3717 18.7435C59.3986 15.6579 57.6018 13.2937 53.728 11.3617C51.3764 10.1215 49.9362 9.2853 49.9362 8.01637C49.9638 6.8628 51.1543 5.68125 53.8089 5.68125C55.9947 5.62338 57.6007 6.17104 58.8173 6.71908L59.4254 7.0069L60.3398 1.15396Z" fill="#00579F"/>
<path d="M69.2765 17.9937C69.8302 16.4366 71.9609 10.41 71.9609 10.41C71.9329 10.4679 72.5135 8.82414 72.8455 7.81506L73.3154 10.1506C73.3154 10.1506 74.5886 16.6385 74.8651 17.9937C73.8143 17.9937 70.6045 17.9937 69.2765 17.9937ZM77.5759 0.491211H72.3752C70.7715 0.491211 69.553 0.981 68.861 2.7401L58.874 27.5956H65.9289C65.9289 27.5956 67.0903 24.2502 67.34 23.5297C68.1139 23.5297 74.9769 23.5297 75.9725 23.5297C76.1655 24.4813 76.7748 27.5956 76.7748 27.5956H83.0002L77.5759 0.491211Z" fill="#00579F"/>
<path d="M23.6273 0.491211L17.0427 18.9741L16.3231 15.2255C15.1058 10.9002 11.2879 6.20082 7.02734 3.86417L13.0586 27.5672H20.1686L30.7369 0.491211H23.6273Z" fill="#00579F"/>
<path d="M10.9283 0.491211H0.110668L0 1.03887C8.4384 3.28815 14.027 8.70994 16.3231 15.2267L13.9715 2.76961C13.5843 1.03849 12.3945 0.548315 10.9283 0.491211Z" fill="#FAA61A"/>
</g>
<defs>
<clipPath id="clip0">
<rect width="83" height="28" fill="white"/>
</clipPath>
</defs>
</svg>
