<svg width="152" height="152" viewBox="0 0 152 152" fill="none" xmlns="http://www.w3.org/2000/svg">
<g clip-path="url(#clip0)">
<path d="M12.667 120.333V41.1667H139.334V114C139.334 120.967 133.634 126.667 126.667 126.667H19.0003C15.517 126.667 12.667 123.817 12.667 120.333Z" fill="url(#paint0_linear)"/>
<path d="M121.917 69.6666H49.0833C48.2093 69.6666 47.5 68.9573 47.5 68.0833V64.9166C47.5 64.0426 48.2093 63.3333 49.0833 63.3333H121.917C122.791 63.3333 123.5 64.0426 123.5 64.9166V68.0833C123.5 68.9573 122.791 69.6666 121.917 69.6666Z" fill="#0F94BF"/>
<path d="M121.917 85.5001H49.0833C48.2093 85.5001 47.5 84.7908 47.5 83.9167V80.7501C47.5 79.8761 48.2093 79.1667 49.0833 79.1667H121.917C122.791 79.1667 123.5 79.8761 123.5 80.7501V83.9167C123.5 84.7908 122.791 85.5001 121.917 85.5001Z" fill="#0F94BF"/>
<path d="M121.917 101.333H49.0833C48.2093 101.333 47.5 100.624 47.5 99.75V96.5833C47.5 95.7093 48.2093 95 49.0833 95H121.917C122.791 95 123.5 95.7093 123.5 96.5833V99.75C123.5 100.624 122.791 101.333 121.917 101.333Z" fill="#0F94BF"/>
<path d="M139.334 31.6666V41.1666H12.667V31.6666C12.667 28.1833 15.517 25.3333 19.0003 25.3333H133C136.484 25.3333 139.334 28.1833 139.334 31.6666Z" fill="url(#paint1_linear)"/>
<path d="M30.0833 69.6666H33.25C34.124 69.6666 34.8333 68.9573 34.8333 68.0833V64.9166C34.8333 64.0426 34.124 63.3333 33.25 63.3333H30.0833C29.2093 63.3333 28.5 64.0426 28.5 64.9166V68.0833C28.5 68.9573 29.2093 69.6666 30.0833 69.6666Z" fill="#0F94BF"/>
<path d="M30.0833 85.5001H33.25C34.124 85.5001 34.8333 84.7908 34.8333 83.9167V80.7501C34.8333 79.8761 34.124 79.1667 33.25 79.1667H30.0833C29.2093 79.1667 28.5 79.8761 28.5 80.7501V83.9167C28.5 84.7908 29.2093 85.5001 30.0833 85.5001Z" fill="#0F94BF"/>
<path d="M30.0833 101.333H33.25C34.124 101.333 34.8333 100.624 34.8333 99.75V96.5833C34.8333 95.7093 34.124 95 33.25 95H30.0833C29.2093 95 28.5 95.7093 28.5 96.5833V99.75C28.5 100.624 29.2093 101.333 30.0833 101.333Z" fill="#0F94BF"/>
<path opacity="0.15" d="M139.333 95.0569C133.557 87.3461 124.377 82.3333 114 82.3333C96.5102 82.3333 82.333 96.5104 82.333 114C82.333 118.506 83.2893 122.784 84.9867 126.667H126.666C133.633 126.667 139.333 120.967 139.333 114V95.0569Z" fill="url(#paint2_radial)"/>
<path d="M139.31 133.708L133.711 139.307L146.172 151.768C146.482 152.078 146.982 152.078 147.293 151.768L151.77 147.29C152.081 146.98 152.081 146.48 151.77 146.169L139.31 133.708Z" fill="#199BE2"/>
<path d="M132.367 126.771L126.771 132.367L133.71 139.308L139.308 133.71L132.367 126.771Z" fill="url(#paint3_radial)"/>
<path d="M114 139.333C127.992 139.333 139.334 127.991 139.334 114C139.334 100.009 127.992 88.6667 114 88.6667C100.009 88.6667 88.667 100.009 88.667 114C88.667 127.991 100.009 139.333 114 139.333Z" fill="url(#paint4_linear)"/>
</g>
<defs>
<linearGradient id="paint0_linear" x1="41.3" y1="31.5369" x2="99.953" y2="116.378" gradientUnits="userSpaceOnUse">
<stop stop-color="#7DD8F3"/>
<stop offset="1" stop-color="#45B0D0"/>
</linearGradient>
<linearGradient id="paint1_linear" x1="15.2257" y1="21.4699" x2="135.375" y2="45.9008" gradientUnits="userSpaceOnUse">
<stop stop-color="#0077D2"/>
<stop offset="1" stop-color="#0B59A2"/>
</linearGradient>
<radialGradient id="paint2_radial" cx="0" cy="0" r="1" gradientUnits="userSpaceOnUse" gradientTransform="translate(114.057 113.975) scale(31.4798)">
<stop/>
<stop offset="1" stop-opacity="0"/>
</radialGradient>
<radialGradient id="paint3_radial" cx="0" cy="0" r="1" gradientUnits="userSpaceOnUse" gradientTransform="translate(114.038 114.152) scale(31.0397)">
<stop offset="0.693" stop-color="#006185"/>
<stop offset="0.921" stop-color="#35C1F1"/>
</radialGradient>
<linearGradient id="paint4_linear" x1="96.4412" y1="96.4409" x2="131.952" y2="131.952" gradientUnits="userSpaceOnUse">
<stop stop-color="#A3FFFF"/>
<stop offset="0.223" stop-color="#9DFBFF"/>
<stop offset="0.53" stop-color="#8BF1FF"/>
<stop offset="0.885" stop-color="#6EE0FF"/>
<stop offset="1" stop-color="#63DAFF"/>
</linearGradient>
<clipPath id="clip0">
<rect width="152" height="152" fill="white"/>
</clipPath>
</defs>
</svg>
