<svg width="29" height="27" viewBox="0 0 29 27" fill="none" xmlns="http://www.w3.org/2000/svg">
<path d="M28.4493 9.86986L18.6166 9.37909L28.4493 9.86986ZM28.4493 9.86986C28.5663 9.87566 28.6788 9.91599 28.772 9.98555C28.8651 10.0551 28.9345 10.1506 28.9711 10.2595C29.0076 10.3684 29.0096 10.4856 28.9767 10.5956C28.9438 10.7056 28.8776 10.8033 28.7868 10.8758L28.4493 9.86986ZM18.0124 9.61873L18.1665 10.0074L18.5842 10.0283L28.2054 10.5085L20.7243 16.4901L20.3915 16.7563L20.5028 17.1677L22.9656 26.2648L14.8456 21.1678L14.5 20.9509L14.1544 21.1678L6.03438 26.2648L8.49715 17.1677L8.60852 16.7563L8.27566 16.4901L0.794623 10.5085L10.4158 10.0283L10.8335 10.0074L10.9876 9.61873L14.5 0.762942L18.0124 9.61873ZM28.3812 10.3679L28.3809 10.3681L28.3812 10.3679ZM14.5639 0.601913C14.5639 0.601936 14.5638 0.60196 14.5638 0.601983L14.5639 0.601913Z" stroke="#455067" stroke-width="1.3"/>
</svg>
