<svg width="152" height="152" viewBox="0 0 152 152" fill="none" xmlns="http://www.w3.org/2000/svg">
<path d="M136.167 44.3333H63.3337C61.592 44.3333 60.167 42.9083 60.167 41.1667V34.8333C60.167 33.0917 61.592 31.6667 63.3337 31.6667H136.167C137.909 31.6667 139.334 33.0917 139.334 34.8333V41.1667C139.334 42.9083 137.909 44.3333 136.167 44.3333Z" fill="url(#paint0_linear)"/>
<path d="M21.4092 49.8529L10.3132 38.7569C9.23023 37.6739 9.23023 35.9164 10.3132 34.8334L14.2367 30.9099C15.3197 29.8269 17.0772 29.8269 18.1602 30.9099L23.3726 36.1222L39.6841 19.8107C40.7671 18.7277 42.5246 18.7277 43.6076 19.8107L47.5311 23.7342C48.6141 24.8172 48.6141 26.5747 47.5311 27.6577L25.3327 49.8529C24.2497 50.939 22.4922 50.939 21.4092 49.8529Z" fill="#42A4EB"/>
<path d="M136.167 82.3333H63.3337C61.592 82.3333 60.167 80.9083 60.167 79.1667V72.8333C60.167 71.0917 61.592 69.6667 63.3337 69.6667H136.167C137.909 69.6667 139.334 71.0917 139.334 72.8333V79.1667C139.334 80.9083 137.909 82.3333 136.167 82.3333Z" fill="url(#paint1_linear)"/>
<path d="M21.4092 87.8529L10.3132 76.7569C9.23023 75.6739 9.23023 73.9164 10.3132 72.8334L14.2367 68.9099C15.3197 67.8269 17.0772 67.8269 18.1602 68.9099L23.3726 74.1222L39.6841 57.8107C40.7671 56.7277 42.5246 56.7277 43.6076 57.8107L47.5311 61.7342C48.6141 62.8172 48.6141 64.5747 47.5311 65.6577L25.3327 87.8529C24.2497 88.939 22.4922 88.939 21.4092 87.8529Z" fill="#42A4EB"/>
<path d="M136.167 120.333H63.3337C61.592 120.333 60.167 118.908 60.167 117.167V110.833C60.167 109.092 61.592 107.667 63.3337 107.667H136.167C137.909 107.667 139.334 109.092 139.334 110.833V117.167C139.334 118.908 137.909 120.333 136.167 120.333Z" fill="url(#paint2_linear)"/>
<path d="M28.5 104.5C23.2528 104.5 19 108.753 19 114C19 119.247 23.2528 123.5 28.5 123.5C33.7472 123.5 38 119.247 38 114C38 108.753 33.7472 104.5 28.5 104.5Z" fill="url(#paint3_linear)"/>
<defs>
<linearGradient id="paint0_linear" x1="76.716" y1="14.9657" x2="120.771" y2="59.0203" gradientUnits="userSpaceOnUse">
<stop stop-color="#1D59B3"/>
<stop offset="1" stop-color="#195BBC"/>
</linearGradient>
<linearGradient id="paint1_linear" x1="76.716" y1="52.9657" x2="120.771" y2="97.0203" gradientUnits="userSpaceOnUse">
<stop stop-color="#1D59B3"/>
<stop offset="1" stop-color="#195BBC"/>
</linearGradient>
<linearGradient id="paint2_linear" x1="76.716" y1="90.9657" x2="120.771" y2="135.02" gradientUnits="userSpaceOnUse">
<stop stop-color="#1D59B3"/>
<stop offset="1" stop-color="#195BBC"/>
</linearGradient>
<linearGradient id="paint3_linear" x1="19" y1="114" x2="38" y2="114" gradientUnits="userSpaceOnUse">
<stop stop-color="#1D59B3"/>
<stop offset="1" stop-color="#195BBC"/>
</linearGradient>
</defs>
</svg>
